<svg width="30" height="35" viewBox="0 0 30 35" fill="none" xmlns="http://www.w3.org/2000/svg">
<g clip-path="url(#clip0)">
<path d="M7.01704 29.11L14.731 31.81C14.731 31.81 13.277 35.52 9.61604 34.221C8.59704 33.883 7.7525 33.1567 7.26588 32.1998C6.77926 31.2428 6.68985 30.1325 7.01704 29.11Z" fill="#999999"/>
<path d="M0.895979 25.4651L21.496 32.6651C21.678 32.7312 21.8767 32.7356 22.0615 32.6778C22.2463 32.62 22.407 32.5031 22.519 32.3451C22.777 31.9711 22.881 31.3451 22.187 30.3511C21.392 29.0421 20.501 27.1831 22.341 21.1811C23.284 18.5321 24.701 13.2991 19.081 9.85808C18.3932 9.43523 17.6267 9.15659 16.828 9.03908C15.7729 8.87306 14.6955 8.91692 13.6574 9.16814C12.6193 9.41936 11.6411 9.873 10.7787 10.5031C9.91627 11.1331 9.18666 11.9272 8.63176 12.8398C8.07686 13.7523 7.70753 14.7655 7.54497 15.8211C5.99297 19.6911 4.80797 23.0791 1.90397 23.3551C1.73297 23.3654 1.56576 23.4098 1.41209 23.4855C1.25842 23.5612 1.12141 23.6668 1.00902 23.7961C0.662016 24.2171 0.317964 24.8411 0.643964 25.2961C0.70883 25.3767 0.796751 25.4357 0.895979 25.4651Z" fill="#333333" stroke="#999999" stroke-miterlimit="10"/>
<path d="M5.64598 12.978C5.63814 13.0519 5.64523 13.1266 5.66679 13.1977C5.68836 13.2688 5.72397 13.3348 5.77153 13.3919C5.81909 13.449 5.87761 13.4959 5.94365 13.53C6.00969 13.564 6.08191 13.5844 6.15599 13.59C6.71899 13.651 6.84 13.368 7.067 12.69C7.70469 11.3673 8.66964 10.2294 9.87035 9.38414C11.0711 8.53887 12.4678 8.01425 13.928 7.86003C14.285 7.82203 14.328 7.05303 14.048 6.62903C12.1893 6.77979 10.412 7.45705 8.92436 8.58148C7.43669 9.70592 6.30017 11.231 5.64799 12.978H5.64598Z" fill="#999999"/>
<path d="M3.05202 11.426C3.04079 11.5187 3.04821 11.6127 3.07387 11.7025C3.09953 11.7923 3.14291 11.8761 3.20143 11.9489C3.25996 12.0216 3.33244 12.082 3.41463 12.1263C3.49682 12.1706 3.58705 12.1981 3.68001 12.207C4.38601 12.297 4.54503 11.945 4.84603 11.096C5.67835 9.44761 6.91805 8.03918 8.44747 7.00434C9.97689 5.9695 11.7453 5.34256 13.585 5.183C14.035 5.144 14.1101 4.17801 13.7641 3.63901C13.2901 3.46301 9.95 3.801 6.946 6.219C3.942 8.637 3.25902 10.748 3.05202 11.426Z" fill="#999999"/>
<path d="M25.749 20.007C25.711 20.0703 25.6604 20.1252 25.6003 20.1681C25.5402 20.211 25.4719 20.2411 25.3996 20.2565C25.3274 20.2719 25.2528 20.2722 25.1805 20.2575C25.1081 20.2428 25.0395 20.2134 24.979 20.171C24.498 19.871 24.572 19.571 24.799 18.89C25.0853 17.434 25.0039 15.9295 24.5621 14.5129C24.1203 13.0962 23.3322 11.8122 22.269 10.777C22.01 10.523 22.435 9.887 22.912 9.729C24.4535 11.0279 25.5004 12.8185 25.876 14.799C26.3743 16.5062 26.3299 18.3261 25.749 20.007Z" fill="#999999"/>
<path d="M28.73 20.404C28.6836 20.4844 28.6211 20.5545 28.5464 20.6098C28.4718 20.6651 28.3866 20.7044 28.2961 20.7254C28.2057 20.7465 28.1118 20.7486 28.0204 20.7319C27.9291 20.7151 27.8421 20.6798 27.765 20.628C27.153 20.258 27.239 19.88 27.509 19.021C27.8366 17.1834 27.7004 15.2931 27.1128 13.5214C26.5252 11.7497 25.5048 10.1526 24.144 8.87498C23.812 8.56298 24.332 7.75199 24.928 7.54199C25.408 7.69999 27.846 10.059 28.772 13.85C29.698 17.641 28.972 19.739 28.73 20.404Z" fill="#999999"/>
<path d="M19.237 10.56L17.262 9.69902L21.271 -0.000976562L23.484 0.377014L19.237 10.56Z" fill="#999999"/>
</g>
<defs>
<clipPath id="clip0">
<rect width="29.23" height="34.494" fill="white"/>
</clipPath>
</defs>
</svg>
