<svg width="35" height="37" viewBox="0 0 35 37" fill="none" xmlns="http://www.w3.org/2000/svg">
<path d="M24.886 9.40099L28.61 8.14399C28.7192 8.1087 28.8171 8.04515 28.8939 7.9598C28.9706 7.87445 29.0234 7.77033 29.047 7.65799C29.0682 7.55819 29.0596 7.45435 29.0223 7.3594C28.9849 7.26444 28.9205 7.18257 28.837 7.12398C28.43 6.79798 26.337 5.17099 25.596 4.59399C25.5051 4.52279 25.3939 4.4823 25.2786 4.47835C25.1632 4.47439 25.0495 4.50719 24.954 4.57199C24.8669 4.63528 24.794 4.71595 24.7397 4.80891C24.6855 4.90186 24.6512 5.00507 24.639 5.11198V9.22298C24.6391 9.25269 24.6462 9.28196 24.6597 9.30838C24.6733 9.3348 24.6929 9.35764 24.717 9.37501C24.7411 9.39237 24.769 9.40379 24.7984 9.4083C24.8277 9.41282 24.8578 9.41031 24.886 9.40099Z" fill="#333333" stroke="#999" stroke-miterlimit="10"/>
<path d="M10.393 9.37597L6.66899 8.11997C6.5598 8.08432 6.46192 8.02054 6.38521 7.93505C6.30849 7.84956 6.25564 7.74537 6.23198 7.63297C6.21036 7.53327 6.21866 7.42941 6.25584 7.33441C6.29302 7.23941 6.35744 7.1575 6.44099 7.09897C6.84799 6.77297 8.94097 5.14597 9.68297 4.56997C9.77346 4.49842 9.88442 4.45761 9.99971 4.45347C10.115 4.44934 10.2286 4.48209 10.324 4.54697C10.4112 4.61008 10.4843 4.69072 10.5385 4.7837C10.5927 4.87669 10.627 4.97999 10.639 5.08697V9.19897C10.6391 9.22863 10.6322 9.25789 10.6187 9.28431C10.6053 9.31074 10.5857 9.33358 10.5616 9.3509C10.5375 9.36822 10.5097 9.37953 10.4803 9.38389C10.451 9.38826 10.4211 9.38553 10.393 9.37597Z" fill="#333333" stroke="#999" stroke-miterlimit="10"/>
<path d="M29.195 22.367L32.537 24.436C32.6338 24.4976 32.7452 24.5325 32.8598 24.5372C32.9745 24.542 33.0884 24.5164 33.19 24.463C33.2801 24.416 33.3545 24.3435 33.4039 24.2547C33.4533 24.1658 33.4756 24.0644 33.468 23.963C33.459 23.442 33.38 20.792 33.352 19.853C33.3487 19.7377 33.309 19.6263 33.2386 19.5349C33.1682 19.4435 33.0706 19.3766 32.96 19.344C32.8558 19.317 32.7472 19.312 32.641 19.3292C32.5348 19.3464 32.4333 19.3855 32.343 19.444L29.175 22.064C29.1521 22.0829 29.134 22.1069 29.1222 22.1341C29.1105 22.1614 29.1054 22.191 29.1073 22.2206C29.1093 22.2502 29.1182 22.2789 29.1335 22.3044C29.1487 22.3298 29.1698 22.3513 29.195 22.367Z" fill="#333333" stroke="#999" stroke-miterlimit="10"/>
<path d="M5.37998 22.367L2.03797 24.436C1.94112 24.4976 1.82975 24.5325 1.71509 24.5372C1.60043 24.542 1.48657 24.5164 1.38498 24.463C1.29466 24.4162 1.22012 24.3438 1.17069 24.2549C1.12125 24.1659 1.09908 24.0644 1.10697 23.963C1.11497 23.442 1.19496 20.792 1.22296 19.853C1.22596 19.7376 1.26555 19.6261 1.336 19.5346C1.40645 19.4431 1.50413 19.3764 1.61496 19.344C1.71912 19.317 1.82775 19.312 1.93396 19.3292C2.04017 19.3464 2.14165 19.3855 2.23197 19.444L5.39996 22.064C5.42286 22.0829 5.44093 22.1069 5.4527 22.1341C5.46447 22.1614 5.46958 22.191 5.46762 22.2206C5.46567 22.2502 5.45671 22.2789 5.44147 22.3044C5.42623 22.3298 5.40515 22.3513 5.37998 22.367Z" fill="#333333" stroke="#999" stroke-miterlimit="10"/>
<path d="M17.72 31.66L15.5199 34.917C15.4547 35.0113 15.4155 35.1211 15.4062 35.2354C15.3969 35.3497 15.4178 35.4644 15.4669 35.568C15.5102 35.6608 15.5798 35.7387 15.6672 35.7921C15.7545 35.8455 15.8557 35.8719 15.958 35.868C16.479 35.88 19.13 35.905 20.069 35.914C20.1843 35.9156 20.2972 35.8805 20.3914 35.8138C20.4855 35.7472 20.5561 35.6523 20.5929 35.543C20.6237 35.4399 20.6328 35.3316 20.6195 35.2249C20.6063 35.1182 20.571 35.0154 20.5159 34.923L18.023 31.653C18.0052 31.6292 17.982 31.61 17.9553 31.5971C17.9287 31.5841 17.8993 31.5777 17.8696 31.5784C17.84 31.579 17.8109 31.5868 17.7849 31.601C17.7589 31.6152 17.7366 31.6354 17.72 31.66Z" fill="#333333" stroke="#999" stroke-miterlimit="10"/>
<path d="M34.127 13.305C34.1037 13.0938 34.0078 12.8971 33.8557 12.7487C33.7036 12.6002 33.5047 12.5092 33.293 12.491C32.046 12.266 23.086 11.068 23.086 11.068L18.163 1.539C18.0399 1.29713 17.8357 1.1063 17.586 1H17.577H17.569H17.561H17.553C17.303 1.10579 17.0985 1.29676 16.976 1.539L12.053 11.068C12.053 11.068 3.09299 12.268 1.84499 12.491C1.63341 12.5094 1.43474 12.6006 1.28285 12.749C1.13096 12.8974 1.03524 13.0939 1.01198 13.305C0.984457 13.5053 1.00452 13.7093 1.07054 13.9004C1.13656 14.0915 1.24669 14.2644 1.39198 14.405L8.85799 21.751C8.85799 21.751 7.38598 31.135 7.25798 32.333C7.12998 33.531 8.28099 33.182 8.28099 33.182L17.566 28.494L26.851 33.182C26.851 33.182 27.999 33.531 27.875 32.333C27.751 31.135 26.275 21.751 26.275 21.751L33.742 14.405C33.8878 14.2646 33.9986 14.0919 34.0654 13.9008C34.1323 13.7098 34.1534 13.5057 34.127 13.305Z" fill="#333333" stroke="#999" stroke-miterlimit="10"/>
</svg>
