<svg width="26" height="34" viewBox="0 0 26 34" fill="none" xmlns="http://www.w3.org/2000/svg">
<g clip-path="url(#clip0)">
<path d="M3.03802 6.47403H1.39902C1.16032 6.47403 0.931387 6.56883 0.762604 6.73761C0.593821 6.90639 0.499023 7.13533 0.499023 7.37402V31.329C0.499023 31.6597 0.6304 31.9769 0.864258 32.2108C1.09812 32.4446 1.41528 32.576 1.746 32.576H23.439C23.6028 32.576 23.7649 32.5438 23.9162 32.4811C24.0675 32.4184 24.205 32.3266 24.3208 32.2108C24.4366 32.095 24.5284 31.9575 24.5911 31.8062C24.6538 31.6549 24.686 31.4928 24.686 31.329V7.37302C24.686 7.13432 24.5912 6.90542 24.4224 6.73663C24.2536 6.56785 24.0247 6.47302 23.786 6.47302H22.657" fill="#333333"/>
<path d="M3.03802 6.47403H1.39902C1.16032 6.47403 0.931387 6.56883 0.762604 6.73761C0.593821 6.90639 0.499023 7.13533 0.499023 7.37402V31.329C0.499023 31.6597 0.6304 31.9769 0.864258 32.2108C1.09812 32.4446 1.41528 32.576 1.746 32.576H23.439C23.6028 32.576 23.7649 32.5438 23.9162 32.4811C24.0675 32.4184 24.205 32.3266 24.3208 32.2108C24.4366 32.095 24.5284 31.9575 24.5911 31.8062C24.6538 31.6549 24.686 31.4928 24.686 31.329V7.37302C24.686 7.13432 24.5912 6.90542 24.4224 6.73663C24.2536 6.56785 24.0247 6.47302 23.786 6.47302H22.657" stroke="#999999" stroke-miterlimit="10"/>
<path d="M4.73401 8.392V5.49198C4.73401 5.24585 4.8318 5.00982 5.00583 4.83579C5.17986 4.66175 5.4159 4.56398 5.66202 4.56398H8.88101C8.86649 4.01944 8.9645 3.47776 9.16892 2.97283C9.37333 2.46789 9.67975 2.01059 10.069 1.6295C10.4583 1.24842 10.922 0.951769 11.4311 0.758104C11.9403 0.564439 12.4839 0.477923 13.028 0.503984C16.45 0.503984 16.682 4.50398 16.682 4.50398H19.698C19.9441 4.50398 20.1802 4.60176 20.3542 4.77579C20.5283 4.94982 20.626 5.18586 20.626 5.43198V8.392C20.6261 8.5139 20.6022 8.63464 20.5556 8.74729C20.509 8.85994 20.4407 8.96227 20.3545 9.04846C20.2683 9.13466 20.1659 9.20302 20.0533 9.24961C19.9406 9.2962 19.8199 9.32011 19.698 9.31998H5.66202C5.54011 9.32011 5.41938 9.2962 5.30673 9.24961C5.19408 9.20302 5.09172 9.13466 5.00552 9.04846C4.91933 8.96227 4.85097 8.85994 4.80438 8.74729C4.75779 8.63464 4.73388 8.5139 4.73401 8.392Z" fill="#333333" stroke="#999999" stroke-miterlimit="10"/>
<path d="M6.49002 19.322L9.948 23.6219C10.032 23.7235 10.1355 23.8073 10.2523 23.8685C10.369 23.9296 10.4968 23.9669 10.6281 23.9782C10.7595 23.9895 10.8918 23.9745 11.0172 23.9341C11.1427 23.8937 11.2589 23.8287 11.359 23.743L21.148 15.352L19.53 13.611L11.03 21.511C10.8566 21.5856 10.6673 21.6155 10.4793 21.5981C10.2913 21.5806 10.1107 21.5163 9.95401 21.4109C9.10801 20.9169 6.49002 19.322 6.49002 19.322Z" fill="#333333" stroke="#999999" stroke-miterlimit="10"/>
</g>
<defs>
<clipPath id="clip0">
<rect width="25.187" height="33.075" fill="white"/>
</clipPath>
</defs>
</svg>
