<svg width="28" height="32" viewBox="0 0 28 32" fill="none" xmlns="http://www.w3.org/2000/svg">
<path d="M4.89099 25.6131C4.7774 25.3694 4.73884 25.0974 4.78015 24.8318C4.82146 24.5661 4.94082 24.3187 5.12305 24.121C5.27215 23.9684 5.45067 23.8476 5.64783 23.7659C5.84498 23.6843 6.05664 23.6435 6.27002 23.646H25.17C25.564 23.6501 25.944 23.5001 26.229 23.228C26.3624 23.0985 26.4676 22.9429 26.538 22.7708C26.6084 22.5987 26.6424 22.4139 26.638 22.228V2.55604C26.638 2.55604 26.758 1.59605 25.505 1.42305C23.798 1.18805 3.98303 1.42305 3.98303 1.42305C3.98303 1.42305 1.71802 1.42304 1.43402 4.82304C1.15002 8.22304 1.151 27.7601 1.151 27.7601C1.151 27.7601 1.43401 30.3091 3.70001 30.5921C5.55001 30.8231 19.661 30.8141 24.768 30.8031C25.2675 30.801 25.7463 30.6032 26.1016 30.2521C26.4568 29.9009 26.6602 29.4245 26.668 28.925C26.678 28.262 26.678 27.4611 26.65 26.5841C26.636 26.3261 26.5316 26.0813 26.3552 25.8926C26.1788 25.7038 25.9416 25.5832 25.6852 25.5518C25.4288 25.5205 25.1695 25.5803 24.9528 25.721C24.7361 25.8616 24.5758 26.0741 24.5 26.3211C24.4365 26.5569 24.4091 26.801 24.419 27.0451L7.42603 27.31C6.88007 27.3231 6.3434 27.1671 5.88959 26.8633C5.43577 26.5595 5.08697 26.1228 4.89099 25.6131Z" fill="#333333" stroke="#999999" stroke-miterlimit="10"/>
</svg>
