<svg width="39" height="24" viewBox="0 0 39 24" fill="none" xmlns="http://www.w3.org/2000/svg">
<path d="M38.3256 0H0V8.55814C1.6124 8.31008 4.88708 8.38749 5.2093 12.093C5.50698 15.5163 1.86047 16 0 15.814V24H38.3256V15.814C36.5891 16.186 33.4884 15.4419 33.3023 12.093C33.4512 8.22326 36.7132 7.87597 38.3256 8.18605V0Z" fill="#CCAE44"/>
<path d="M2.20947 22.0002V18.0465C3.69784 17.6124 7.25575 16.4999 7.25575 12.279C7.25575 7.99623 3.57381 6.82167 2.20947 6.32555V2.00017L36.2095 1.99994V6.32532C34.7095 6.49994 31.2095 6.99994 31.2095 12.279C31.2095 16.4999 34.8451 17.7362 36.2095 18.2323V21.9999L2.20947 22.0002Z" fill="#373739"/>
<path d="M15.2186 14.9129C15.2186 14.5393 15.1085 14.2431 14.8884 14.0244C14.6731 13.8011 14.3047 13.596 13.7831 13.4092C13.2616 13.2224 12.8119 13.0379 12.4339 12.8556C12.0559 12.6688 11.7305 12.4569 11.4578 12.22C11.1898 11.9785 10.9793 11.6959 10.8262 11.3724C10.6779 11.0489 10.6037 10.6639 10.6037 10.2173C10.6037 9.44726 10.8621 8.81617 11.3788 8.32405C11.8956 7.83194 12.5822 7.54487 13.4386 7.46285V6.00018H14.587V7.48336C15.4339 7.59727 16.0965 7.93446 16.575 8.49493C17.0535 9.05083 17.2927 9.77305 17.2927 10.6616H15.2186C15.2186 10.1148 15.0989 9.70698 14.8597 9.43814C14.6253 9.16475 14.3095 9.02805 13.9123 9.02805C13.52 9.02805 13.2162 9.13513 13.0009 9.34929C12.7855 9.55889 12.6779 9.85052 12.6779 10.2242C12.6779 10.5705 12.7831 10.8484 12.9937 11.058C13.2042 11.2676 13.5942 11.4818 14.1635 11.7005C14.7377 11.9192 15.209 12.1265 15.5774 12.3225C15.9458 12.5139 16.2568 12.7326 16.5104 12.9786C16.764 13.2201 16.9578 13.4981 17.0918 13.8125C17.2257 14.1223 17.2927 14.4846 17.2927 14.8992C17.2927 15.6739 17.0391 16.3027 16.532 16.7857C16.0248 17.2687 15.3262 17.5535 14.4363 17.64V19.0002H13.2951V17.6469C12.3142 17.5466 11.5535 17.2163 11.0128 16.6558C10.4769 16.0908 10.209 15.3412 10.209 14.4071H12.2831C12.2831 14.9494 12.4171 15.3663 12.6851 15.6579C12.9578 15.945 13.3477 16.0885 13.8549 16.0885C14.276 16.0885 14.6085 15.9837 14.8525 15.7741C15.0965 15.5599 15.2186 15.2729 15.2186 14.9129Z" fill="#CCAE44"/>
<path d="M18.6707 9.49282C18.6707 8.88224 18.8788 8.38785 19.2951 8.00965C19.7114 7.62689 20.2568 7.43551 20.9315 7.43551C21.6157 7.43551 22.1659 7.62461 22.5822 8.00281C22.9985 8.37645 23.2066 8.88452 23.2066 9.527V10.0191C23.2066 10.6343 22.9985 11.1286 22.5822 11.5023C22.1659 11.8759 21.6205 12.0627 20.9458 12.0627C20.2664 12.0627 19.7162 11.8759 19.2951 11.5023C18.8788 11.1241 18.6707 10.616 18.6707 9.9781V9.49282ZM20.0487 10.0191C20.0487 10.2925 20.13 10.5135 20.2927 10.6821C20.4602 10.8461 20.6779 10.9282 20.9458 10.9282C21.2138 10.9282 21.4267 10.8439 21.5846 10.6753C21.7425 10.5067 21.8214 10.2811 21.8214 9.99861V9.49282C21.8214 9.21943 21.7425 8.99843 21.5846 8.82984C21.4267 8.66124 21.209 8.57694 20.9315 8.57694C20.6683 8.57694 20.4554 8.66124 20.2927 8.82984C20.13 8.99387 20.0487 9.22398 20.0487 9.52016V10.0191ZM23.6659 15.0906C23.6659 14.4755 23.8764 13.9811 24.2975 13.6074C24.7186 13.2292 25.264 13.0401 25.9339 13.0401C26.6133 13.0401 27.1611 13.227 27.5774 13.6006C27.9985 13.9697 28.209 14.48 28.209 15.1316V15.6237C28.209 16.2343 28.0032 16.7287 27.5918 17.1069C27.1803 17.4806 26.6324 17.6674 25.9482 17.6674C25.2592 17.6674 24.7066 17.4783 24.2903 17.1001C23.8741 16.7219 23.6659 16.2207 23.6659 15.5964V15.0906ZM25.0439 15.6237C25.0439 15.8744 25.13 16.0885 25.3023 16.2662C25.4745 16.4439 25.6898 16.5328 25.9482 16.5328C26.5319 16.5328 26.8238 16.2252 26.8238 15.6101V15.0906C26.8238 14.8172 26.7425 14.5985 26.5798 14.4345C26.4171 14.2659 26.2018 14.1816 25.9339 14.1816C25.6659 14.1816 25.4506 14.2659 25.2879 14.4345C25.1253 14.5985 25.0439 14.8241 25.0439 15.1111V15.6237ZM21.3549 16.7857L20.343 16.2662L25.4458 8.48809L26.4578 9.00754L21.3549 16.7857Z" fill="#CCAE44"/>
</svg>
