<svg width="66" height="28" viewBox="0 0 66 28" fill="none" xmlns="http://www.w3.org/2000/svg">
<rect x="0.5" y="0.5" width="65" height="27" rx="5.5" fill="#373739" stroke="#757373"/>
<rect x="41" y="5" width="14" height="3" rx="1.5" fill="#757373"/>
<rect x="45" y="12" width="14" height="3" rx="1.5" fill="#757373"/>
<path d="M35.0719 17.7119C35.0719 17.137 34.9166 16.6814 34.6059 16.3449C34.3019 16.0014 33.7818 15.6859 33.0456 15.3985C32.3094 15.1111 31.6744 14.8272 31.1408 14.5468C30.6072 14.2594 30.1479 13.9334 29.7629 13.5689C29.3847 13.1973 29.0875 12.7627 28.8713 12.265C28.6619 11.7673 28.5572 11.1749 28.5572 10.4879C28.5572 9.30319 28.922 8.33228 29.6515 7.57518C30.381 6.81809 31.3502 6.37645 32.5593 6.25026V4H34.1803V6.28181C35.3759 6.45706 36.3114 6.97581 36.9868 7.83806C37.6623 8.69331 38 9.80442 38 11.1714H35.0719C35.0719 10.3302 34.9031 9.70277 34.5654 9.28917C34.2344 8.86856 33.7886 8.65825 33.228 8.65825C32.6741 8.65825 32.2452 8.82299 31.9412 9.15247C31.6373 9.47494 31.4853 9.92359 31.4853 10.4984C31.4853 11.0312 31.6339 11.4588 31.9311 11.7813C32.2283 12.1038 32.7788 12.4332 33.5826 12.7697C34.3931 13.1062 35.0584 13.4252 35.5785 13.7266C36.0986 14.021 36.5377 14.3575 36.8956 14.7361C37.2536 15.1076 37.5272 15.5352 37.7163 16.0189C37.9054 16.4956 38 17.0529 38 17.6909C38 18.8826 37.642 19.85 36.926 20.5931C36.2101 21.3361 35.2239 21.7743 33.9676 21.9075V24H32.3566V21.918C30.972 21.7638 29.898 21.2555 29.1348 20.3933C28.3783 19.524 28 18.3708 28 16.9338H30.9281C30.9281 17.768 31.1172 18.4094 31.4954 18.858C31.8804 19.2997 32.4309 19.5205 33.1469 19.5205C33.7413 19.5205 34.2107 19.3593 34.5552 19.0368C34.8997 18.7073 35.0719 18.2657 35.0719 17.7119Z" fill="#757373"/>
<rect x="41" y="20" width="5" height="3" rx="1.5" fill="#757373"/>
<rect x="51" y="20" width="8" height="3" rx="1.5" fill="#757373"/>
<rect x="41" y="12" width="3" height="3" rx="1.5" fill="#757373"/>
<rect x="56" y="5" width="3" height="3" rx="1.5" fill="#757373"/>
<rect x="47" y="20" width="3" height="3" rx="1.5" fill="#757373"/>
<rect x="7" y="5" width="14" height="3" rx="1.5" fill="#757373"/>
<rect x="11" y="13" width="14" height="3" rx="1.5" fill="#757373"/>
<rect x="7" y="20" width="5" height="3" rx="1.5" fill="#757373"/>
<rect x="17" y="20" width="8" height="3" rx="1.5" fill="#757373"/>
<rect x="7" y="13" width="3" height="3" rx="1.5" fill="#757373"/>
<rect x="22" y="5" width="3" height="3" rx="1.5" fill="#757373"/>
<rect x="13" y="20" width="3" height="3" rx="1.5" fill="#757373"/>
</svg>
