<svg width="43" height="28" viewBox="0 0 43 28" fill="none" xmlns="http://www.w3.org/2000/svg">
<rect x="0.5" y="0.5" width="42" height="27" rx="5.5" fill="#373739" stroke="#757373"/>
<rect x="18" y="5" width="14" height="3" rx="1.5" fill="#757373"/>
<rect x="22" y="12" width="14" height="3" rx="1.5" fill="#757373"/>
<path d="M12.0719 17.7119C12.0719 17.137 11.9166 16.6814 11.6059 16.3449C11.3019 16.0014 10.7818 15.6859 10.0456 15.3985C9.30936 15.1111 8.67443 14.8272 8.14083 14.5468C7.60723 14.2594 7.14792 13.9334 6.76292 13.5689C6.38467 13.1973 6.08747 12.7627 5.87133 12.265C5.66194 11.7673 5.55724 11.1749 5.55724 10.4879C5.55724 9.30319 5.92199 8.33228 6.65147 7.57518C7.38095 6.81809 8.35022 6.37645 9.55927 6.25026V4H11.1803V6.28181C12.3759 6.45706 13.3114 6.97581 13.9868 7.83806C14.6623 8.69331 15 9.80442 15 11.1714H12.0719C12.0719 10.3302 11.9031 9.70277 11.5654 9.28917C11.2344 8.86856 10.7886 8.65825 10.228 8.65825C9.6741 8.65825 9.24519 8.82299 8.94124 9.15247C8.63728 9.47494 8.48531 9.92359 8.48531 10.4984C8.48531 11.0312 8.63391 11.4588 8.9311 11.7813C9.2283 12.1038 9.77879 12.4332 10.5826 12.7697C11.3931 13.1062 12.0584 13.4252 12.5785 13.7266C13.0986 14.021 13.5377 14.3575 13.8956 14.7361C14.2536 15.1076 14.5272 15.5352 14.7163 16.0189C14.9054 16.4956 15 17.0529 15 17.6909C15 18.8826 14.642 19.85 13.926 20.5931C13.2101 21.3361 12.2239 21.7743 10.9676 21.9075V24H9.35664V21.918C7.97197 21.7638 6.89801 21.2555 6.13475 20.3933C5.37825 19.524 5 18.3708 5 16.9338H7.92807C7.92807 17.768 8.11719 18.4094 8.49544 18.858C8.88045 19.2997 9.43094 19.5205 10.1469 19.5205C10.7413 19.5205 11.2107 19.3593 11.5552 19.0368C11.8997 18.7073 12.0719 18.2657 12.0719 17.7119Z" fill="#757373"/>
<rect x="18" y="20" width="5" height="3" rx="1.5" fill="#757373"/>
<rect x="28" y="20" width="8" height="3" rx="1.5" fill="#757373"/>
<rect x="18" y="12" width="3" height="3" rx="1.5" fill="#757373"/>
<rect x="33" y="5" width="3" height="3" rx="1.5" fill="#757373"/>
<rect x="24" y="20" width="3" height="3" rx="1.5" fill="#757373"/>
</svg>
