<svg width="37" height="37" viewBox="0 0 37 37" fill="none" xmlns="http://www.w3.org/2000/svg">
<g clip-path="url(#clip0)">
<path d="M30.6665 14.0833V15.0833H31.6665C32.8606 15.0833 33.8332 16.0559 33.8332 17.25V33.0833C33.8332 34.2775 32.8606 35.25 31.6665 35.25H7.9165C7.15502 35.25 6.19491 34.9912 5.44652 34.3981C4.73419 33.8336 4.1665 32.9334 4.1665 31.5V12.5C4.1665 10.4335 5.84996 8.75 7.9165 8.75H28.4998C29.694 8.75 30.6665 9.72254 30.6665 10.9167V14.0833ZM28.4998 29.3333H29.4998V28.3333V28.3188V28.3043V28.2897V28.2751V28.2605V28.2458V28.2311V28.2164V28.2016V28.1869V28.1721V28.1572V28.1423V28.1274V28.1125V28.0976V28.0826V28.0676V28.0525V28.0375V28.0224V28.0072V27.9921V27.9769V27.9617V27.9465V27.9312V27.916V27.9007V27.8853V27.87V27.8546V27.8392V27.8238V27.8083V27.7929V27.7774V27.7619V27.7463V27.7308V27.7152V27.6996V27.6839V27.6683V27.6526V27.6369V27.6212V27.6055V27.5897V27.5739V27.5581V27.5423V27.5265V27.5106V27.4948V27.4789V27.463V27.447V27.4311V27.4151V27.3991V27.3831V27.3671V27.3511V27.335V27.319V27.3029V27.2868V27.2707V27.2545V27.2384V27.2222V27.206V27.1899V27.1737V27.1574V27.1412V27.125V27.1087V27.0924V27.0761V27.0598V27.0435V27.0272V27.0109V26.9945V26.9781V26.9618V26.9454V26.929V26.9126V26.8962V26.8798V26.8633V26.8469V26.8304V26.814V26.7975V26.781V26.7645V26.748V26.7315V26.715V26.6985V26.682V26.6654V26.6489V26.6323V26.6158V26.5992V26.5826V26.5661V26.5495V26.5329V26.5163V26.4997V26.4831V26.4665V26.4499V26.4333V26.4167V26.4001V26.3835V26.3668V26.3502V26.3336V26.317V26.3003V26.2837V26.267V26.2504V26.2338V26.2171V26.2005V26.1839V26.1672V26.1506V26.1339V26.1173V26.1007V26.084V26.0674V26.0508V26.0341V26.0175V26.0009V25.9842V25.9676V25.951V25.9344V25.9178V25.9012V25.8846V25.868V25.8514V25.8348V25.8182V25.8016V25.785V25.7685V25.7519V25.7353V25.7188V25.7022V25.6857V25.6692V25.6526V25.6361V25.6196V25.6031V25.5866V25.5701V25.5536V25.5372V25.5207V25.5043V25.4878V25.4714V25.455V25.4386V25.4222V25.4058V25.3894V25.373V25.3567V25.3403V25.324V25.3077V25.2914V25.2751V25.2588V25.2425V25.2263V25.21V25.1938V25.1776V25.1614V25.1452V25.129V25.1129V25.0967V25.0806V25.0645V25.0484V25.0323V25.0163V25.0002V24.9842V24.9682V24.9522V24.9362V24.9202V24.9043V24.8884V24.8725V24.8566V24.8407V24.8249V24.809V24.7932V24.7774V24.7617V24.7459V24.7302V24.7145V24.6988V24.6831V24.6675V24.6519V24.6363V24.6207V24.6051V24.5896V24.5741V24.5586V24.5432V24.5277V24.5123V24.4969V24.4815V24.4662V24.4509V24.4356V24.4203V24.4051V24.3899V24.3747V24.3595V24.3444V24.3293V24.3142V24.2991V24.2841V24.2691V24.2541V24.2392V24.2243V24.2094V24.1945V24.1797V24.1649V24.1501V24.1354V24.1206V24.106V24.0913V24.0767V24.0621V24.0475V24.033V24.0185V24.004V23.9896V23.9752V23.9608V23.9465V23.9322V23.9179V23.9037V23.8895V23.8753V23.8612V23.8471V23.833V23.819V23.805V23.7911V23.7771V23.7632V23.7494V23.7356V23.7218V23.7081V23.6944V23.6807V23.6671V23.6535V23.6399V23.6264V23.6129V23.5995V23.5861V23.5727V23.5594V23.5461V23.5329V23.5197V23.5065V23.4934V23.4803V23.4672V23.4542V23.4413V23.4284V23.4155V23.4027V23.3899V23.3771V23.3644V23.3518V23.3391V23.3266V23.314V23.3016V23.2891V23.2767V23.2644V23.252V23.2398V23.2276V23.2154V23.2033V23.1912V23.1792V23.1672V23.1552V23.1433V23.1315V23.1197V23.1079V23.0962V23.0846V23.073V23.0614V23.0499V23.0385V23.027V23.0157V23.0044V22.9931V22.9819V22.9707V22.9596V22.9486V22.9376V22.9266V22.9157V22.9049V22.8941V22.8833V22.8726V22.862V22.8514V22.8409V22.8304V22.82V22.8096V22.7993V22.789V22.7788V22.7686V22.7586V22.7485V22.7385V22.7286V22.7187V22.7089V22.6991V22.6894V22.6798V22.6702V22.6607V22.6512V22.6418V22.6324V22.6231V22.6139V22.6047V22.5956V22.5865V22.5775V22.5686V22.5597V22.5509V22.5421V22.5334V22.5248V22.5162V22.5077V22.4992V22.4908V22.4825V22.4742V22.466V22.4579V22.4498V22.4418V22.4338V22.4259V22.4181V22.4103V22.4027V22.395V22.3875V22.38V22.3725V22.3652V22.3579V22.3506V22.3435V22.3364V22.3293V22.3223V22.3154V22.3086V22.3018V22.2952V22.2885V22.282V22.2755V22.2691V22.2627V22.2564V22.2502V22.2441V22.238V22.232V22.2261V22.2202V22.2144V22.2087V22.203V22.1975V22.192V22.1865V22.1812V22.1759V22.1707V22.1656V22.1605V22.1555V22.1506V22.1457V22.141V22.1363V22.1317V22.1271V22.1227V22.1183V22.114V22.1097V22.1055V22.1015V22.0975V22.0935V22.0897V22.0859V22.0822V22.0786V22.075V22.0716V22.0682V22.0649V22.0616V22.0585V22.0554V22.0524V22.0495V22.0467V22.044V22.0413V22.0387V22.0362V22.0338V22.0314V22.0292V22.027V22.0249V22.0229V22.021V22.0191V22.0174V22.0157V22.0141V22.0126V22.0111V22.0098V22.0086V22.0074V22.0063V22.0053V22.0044V22.0035V22.0028V22.0022V22.0016V22.0011V22.0007V22.0004V22.0002V22L28.4998 22H29.4998V21H28.4998H25.3332H24.3332V22V28.3333V29.3333H25.3332H28.4998ZM29.4998 10.9167V9.91667H28.4998H7.9165C6.48957 9.91667 5.33317 11.0759 5.33317 12.5C5.33317 13.9241 6.48957 15.0833 7.9165 15.0833H28.4998H29.4998V14.0833V10.9167Z" stroke="#757373" stroke-width="2"/>
<rect x="25" y="22" width="4" height="7" fill="#757373"/>
</g>
<defs>
<clipPath id="clip0">
<rect width="37" height="37" fill="white"/>
</clipPath>
</defs>
</svg>
