<svg width="24" height="29" viewBox="0 0 24 29" fill="none" xmlns="http://www.w3.org/2000/svg">
<path d="M11.9983 5.74775C17.6101 5.74775 22.1593 10.4119 22.1593 16.1655V23.7748C22.1593 24.0519 22.052 24.3177 21.8608 24.5137C21.6697 24.7097 21.4104 24.8198 21.1401 24.8198H2.85659C2.58626 24.8198 2.327 24.7097 2.13585 24.5137C1.9447 24.3177 1.83731 24.0519 1.83731 23.7748V16.1655C1.83731 10.4119 6.38651 5.74775 11.9983 5.74775ZM11.1065 0H12.8902C12.9578 0 13.0226 0.0275257 13.0704 0.0765217C13.1182 0.125518 13.145 0.19197 13.145 0.261261V3.3964C13.145 3.46569 13.1182 3.53214 13.0704 3.58114C13.0226 3.63013 12.9578 3.65766 12.8902 3.65766H11.1065C11.0389 3.65766 10.9741 3.63013 10.9263 3.58114C10.8785 3.53214 10.8516 3.46569 10.8516 3.3964V0.261261C10.8516 0.19197 10.8785 0.125518 10.9263 0.0765217C10.9741 0.0275257 11.0389 0 11.1065 0ZM1.33563 4.03845C1.35929 4.01415 1.3874 3.99488 1.41833 3.98174C1.44927 3.96859 1.48243 3.96182 1.51591 3.96182C1.5494 3.96182 1.58256 3.96859 1.61349 3.98174C1.64443 3.99488 1.67253 4.01415 1.6962 4.03845L3.85836 6.25525C3.90611 6.30424 3.93294 6.37067 3.93294 6.43993C3.93294 6.50919 3.90611 6.57561 3.85836 6.62461L2.59699 7.91785C2.54921 7.96681 2.48442 7.99431 2.41687 7.99431C2.34931 7.99431 2.28452 7.96681 2.23674 7.91785L0.0745766 5.70105C0.0268243 5.65206 0 5.58563 0 5.51637C0 5.44711 0.0268243 5.38068 0.0745766 5.33169L1.33594 4.03845H1.33563ZM22.6642 4.03845L23.9256 5.33169C23.9732 5.38067 24 5.44702 24 5.5162C24 5.58539 23.9732 5.65174 23.9256 5.70072L21.7634 7.91818C21.7398 7.94247 21.7116 7.96174 21.6807 7.97488C21.6498 7.98803 21.6166 7.9948 21.5831 7.9948C21.5496 7.9948 21.5165 7.98803 21.4855 7.97488C21.4546 7.96174 21.4265 7.94247 21.4028 7.91818L20.1415 6.62493C20.1178 6.60067 20.099 6.57185 20.0862 6.54014C20.0733 6.50842 20.0667 6.47442 20.0667 6.44009C20.0667 6.40576 20.0733 6.37176 20.0862 6.34004C20.099 6.30833 20.1178 6.27951 20.1415 6.25525L22.304 4.03845C22.3517 3.98949 22.4165 3.96198 22.4841 3.96198C22.5516 3.96198 22.6164 3.98949 22.6642 4.03845ZM1.80545 26.9099H22.1912C22.4615 26.9099 22.7208 27.02 22.9119 27.216C23.1031 27.412 23.2105 27.6778 23.2105 27.955V28.7387C23.2105 28.808 23.1836 28.8745 23.1359 28.9235C23.0881 28.9725 23.0232 29 22.9557 29H1.04099C0.973405 29 0.90859 28.9725 0.860802 28.9235C0.813013 28.8745 0.786166 28.808 0.786166 28.7387V27.955C0.786166 27.6778 0.893556 27.412 1.08471 27.216C1.27586 27.02 1.53512 26.9099 1.80545 26.9099ZM6.51966 16.5574V24.8198H8.55823V16.5574H6.51966Z" fill="#757373"/>
</svg>
