<svg width="24" height="28" viewBox="0 0 24 28" fill="none" xmlns="http://www.w3.org/2000/svg">
<path d="M17.9951 0.854462C17.9951 0.345788 18.2071 0.345788 18.313 0.409372C19.8603 1.93539 23.031 5.07646 23.3362 5.43253C23.6414 5.7886 23.421 6.00479 23.2726 6.06837H18.7581C18.1986 6.06837 18.0163 5.60209 17.9951 5.36895V0.854462Z" fill="#757373"/>
<path d="M0.000617089 25.589V1.68128C0.204084 0.307874 1.27231 0.00689844 1.78098 0.0280866C6.01994 0.00689178 14.6632 -0.0227809 15.3244 0.0280866C15.9857 0.078954 16.2782 0.473157 16.2782 0.791099V6.19577C16.2782 7.56919 16.9776 7.72179 17.4863 7.72179C18.9276 7.65821 22.0008 7.72179 22.9546 7.72179C23.8828 7.72179 24.0143 8.42122 23.9719 8.67556C23.9931 13.3172 24.0228 23.0838 23.9719 25.0167C23.921 26.9497 22.6366 27.4753 22.0008 27.4965H2.73474C0.496575 27.4965 -0.0205777 26.2248 0.000617089 25.589Z" fill="#757373"/>
<circle cx="9.9834" cy="13.4443" r="4.32373" fill="#757373"/>
<path d="M20.6751 22.0314L15.5504 16.9067C16.4346 15.381 16.7335 13.5857 16.3915 11.8557C16.0495 10.1258 15.0899 8.57929 13.6917 7.50468C12.2935 6.43008 10.5522 5.90073 8.79245 6.01538C7.03271 6.13002 5.37476 6.88082 4.1278 8.12775C2.88085 9.37468 2.13002 11.0326 2.01538 12.7923C1.90073 14.552 2.43009 16.2933 3.50472 17.6915C4.57935 19.0897 6.12588 20.0492 7.85586 20.3912C9.58584 20.7332 11.3812 20.4343 12.907 19.5502L18.0305 24.6736C18.1335 24.777 18.256 24.8591 18.3908 24.9151C18.5257 24.9712 18.6703 25 18.8163 25C18.9623 25 19.1069 24.9712 19.2418 24.9151C19.3766 24.8591 19.4991 24.777 19.6021 24.6736L20.6763 23.6006C20.8838 23.3921 21.0002 23.1099 21 22.8157C20.9998 22.5216 20.883 22.2395 20.6751 22.0314ZM4.12948 13.2769C4.12948 12.259 4.43131 11.2641 4.9968 10.4178C5.56228 9.57148 6.36603 8.91187 7.3064 8.52237C8.24677 8.13286 9.28153 8.03095 10.2798 8.22951C11.2781 8.42808 12.1951 8.91821 12.9148 9.63793C13.6346 10.3576 14.1247 11.2746 14.3233 12.2729C14.5218 13.2712 14.4199 14.3059 14.0304 15.2462C13.6409 16.1866 12.9813 16.9903 12.135 17.5558C11.2887 18.1213 10.2937 18.4231 9.27582 18.4231C7.91102 18.4228 6.60222 17.8805 5.63716 16.9155C4.6721 15.9504 4.1298 14.6416 4.12948 13.2769Z" fill="#373739"/>
</svg>
