<?xml version="1.0" encoding="utf-8"?>
<!-- Generator: Adobe Illustrator 23.0.1, SVG Export Plug-In . SVG Version: 6.00 Build 0)  -->
<svg version="1.1" id="Layer_1" xmlns="http://www.w3.org/2000/svg" xmlns:xlink="http://www.w3.org/1999/xlink" x="0px" y="0px"
	 viewBox="0 0 41.4 19.6" style="enable-background:new 0 0 41.4 19.6;" xml:space="preserve">
<style type="text/css">
	.st0{fill:#F1881D;}
	.st1{font-family:'MyriadPro-Regular';}
	.st2{font-size:8.4319px;}
</style>
<g>
	<text transform="matrix(1 0 0 1 19.9203 8.0736)"><tspan x="0" y="0" class="st0 st1 st2">Criar </tspan><tspan x="-1.4" y="9" class="st0 st1 st2">Alerta</tspan></text>
</g>
<path class="st0" d="M38.1,0h-25v0.7h25.1c1.4,0,2.5,1.1,2.5,2.5v13.1c0,1.4-1.1,2.5-2.5,2.5H8.4v0.8h29.8c1.8,0,3.3-1.5,3.3-3.3
	v-13C41.4,1.5,40,0,38.1,0z"/>
<path class="st0" d="M3.6,16.2l4.3,1.5c0,0-0.8,2.1-2.8,1.3C3,18.3,3.6,16.2,3.6,16.2z"/>
<path class="st0" d="M0.2,14.2l11.5,4c0.2,0.1,0.4,0,0.6-0.2c0.1-0.2,0.2-0.6-0.2-1.1c-0.4-0.7-0.9-1.8,0.1-5.1
	c0.5-1.5,1.3-4.4-1.8-6.3C10.1,5.3,9.3,5,9.1,5C8.4,5,4.8,4.7,3.9,8.8C3,11,2.4,12.8,0.8,13c-0.2,0-0.4,0.1-0.5,0.2
	c-0.2,0.2-0.4,0.6-0.2,0.8C0.1,14.1,0.2,14.1,0.2,14.2z"/>
<g>
	<g>
		<path class="st0" d="M2.9,7.2c0,0,0,0.3,0.3,0.3s0.4-0.1,0.5-0.5c0.1-0.4,1.2-2.4,3.8-2.7c0.2,0,0.2-0.4,0.1-0.7
			c-0.2-0.1-1.7,0.1-3,1.2S2.9,6.9,2.9,7.2z"/>
		<path class="st0" d="M1.4,6.4c0,0,0,0.4,0.3,0.4s0.5-0.1,0.6-0.6C2.6,5.7,4,3.2,7.3,2.9c0.3,0,0.3-0.6,0.1-0.9
			C7.1,1.9,5.2,2.1,3.6,3.5S1.5,6,1.4,6.4z"/>
	</g>
</g>
<g>
	<g>
		<path class="st0" d="M14,11.1c0,0-0.2,0.3-0.4,0.1c-0.3-0.2-0.2-0.3-0.1-0.7s0.4-2.6-1.4-4.5c-0.1-0.1,0.1-0.5,0.4-0.6
			c0.2,0.1,1.3,1.1,1.6,2.8C14.5,9.9,14.1,10.8,14,11.1z"/>
		<path class="st0" d="M15.7,11.3c0,0-0.2,0.3-0.5,0.1s-0.3-0.4-0.1-0.9c0.2-0.5,0.5-3.3-1.9-5.6c-0.2-0.2,0.1-0.6,0.4-0.7
			c0.3,0.1,1.6,1.4,2.1,3.5S15.8,11,15.7,11.3z"/>
	</g>
</g>
<polygon class="st0" points="10.4,5.9 9.3,5.4 11.5,0 12.8,0.2 "/>
</svg>
