<?xml version="1.0" encoding="utf-8"?>
<!-- Generator: Adobe Illustrator 23.0.1, SVG Export Plug-In . SVG Version: 6.00 Build 0)  -->
<svg version="1.1" id="Layer_1" xmlns="http://www.w3.org/2000/svg" xmlns:xlink="http://www.w3.org/1999/xlink" x="0px" y="0px"
	 viewBox="0 0 64.8 21.3" style="enable-background:new 0 0 64.8 21.3;" xml:space="preserve">
<style type="text/css">
	.st0{fill:#F1881D;}
	.st1{font-family:'MyriadPro-Regular';}
	.st2{font-size:8.5997px;}
	.st3{fill:#FFFFFF;}
	.st4{fill:#CCCCCC;}
</style>
<g>
	<g>
		<path class="st0" d="M60.3,0H19.7l0.9,0.7h39.7c1.9,0,3.4,1.2,3.4,2.7v14.3c0,1.5-1.5,2.7-3.4,2.7H20.8l-1,0.9h40.5
			c2.5,0,4.5-1.6,4.5-3.6V3.6C64.8,1.6,62.8,0,60.3,0z"/>
	</g>
	<g>
		<g>
			<text transform="matrix(1 0 0 1 24.7246 13.1734)" class="st0 st1 st2">Recalcular</text>
		</g>
		<g>
			<g>
				<path class="st0" d="M11.3,9.9h10.3V5.1c0-2.8-2.3-5.1-5.1-5.1h-5.3V9.9z"/>
				<rect x="13.8" y="4.5" class="st3" width="5.4" height="1"/>
			</g>
			<g>
				<path class="st4" d="M11.3,11h10.3v4.8c0,2.8-2.3,5.1-5.1,5.1h-5.3V11z"/>
				<g>
					<rect x="13.8" y="16.2" class="st3" width="5.4" height="1"/>
					<rect x="13.8" y="14.7" class="st3" width="5.4" height="1"/>
				</g>
			</g>
			<g>
				<path class="st0" d="M10.3,9.9H0V5.1C0,2.3,2.3,0,5.1,0h5.3V9.9z"/>
				<polygon class="st3" points="7.9,4.5 5.7,4.5 5.7,2.3 4.7,2.3 4.7,4.5 2.5,4.5 2.5,5.5 4.7,5.5 4.7,7.7 5.7,7.7 5.7,5.5 
					7.9,5.5 				"/>
			</g>
			<g>
				<path class="st0" d="M10.3,10.9H0l0,4.8c0,2.8,2.3,5.1,5.1,5.1h5.3V10.9z"/>
				<polygon class="st3" points="7.9,17.2 6.3,15.7 7.9,14.1 7.1,13.4 5.6,15 4,13.4 3.3,14.1 4.9,15.7 3.3,17.2 4,17.9 5.6,16.4 
					7.1,17.9 				"/>
			</g>
		</g>
	</g>
</g>
</svg>
