<?xml version="1.0" encoding="utf-8"?>
<!-- Generator: Adobe Illustrator 23.0.1, SVG Export Plug-In . SVG Version: 6.00 Build 0)  -->
<svg version="1.1" id="Layer_1" xmlns="http://www.w3.org/2000/svg" xmlns:xlink="http://www.w3.org/1999/xlink" x="0px" y="0px"
	 viewBox="0 0 50 50" style="enable-background:new 0 0 50 50;" xml:space="preserve">
<style type="text/css">
	.st0{fill:#FFFFFF;}
</style>
<g>
	<path class="st0" d="M25.3,4.1C13.7,4.1,4.4,13.4,4.4,25s9.4,20.9,20.9,20.9S46.2,36.6,46.2,25S36.9,4.1,25.3,4.1z M25.3,41.3
		C16.3,41.3,9,34,9,25S16.3,8.7,25.3,8.7S41.6,16,41.6,25S34.3,41.3,25.3,41.3z"/>
	<path class="st0" d="M34.6,30.5L29.1,25l5.5-5.5c0.4-0.4,0.4-1,0-1.3l-2.4-2.4c-0.4-0.4-1-0.4-1.3,0l-5.5,5.5l-5.5-5.5
		c-0.4-0.4-1-0.4-1.3,0L16,18.2c-0.4,0.4-0.4,1,0,1.3l5.5,5.5L16,30.6c-0.4,0.4-0.4,1,0,1.3l2.4,2.4c0.4,0.4,1,0.4,1.3,0l5.6-5.6
		l5.6,5.6c0.4,0.4,1,0.4,1.3,0l2.4-2.4C35,31.5,35,30.9,34.6,30.5z"/>
</g>
</svg>
