<?xml version="1.0" encoding="utf-8"?>
<!-- Generator: Adobe Illustrator 23.0.1, SVG Export Plug-In . SVG Version: 6.00 Build 0)  -->
<svg version="1.1" id="Layer_1" xmlns="http://www.w3.org/2000/svg" xmlns:xlink="http://www.w3.org/1999/xlink" x="0px" y="0px"
	 viewBox="0 0 50 50" style="enable-background:new 0 0 50 50;" xml:space="preserve">
<style type="text/css">
	.st0{fill:#444444;stroke:#A67269;stroke-miterlimit:10;}
	.st1{fill:#A67269;}
	.st2{fill:#3F3F3F;}
</style>
<ellipse class="st0" cx="25.4" cy="25.1" rx="21.6" ry="21.6"/>
<g>
	<path class="st1" d="M36.7,28.8c2,2,2,5.3,0,7.3l-0.3,0.3c-2,2-5.3,2-7.3,0l-3.7-3.7l-3.7,3.7c-2,2-5.3,2-7.3,0l-0.3-0.3
		c-2-2-2-5.3,0-7.3l3.7-3.7l-3.7-3.7c-2-2-2-5.3,0-7.3l0.3-0.3c2-2,5.3-2,7.3,0l3.7,3.7l3.7-3.7c2-2,5.3-2,7.3,0l0.3,0.3
		c2,2,2,5.3,0,7.3L33,25.1L36.7,28.8z"/>
	<polygon class="st2" points="35.3,16.9 33.6,15.2 25.4,23.4 17.1,15.2 15.4,16.9 23.7,25.1 15.4,33.4 17.1,35.1 25.4,26.8 
		33.6,35.1 35.3,33.4 27.1,25.1 	"/>
</g>
</svg>
