<?xml version="1.0" encoding="utf-8"?>
<!-- Generator: Adobe Illustrator 23.0.1, SVG Export Plug-In . SVG Version: 6.00 Build 0)  -->
<svg version="1.1" id="Layer_1" xmlns="http://www.w3.org/2000/svg" xmlns:xlink="http://www.w3.org/1999/xlink" x="0px" y="0px"
	 viewBox="0 0 50 50" style="enable-background:new 0 0 50 50;" xml:space="preserve">
<style type="text/css">
	.st0{fill:#DDDDDD;}
</style>
<g>
	<path class="st0" d="M14.97,16.04h6.81c0,0,0.22,0.02,0.27,0.4s0,1.41,0,1.41s-0.08,0.39-0.32,0.41c-0.24,0.02-5.39,0-5.39,0v15.93
		h15.88v-6.45c0,0,0.14-0.34,0.5-0.37s1.43,0,1.43,0s0.35,0.11,0.38,0.43s0,7.49,0,7.49s-0.09,1.09-1.06,1.15
		c-1.13,0-18.43,0-18.43,0s-0.91-0.4-0.92-1.11s0-18.27,0-18.27S14.13,16.32,14.97,16.04z"/>
	<path class="st0" d="M21,29.56c0,0,0.12,0.09,0.43,0.07s3.57-0.73,3.57-0.73l8.13-8.13l-3.35-3.39l-8.11,8.14l-0.75,3.72
		C20.92,29.24,20.88,29.51,21,29.56z"/>
	<path class="st0" d="M31.37,15.78l3.26,3.27c0,0,0.05,0.08,0.29-0.06c0.23-0.14,1.82-1.83,1.82-1.83s0.23-0.58-0.12-0.91
		c-0.35-0.32-2.41-2.39-2.41-2.39s-0.45-0.25-0.84,0S31.37,15.78,31.37,15.78z"/>
</g>
</svg>
