<?xml version="1.0" encoding="utf-8"?>
<!-- Generator: Adobe Illustrator 23.0.1, SVG Export Plug-In . SVG Version: 6.00 Build 0)  -->
<svg version="1.1" id="Layer_1" xmlns="http://www.w3.org/2000/svg" xmlns:xlink="http://www.w3.org/1999/xlink" x="0px" y="0px"
	 viewBox="0 0 50 50" style="enable-background:new 0 0 50 50;" xml:space="preserve">
<style type="text/css">
	.st0{fill:#FFFFFF;}
</style>
<path class="st0" d="M5.4,5h10.9c0,0,0.4,0,0.4,0.8c0.1,0.7,0,2.8,0,2.8s-0.1,0.8-0.5,0.8c-0.4,0-8.6,0-8.6,0v31.3h35.8v-1.4
	c0,0,0.2-0.7,0.8-0.7c0.6,0,2.3,0,2.3,0s0.6,0.2,0.6,0.8c0,0.6,0,3.4,0,3.4s-0.1,2.1-1.7,2.3c-1.8,0-39.9,0-39.9,0S4,44.3,4,42.9
	C4,41.5,4,7,4,7S4,5.5,5.4,5z"/>
<g>
	<polygon class="st0" points="40.3,19.1 40.2,19.1 40.2,18.6 14.2,18.6 19.1,13.7 17.4,12 17.3,12.1 17.3,12.1 11.3,18.1 11.3,18.1 
		9.6,19.8 9.6,19.9 9.6,19.9 9.6,19.9 11.3,21.6 11.3,21.6 17.3,27.6 17.4,27.5 17.4,27.6 19.1,25.9 14.2,21 40.2,21 40.2,20.5 
		40.3,20.5 	"/>
	<polygon class="st0" points="9.6,31.2 9.7,31.2 9.7,31.7 35.6,31.7 30.8,36.6 32.5,38.3 32.5,38.3 32.5,38.3 38.6,32.2 38.6,32.2 
		40.3,30.5 40.3,30.5 40.2,30.4 40.2,30.4 38.6,28.7 38.5,28.8 32.5,22.8 32.5,22.8 32.5,22.8 30.8,24.5 35.7,29.3 9.7,29.3 
		9.7,29.8 9.6,29.8 	"/>
</g>
</svg>
