<?xml version="1.0" encoding="utf-8"?>
<!-- Generator: Adobe Illustrator 23.0.1, SVG Export Plug-In . SVG Version: 6.00 Build 0)  -->
<svg version="1.1" id="Layer_1" xmlns="http://www.w3.org/2000/svg" xmlns:xlink="http://www.w3.org/1999/xlink" x="0px" y="0px"
	 viewBox="0 0 50 50" style="enable-background:new 0 0 50 50;" xml:space="preserve">
<style type="text/css">
	.st0{fill:#FFFFFF;}
	.st1{fill:#3F3F3F;}
	.st2{fill:#A3A3A3;}
</style>
<g>
	<path class="st0" d="M34.35,35.16H17.1c-1.08,0-1.95-0.87-1.95-1.95V15.96c0-1.08,0.87-1.95,1.95-1.95h17.25
		c1.08,0,1.95,0.87,1.95,1.95v17.25C36.3,34.28,35.42,35.16,34.35,35.16z"/>
</g>
<g>
	<polygon class="st1" points="31.1,23.13 27.05,23.13 27.05,19.08 24.15,19.08 24.15,23.13 20.1,23.13 20.1,26.03 24.15,26.03 
		24.15,30.08 27.05,30.08 27.05,26.03 31.1,26.03 	"/>
</g>
<path class="st2" d="M41.98,7.48H23.24c-0.66,0-1.2,0.54-1.2,1.2v4.3H35.6c1.15,0,2.08,0.93,2.08,2.08v13.57h4.3
	c0.66,0,1.2-0.54,1.2-1.2V8.69C43.18,8.02,42.64,7.48,41.98,7.48z"/>
</svg>
