<?xml version="1.0" encoding="utf-8"?>
<!-- Generator: Adobe Illustrator 23.0.1, SVG Export Plug-In . SVG Version: 6.00 Build 0)  -->
<svg version="1.1" id="Layer_1" xmlns="http://www.w3.org/2000/svg" xmlns:xlink="http://www.w3.org/1999/xlink" x="0px" y="0px"
	 viewBox="0 0 50 50" style="enable-background:new 0 0 50 50;" xml:space="preserve">
<style type="text/css">
	.st0{fill:#F3F3F5;}
	.st1{fill:#3F3F3F;}
</style>
<g>
	<path class="st0" d="M32.81,39.89H17.04c-1.74,0-3.15-1.41-3.15-3.15v-9.67c0-1.74,1.41-3.15,3.15-3.15h15.77
		c1.74,0,3.15,1.41,3.15,3.15v9.67C35.95,38.48,34.55,39.89,32.81,39.89z"/>
	<path class="st1" d="M28.28,30.04c0-1.86-1.5-3.36-3.36-3.36s-3.36,1.5-3.36,3.36c0,1.36,0.81,2.52,1.96,3.05l-1.34,4.06h5.46
		l-1.44-4C27.43,32.64,28.28,31.44,28.28,30.04z"/>
	<path class="st0" d="M22.83,24.93c-1.44-0.43-2.68-1.47-3.3-2.97c-1.1-2.63,0.15-5.66,2.79-6.75s5.66,0.15,6.75,2.79l3.18-1.32
		c-1.83-4.39-6.86-6.47-11.25-4.64s-6.47,6.86-4.64,11.25c0.56,1.34,1.41,2.46,2.46,3.32L22.83,24.93z"/>
</g>
</svg>
