<?xml version="1.0" encoding="utf-8"?>
<!-- Generator: Adobe Illustrator 23.0.1, SVG Export Plug-In . SVG Version: 6.00 Build 0)  -->
<svg version="1.1" id="Layer_1" xmlns="http://www.w3.org/2000/svg" xmlns:xlink="http://www.w3.org/1999/xlink" x="0px" y="0px"
	 viewBox="0 0 50 50" style="enable-background:new 0 0 50 50;" xml:space="preserve">
<style type="text/css">
	.st0{fill:#FFFFFF;}
	.st1{fill:#3F3F3F;}
</style>
<path class="st0" d="M11,47.6H9.7c-0.5,0-0.9-0.4-0.9-0.9V4.1c0-0.5,0.4-0.9,0.9-0.9H11c0.5,0,0.9,0.4,0.9,0.9v42.6
	C12,47.2,11.5,47.6,11,47.6z"/>
<path class="st0" d="M12.5,4.5c0,0,1.7,2.5,6,2.7c3.4-0.3,5.3-0.7,7.2-1.3s10.4-2.7,17-2.4c0,9.7,0,23.8,0,23.8s-5.2-1.1-9.6,0
	c-4.1,1.1-9.8,2.9-12.5,3.1c-2.7,0.2-6.1-0.4-8.1-2.5C12.5,26,12.5,4.5,12.5,4.5z"/>
<path class="st1" d="M20.5,15V8.5c0,0,2,0.3,7.1-1.8c0,1.6,0,6.5,0,6.5S24.5,14.7,20.5,15z"/>
<path class="st1" d="M27.6,20.3c0,0,4.8-1.1,7.2-1.3c0-1.5,0-7.1,0-7.1s-3.8,0.4-7.2,1.2C27.7,15.2,27.6,20.3,27.6,20.3z"/>
<path class="st1" d="M34.8,5.3c0,0,5.8-0.6,6.4-0.4c0,1.7,0,6.5,0,6.5s-5.7,0.3-6.4,0.5C34.8,11.1,34.8,5.3,34.8,5.3z"/>
<path class="st1" d="M34.8,25.6c0,0,5.5-0.3,6.6,0c0-1.7,0-7.1,0-7.1s-4.3,0.3-6.4,0.5C34.8,20.8,34.8,25.6,34.8,25.6z"/>
<path class="st1" d="M20.5,28.9c0,0,2.2-0.2,3.7-0.7c1.5-0.5,3.6-0.9,3.6-0.9l-0.1-7c0,0-4.6,1.6-7.1,1.8
	C20.5,24.5,20.5,28.9,20.5,28.9z"/>
<path class="st1" d="M14,21.1c0,0,2.3,1.5,6.5,1c-0.1-2.5,0-7.1,0-7.1s-4.9,0.2-6.3-1C14.1,17.3,14,21.1,14,21.1z"/>
</svg>
