<?xml version="1.0" encoding="utf-8"?>
<!-- Generator: Adobe Illustrator 23.0.1, SVG Export Plug-In . SVG Version: 6.00 Build 0)  -->
<svg version="1.1" id="Layer_1" xmlns="http://www.w3.org/2000/svg" xmlns:xlink="http://www.w3.org/1999/xlink" x="0px" y="0px"
	 viewBox="0 0 50 50" style="enable-background:new 0 0 50 50;" xml:space="preserve">
<style type="text/css">
	.st0{fill:#FFFFFF;}
</style>
<path class="st0" d="M12.94,12.53h6.81c0,0,0.22,0.03,0.27,0.49c0.05,0.46,0,1.73,0,1.73s-0.08,0.48-0.32,0.51
	c-0.24,0.03-5.39,0-5.39,0v19.55h22.37v-0.85c0,0,0.14-0.42,0.5-0.45c0.35-0.03,1.43,0,1.43,0s0.35,0.13,0.38,0.52
	c0.02,0.39,0,2.12,0,2.12s-0.09,1.34-1.06,1.42c-1.13,0-24.93,0-24.93,0s-0.91-0.49-0.92-1.36c-0.01-0.87,0-22.42,0-22.42
	S12.1,12.86,12.94,12.53z"/>
<g>
	<polygon class="st0" points="34.77,21.35 34.68,21.35 34.68,21.04 18.47,21.04 21.49,17.98 20.44,16.92 20.41,16.95 20.4,16.95 
		16.62,20.73 16.62,20.73 15.56,21.79 15.58,21.81 15.6,21.82 15.59,21.83 16.65,22.89 16.65,22.88 20.4,26.63 20.44,26.6 
		20.47,26.63 21.53,25.57 18.45,22.54 34.68,22.54 34.68,22.23 34.77,22.23 	"/>
	<polygon class="st0" points="15.56,28.9 15.64,28.9 15.64,29.21 31.85,29.21 28.83,32.27 29.89,33.33 29.92,33.3 29.92,33.3 
		33.71,29.52 33.71,29.52 34.77,28.46 34.74,28.44 34.73,28.42 34.73,28.42 33.68,27.36 33.67,27.37 29.92,23.62 29.89,23.65 
		29.86,23.62 28.8,24.68 31.88,27.71 15.64,27.71 15.64,28.02 15.56,28.02 	"/>
</g>
</svg>
