<?xml version="1.0" encoding="utf-8"?>
<!-- Generator: Adobe Illustrator 23.0.1, SVG Export Plug-In . SVG Version: 6.00 Build 0)  -->
<svg version="1.1" id="Layer_1" xmlns="http://www.w3.org/2000/svg" xmlns:xlink="http://www.w3.org/1999/xlink" x="0px" y="0px"
	 viewBox="0 0 50 50" style="enable-background:new 0 0 50 50;" xml:space="preserve">
<style type="text/css">
	.st0{fill:#FFFFFF;}
</style>
<g>
	<path class="st0" d="M25.3,12.7c-6.8,0-12.31,5.51-12.31,12.31S18.5,37.32,25.3,37.32s12.31-5.51,12.31-12.31S32.1,12.7,25.3,12.7z
		 M25.3,34.62c-5.31,0-9.61-4.3-9.61-9.61s4.3-9.61,9.61-9.61c5.31,0,9.61,4.3,9.61,9.61S30.61,34.62,25.3,34.62z"/>
	<path class="st0" d="M30.78,28.26L27.51,25l3.24-3.24c0.22-0.22,0.22-0.57,0-0.78l-1.43-1.43c-0.22-0.22-0.57-0.22-0.78,0
		l-3.24,3.24l-3.24-3.24c-0.22-0.22-0.57-0.22-0.78,0l-1.43,1.43c-0.22,0.22-0.22,0.57,0,0.78L23.09,25l-3.27,3.27
		c-0.22,0.22-0.22,0.57,0,0.78l1.43,1.43c0.22,0.22,0.57,0.22,0.78,0l3.27-3.27l3.27,3.27c0.22,0.22,0.57,0.22,0.78,0l1.43-1.43
		C31,28.83,31,28.48,30.78,28.26z"/>
</g>
</svg>
