<?xml version="1.0" encoding="utf-8"?>
<!-- Generator: Adobe Illustrator 23.0.1, SVG Export Plug-In . SVG Version: 6.00 Build 0)  -->
<svg version="1.1" id="Layer_1" xmlns="http://www.w3.org/2000/svg" xmlns:xlink="http://www.w3.org/1999/xlink" x="0px" y="0px"
	 viewBox="0 0 50 50" style="enable-background:new 0 0 50 50;" xml:space="preserve">
<style type="text/css">
	.st0{fill:#FFFFFF;}
</style>
<g>
	<path class="st0" d="M7.6,9.7h11.6c0,0,0.4,0,0.5,0.7c0.1,0.6,0,2.4,0,2.4s-0.1,0.7-0.5,0.7c-0.4,0-9.2,0-9.2,0v27.1h27v-11
		c0,0,0.2-0.6,0.9-0.6c0.6-0.1,2.4,0,2.4,0s0.6,0.2,0.6,0.7c0.1,0.5,0,12.7,0,12.7s-0.2,1.9-1.8,2c-1.9,0-31.3,0-31.3,0
		s-1.5-0.7-1.6-1.9c0-1.2,0-31.1,0-31.1S6.2,10.2,7.6,9.7z"/>
	<path class="st0" d="M17.9,32.7c0,0,0.2,0.2,0.7,0.1s6.1-1.2,6.1-1.2l13.8-13.8L32.8,12L19,25.8l-1.3,6.3
		C17.7,32.1,17.7,32.6,17.9,32.7z"/>
	<path class="st0" d="M35.5,9.3l5.5,5.6c0,0,0.1,0.1,0.5-0.1c0.4-0.2,3.1-3.1,3.1-3.1s0.4-1-0.2-1.5C43.8,9.5,40.3,6,40.3,6
		s-0.8-0.4-1.4,0C38.2,6.4,35.5,9.3,35.5,9.3z"/>
</g>
</svg>
