<?xml version="1.0" encoding="utf-8"?>
<!-- Generator: Adobe Illustrator 23.0.1, SVG Export Plug-In . SVG Version: 6.00 Build 0)  -->
<svg version="1.1" id="Layer_1" xmlns="http://www.w3.org/2000/svg" xmlns:xlink="http://www.w3.org/1999/xlink" x="0px" y="0px"
	 viewBox="0 0 50 50" style="enable-background:new 0 0 50 50;" xml:space="preserve">
<style type="text/css">
	.st0{fill:#444444;stroke:#A67269;stroke-miterlimit:10;}
	.st1{fill:#A67269;}
	.st2{fill:#3F3F3F;}
</style>
<ellipse transform="matrix(0.9732 -0.2298 0.2298 0.9732 -5.09 6.5032)" class="st0" cx="25.38" cy="25.11" rx="12.71" ry="12.71"/>
<g>
	<path class="st1" d="M32.03,27.3c1.19,1.19,1.19,3.12,0,4.31l-0.15,0.15c-1.19,1.19-3.12,1.19-4.31,0l-2.19-2.19l-2.19,2.19
		c-1.19,1.19-3.12,1.19-4.31,0l-0.15-0.15c-1.19-1.19-1.19-3.12,0-4.31l2.19-2.19l-2.19-2.19c-1.19-1.19-1.19-3.12,0-4.31l0.15-0.15
		c1.19-1.19,3.12-1.19,4.31,0l2.19,2.19l2.19-2.19c1.19-1.19,3.12-1.19,4.31,0l0.15,0.15c1.19,1.19,1.19,3.12,0,4.31l-2.19,2.19
		L32.03,27.3z"/>
	<polygon class="st2" points="31.23,20.26 30.23,19.26 25.38,24.11 20.53,19.26 19.53,20.26 24.38,25.11 19.53,29.96 20.53,30.96 
		25.38,26.11 30.23,30.96 31.23,29.96 26.38,25.11 	"/>
</g>
</svg>
