<?xml version="1.0" encoding="utf-8"?>
<!-- Generator: Adobe Illustrator 23.0.1, SVG Export Plug-In . SVG Version: 6.00 Build 0)  -->
<svg version="1.1" id="Layer_1" xmlns="http://www.w3.org/2000/svg" xmlns:xlink="http://www.w3.org/1999/xlink" x="0px" y="0px"
	 viewBox="0 0 50 50" style="enable-background:new 0 0 50 50;" xml:space="preserve">
<style type="text/css">
	.st0{fill:#FFFFFF;}
	.st1{fill:#3F3F3F;}
	.st2{fill:#A3A3A3;}
</style>
<g>
	<path class="st0" d="M34.1,47.5H7.7c-1.7,0-3-1.3-3-3V18.1c0-1.7,1.3-3,3-3h26.4c1.7,0,3,1.3,3,3v26.4
		C37.1,46.1,35.7,47.5,34.1,47.5z"/>
</g>
<g>
	<polygon class="st1" points="29.1,29.1 22.9,29.1 22.9,22.9 18.5,22.9 18.5,29.1 12.3,29.1 12.3,33.5 18.5,33.5 18.5,39.7 
		22.9,39.7 22.9,33.5 29.1,33.5 	"/>
</g>
<path class="st2" d="M45.8,5.1H17.1c-1,0-1.8,0.8-1.8,1.8v6.6H36c1.8,0,3.2,1.4,3.2,3.2v20.8h6.6c1,0,1.8-0.8,1.8-1.8V7
	C47.6,6,46.8,5.1,45.8,5.1z"/>
</svg>
