<?xml version="1.0" encoding="utf-8"?>
<!-- Generator: Adobe Illustrator 23.0.1, SVG Export Plug-In . SVG Version: 6.00 Build 0)  -->
<svg version="1.1" id="Layer_1" xmlns="http://www.w3.org/2000/svg" xmlns:xlink="http://www.w3.org/1999/xlink" x="0px" y="0px"
	 viewBox="0 0 50 50" style="enable-background:new 0 0 50 50;" xml:space="preserve">
<style type="text/css">
	.st0{fill:#F3F3F5;}
	.st1{fill:#3F3F3F;}
</style>
<g>
	<path class="st0" d="M37.1,47.7H12.7c-2.7,0-4.9-2.2-4.9-4.9v-15c0-2.7,2.2-4.9,4.9-4.9h24.4c2.7,0,4.9,2.2,4.9,4.9v15
		C42,45.5,39.8,47.7,37.1,47.7z"/>
	<path class="st1" d="M30.1,32.5c0-2.9-2.3-5.2-5.2-5.2s-5.2,2.3-5.2,5.2c0,2.1,1.3,3.9,3,4.7l-2.1,6.3h8.5l-2.2-6.2
		C28.8,36.5,30.1,34.6,30.1,32.5z"/>
	<path class="st0" d="M21.7,24.5c-2.2-0.7-4.2-2.3-5.1-4.6c-1.7-4.1,0.2-8.8,4.3-10.5s8.8,0.2,10.5,4.3l4.9-2
		C33.4,5,25.6,1.7,18.8,4.6S8.8,15.2,11.6,22c0.9,2.1,2.2,3.8,3.8,5.1L21.7,24.5z"/>
</g>
</svg>
