<?xml version="1.0" encoding="utf-8"?>
<!-- Generator: Adobe Illustrator 23.0.1, SVG Export Plug-In . SVG Version: 6.00 Build 0)  -->
<svg version="1.1" id="Layer_1" xmlns="http://www.w3.org/2000/svg" xmlns:xlink="http://www.w3.org/1999/xlink" x="0px" y="0px"
	 viewBox="0 0 50 50" style="enable-background:new 0 0 50 50;" xml:space="preserve">
<style type="text/css">
	.st0{fill:#FFFFFF;}
	.st1{fill:#3F3F3F;}
</style>
<path class="st0" d="M15.24,41.26h-0.98c-0.36,0-0.66-0.29-0.66-0.66V10.19c0-0.36,0.29-0.66,0.66-0.66h0.98
	c0.36,0,0.66,0.29,0.66,0.66V40.6C15.9,40.96,15.6,41.26,15.24,41.26z"/>
<path class="st0" d="M16.3,10.46c0,0,1.18,1.79,4.29,1.93c2.43-0.2,3.82-0.47,5.14-0.96s7.4-1.91,12.13-1.71c0,6.96,0,17.03,0,17.03
	s-3.72-0.81-6.83,0c-2.94,0.78-7,2.1-8.96,2.23c-1.96,0.14-4.36-0.3-5.78-1.79C16.26,25.84,16.3,10.46,16.3,10.46z"/>
<path class="st1" d="M21.99,17.94v-4.62c0,0,1.4,0.19,5.08-1.25c-0.02,1.13,0,4.62,0,4.62S24.82,17.74,21.99,17.94z"/>
<path class="st1" d="M27.07,21.79c0,0,3.41-0.8,5.11-0.93c-0.03-1.05,0-5.05,0-5.05s-2.71,0.28-5.11,0.89
	C27.14,18.13,27.07,21.79,27.07,21.79z"/>
<path class="st1" d="M32.18,11.06c0,0,4.15-0.44,4.59-0.31c0.02,1.2,0,4.65,0,4.65s-4.04,0.21-4.55,0.38
	C32.23,15.19,32.18,11.06,32.18,11.06z"/>
<path class="st1" d="M32.18,25.51c0,0,3.92-0.23,4.68,0c-0.01-1.24,0-5.1,0-5.1s-3.04,0.19-4.58,0.36
	C32.24,22.1,32.18,25.51,32.18,25.51z"/>
<path class="st1" d="M21.97,27.9c0,0,1.55-0.12,2.65-0.48s2.55-0.63,2.55-0.63l-0.1-5c0,0-3.25,1.11-5.04,1.27
	C22,24.78,21.97,27.9,21.97,27.9z"/>
<path class="st1" d="M17.34,22.31c0,0,1.66,1.07,4.63,0.73C21.93,21.28,21.99,18,21.99,18s-3.47,0.16-4.53-0.68
	C17.39,19.58,17.34,22.31,17.34,22.31z"/>
</svg>
