<?xml version="1.0" encoding="utf-8"?>
<!-- Generator: Adobe Illustrator 23.0.1, SVG Export Plug-In . SVG Version: 6.00 Build 0)  -->
<svg version="1.1" id="Layer_1" xmlns="http://www.w3.org/2000/svg" xmlns:xlink="http://www.w3.org/1999/xlink" x="0px" y="0px"
	 viewBox="0 0 50 50" style="enable-background:new 0 0 50 50;" xml:space="preserve">
<style type="text/css">
	.st0{fill:none;}
</style>
<g>
	<path class="st0" d="M1.05,22.21L24.32,1.37c0,0,0.88-0.82,1.59,0s22.63,20.34,22.63,20.34s1.27,1.65-0.4,1.89
		c-1.67,0.25-2.79,0-2.79,0v23.64c0,0,0.1,1.41-1.22,1.76c-3.11-0.14-10.79-0.03-10.79-0.03s-0.95,0.12-0.93-1.26
		c0.03-1.58,0-12.63,0-12.63s0.36-0.7-0.76-0.96c-0.84,0.11-13.31,0-13.31,0s-0.58,0.23-0.58,0.98s0,12.82,0,12.82
		s0.16,0.94-0.89,1.03c-1.29-0.05-11.12,0.01-11.12,0.01s-0.9-0.36-0.9-1.53c0-1.17,0-23.75,0-23.75H1.69
		C1.69,23.67,0.78,23.56,1.05,22.21z"/>
	<path class="st0" d="M44.18,49.5l-0.08,0c-3.06-0.13-10.68-0.03-10.76-0.03c0,0.01-0.5,0.05-0.93-0.33
		c-0.35-0.31-0.52-0.8-0.51-1.45c0.03-1.56,0-12.51,0-12.62v-0.12l0.06-0.11c-0.02-0.07-0.12-0.16-0.36-0.22
		c-1.38,0.09-11.43,0.01-13.14,0c-0.08,0.06-0.21,0.2-0.21,0.48v12.82c0,0,0,0,0,0c0.01,0,0.08,0.55-0.27,1
		c-0.17,0.21-0.49,0.48-1.07,0.52c-1.32-0.05-11.06,0.01-11.16,0.01l-0.1,0l-0.09-0.04c-0.05-0.02-1.21-0.51-1.21-1.99V24.17H1.69
		c-0.12-0.01-0.59-0.08-0.91-0.53c-0.27-0.38-0.35-0.9-0.22-1.53l0.03-0.16L23.98,0.99c0.05-0.05,0.58-0.53,1.27-0.49
		c0.39,0.02,0.75,0.2,1.04,0.54c0.52,0.59,13.79,12.46,22.58,20.3c0.2,0.24,0.87,1.17,0.55,1.96c-0.12,0.3-0.43,0.68-1.2,0.8
		c-1.02,0.15-1.84,0.13-2.36,0.08v23.07c0.04,0.6-0.24,1.88-1.59,2.24L44.18,49.5z M39.3,48.43c1.79,0,3.59,0.02,4.77,0.06
		c0.81-0.26,0.79-1.12,0.78-1.22l0-24.29l0.61,0.13c0.01,0,1.06,0.22,2.61-0.01c0.23-0.03,0.39-0.1,0.42-0.18
		c0.08-0.19-0.16-0.66-0.35-0.91c-2.18-1.93-21.89-19.5-22.61-20.32C25.39,1.53,25.27,1.5,25.2,1.5c-0.2-0.01-0.47,0.17-0.55,0.23
		L1.52,22.46c-0.04,0.27-0.01,0.48,0.08,0.6c0.06,0.09,0.16,0.12,0.16,0.12l3.6,0v24.25c0,0.64,0.35,0.93,0.52,1.03
		c1.19-0.01,9.8-0.06,11.02-0.01c0.06-0.01,0.23-0.04,0.3-0.14c0.09-0.12,0.07-0.31,0.07-0.31L17.26,35.1c0-0.86,0.57-1.31,0.9-1.44
		l0.09-0.04l0.1,0c5,0.04,12.65,0.08,13.23,0l0.09-0.01l0.09,0.02c0.57,0.13,0.94,0.39,1.11,0.76c0.13,0.28,0.11,0.57,0.04,0.78
		c0,1.16,0.03,11.04,0,12.54c-0.01,0.33,0.06,0.58,0.18,0.69c0.08,0.07,0.18,0.07,0.19,0.07l0,0C33.36,48.48,36.32,48.43,39.3,48.43
		z"/>
</g>
</svg>
