<?xml version="1.0" encoding="utf-8"?>
<!-- Generator: Adobe Illustrator 23.0.1, SVG Export Plug-In . SVG Version: 6.00 Build 0)  -->
<svg version="1.1" id="Layer_1" xmlns="http://www.w3.org/2000/svg" xmlns:xlink="http://www.w3.org/1999/xlink" x="0px" y="0px"
	 viewBox="0 0 640 480" style="enable-background:new 0 0 640 480;" xml:space="preserve">
<style type="text/css">
	.st0{stroke:#A4A3A3;stroke-width:2;stroke-miterlimit:10;}
	.st1{opacity:0.58;}
	.st2{stroke:#FFFFFF;stroke-miterlimit:10;}
	.st3{font-family:'Calibri';}
	.st4{font-size:10px;}
	.st5{stroke:#B1B2B1;stroke-miterlimit:10;}
	.st6{stroke:#B1B2B1;stroke-width:2;stroke-miterlimit:10;}
	.st7{fill:#333333;}
	.st8{stroke:#FFFFFF;stroke-width:3;stroke-miterlimit:10;}
</style>
<g>
	<g>
		<path d="M56.38,80.87"/>
	</g>
</g>
<g>
	<g>
		<path d="M56.44,81.46"/>
	</g>
</g>
<g>
	<g>
		<g>
			<path d="M56.38,24.67"/>
		</g>
	</g>
</g>
<g>
	<g>
		<g>
			<path d="M56.38,23.25"/>
		</g>
	</g>
</g>
<g>
	<g>
		<path class="st0" d="M56.38,141.63"/>
	</g>
</g>
<g class="st1">
	<g>
		<path class="st2" d="M56.38,74.27"/>
	</g>
</g>
<g class="st1">
	<g>
		<path class="st2" d="M56.38,133.48"/>
	</g>
</g>
<g>
	<g>
		<g>
			<path d="M17.74,53c0,0.51-0.06,0.97-0.18,1.38s-0.3,0.76-0.54,1.05s-0.54,0.51-0.9,0.66s-0.78,0.23-1.26,0.23
				c-0.48,0-0.89-0.07-1.23-0.21s-0.63-0.35-0.86-0.62s-0.39-0.61-0.51-1.01s-0.17-0.86-0.17-1.38c0-0.5,0.06-0.95,0.18-1.36
				s0.3-0.75,0.54-1.04s0.54-0.5,0.9-0.66s0.78-0.23,1.26-0.23c0.47,0,0.87,0.07,1.22,0.21s0.63,0.34,0.86,0.61s0.4,0.6,0.51,1
				S17.74,52.49,17.74,53z M16.85,53.06c0-0.36-0.03-0.69-0.1-1s-0.17-0.57-0.32-0.8s-0.35-0.4-0.59-0.53
				c-0.25-0.13-0.55-0.19-0.92-0.19s-0.67,0.07-0.92,0.21s-0.45,0.32-0.6,0.55s-0.27,0.49-0.33,0.8c-0.07,0.3-0.1,0.62-0.1,0.96
				c0,0.37,0.03,0.71,0.09,1.03c0.06,0.31,0.17,0.58,0.31,0.81s0.34,0.4,0.59,0.53c0.25,0.13,0.55,0.19,0.92,0.19
				c0.37,0,0.68-0.07,0.93-0.21c0.25-0.14,0.45-0.32,0.6-0.55s0.26-0.5,0.33-0.81S16.85,53.4,16.85,53.06z"/>
			<path d="M23.28,56.11c0,0.03,0,0.05-0.01,0.07s-0.03,0.04-0.06,0.05s-0.08,0.02-0.14,0.03s-0.14,0.01-0.23,0.01
				c-0.08,0-0.15,0-0.21-0.01s-0.1-0.02-0.13-0.03s-0.06-0.04-0.08-0.06s-0.03-0.06-0.05-0.1l-0.58-1.49
				c-0.07-0.17-0.14-0.32-0.21-0.47s-0.16-0.26-0.26-0.37s-0.22-0.18-0.36-0.24s-0.3-0.09-0.49-0.09H19.9v2.69
				c0,0.03-0.01,0.05-0.02,0.07s-0.04,0.04-0.07,0.05s-0.07,0.02-0.13,0.03s-0.12,0.01-0.2,0.01s-0.15,0-0.2-0.01
				s-0.1-0.02-0.13-0.03s-0.06-0.03-0.07-0.05s-0.02-0.04-0.02-0.07v-5.85c0-0.13,0.03-0.22,0.1-0.27s0.14-0.08,0.21-0.08h1.34
				c0.16,0,0.29,0,0.4,0.01s0.2,0.02,0.29,0.03c0.24,0.04,0.46,0.11,0.65,0.2s0.34,0.21,0.47,0.35s0.22,0.3,0.29,0.48
				s0.1,0.38,0.1,0.6c0,0.21-0.03,0.4-0.09,0.57s-0.14,0.32-0.25,0.44s-0.24,0.24-0.39,0.33s-0.32,0.17-0.5,0.24
				c0.1,0.05,0.2,0.1,0.28,0.17s0.16,0.15,0.24,0.25s0.14,0.21,0.21,0.34s0.13,0.27,0.2,0.43l0.57,1.39
				c0.05,0.12,0.07,0.2,0.09,0.25S23.28,56.08,23.28,56.11z M22.01,51.67c0-0.25-0.06-0.46-0.17-0.63s-0.3-0.29-0.56-0.37
				c-0.08-0.02-0.17-0.04-0.28-0.05s-0.24-0.01-0.4-0.01H19.9v2.13h0.82c0.22,0,0.41-0.03,0.57-0.08s0.3-0.13,0.4-0.22
				s0.19-0.21,0.24-0.34S22.01,51.82,22.01,51.67z"/>
			<path d="M29.35,52.98c0,0.55-0.07,1.02-0.21,1.43s-0.34,0.75-0.61,1.02s-0.6,0.47-0.99,0.6s-0.86,0.2-1.4,0.2h-1.34
				c-0.07,0-0.15-0.03-0.21-0.08s-0.1-0.14-0.1-0.27v-5.63c0-0.13,0.03-0.22,0.1-0.27s0.14-0.08,0.21-0.08h1.43
				c0.55,0,1.01,0.07,1.39,0.21s0.69,0.35,0.95,0.61s0.45,0.59,0.58,0.96S29.35,52.51,29.35,52.98z M28.47,53.02
				c0-0.34-0.04-0.66-0.13-0.95s-0.22-0.55-0.4-0.76s-0.41-0.38-0.69-0.5s-0.63-0.18-1.07-0.18h-0.85v4.92h0.86
				c0.4,0,0.74-0.05,1.02-0.15s0.51-0.26,0.69-0.46s0.32-0.47,0.42-0.78S28.47,53.45,28.47,53.02z"/>
			<path d="M34.16,55.89c0,0.06,0,0.11-0.01,0.15s-0.02,0.08-0.03,0.11s-0.04,0.05-0.06,0.06s-0.04,0.02-0.07,0.02h-3.03
				c-0.07,0-0.15-0.03-0.21-0.08s-0.1-0.14-0.1-0.27v-5.63c0-0.13,0.03-0.22,0.1-0.27s0.14-0.08,0.21-0.08h3
				c0.03,0,0.05,0.01,0.07,0.02s0.04,0.03,0.05,0.06s0.02,0.07,0.03,0.11s0.01,0.1,0.01,0.16c0,0.06,0,0.11-0.01,0.15
				s-0.02,0.08-0.03,0.11s-0.03,0.05-0.05,0.06s-0.04,0.02-0.07,0.02h-2.47v1.98h2.12c0.03,0,0.05,0.01,0.07,0.02
				s0.04,0.04,0.05,0.06s0.03,0.06,0.03,0.11s0.01,0.1,0.01,0.16c0,0.06,0,0.11-0.01,0.15s-0.02,0.08-0.03,0.1s-0.03,0.04-0.05,0.06
				s-0.04,0.02-0.07,0.02h-2.12v2.26h2.5c0.03,0,0.05,0.01,0.07,0.02s0.04,0.03,0.06,0.06s0.03,0.06,0.03,0.11
				S34.16,55.82,34.16,55.89z"/>
			<path d="M40.3,55.89c0,0.06-0.01,0.12-0.03,0.17s-0.05,0.08-0.09,0.11s-0.07,0.05-0.12,0.06s-0.09,0.02-0.13,0.02h-0.28
				c-0.09,0-0.16-0.01-0.23-0.03c-0.07-0.02-0.13-0.05-0.19-0.1s-0.12-0.11-0.18-0.19s-0.12-0.19-0.19-0.31l-1.93-3.59
				c-0.1-0.19-0.2-0.38-0.3-0.58c-0.1-0.2-0.2-0.4-0.29-0.59h-0.01c0.01,0.23,0.01,0.47,0.01,0.72s0,0.49,0,0.73v3.81
				c0,0.02-0.01,0.04-0.02,0.07s-0.04,0.04-0.07,0.05s-0.08,0.02-0.13,0.03c-0.05,0.01-0.12,0.01-0.2,0.01c-0.08,0-0.15,0-0.2-0.01
				s-0.1-0.02-0.13-0.03c-0.03-0.01-0.05-0.03-0.07-0.05s-0.02-0.04-0.02-0.07v-5.83c0-0.13,0.04-0.22,0.11-0.28
				s0.15-0.08,0.24-0.08h0.41c0.1,0,0.18,0.01,0.24,0.02c0.07,0.02,0.12,0.04,0.18,0.08c0.05,0.04,0.1,0.09,0.15,0.16
				s0.1,0.15,0.15,0.25l1.48,2.77c0.09,0.17,0.18,0.33,0.26,0.5s0.17,0.32,0.25,0.48s0.16,0.31,0.23,0.46s0.15,0.3,0.23,0.46h0
				c-0.01-0.26-0.01-0.52-0.01-0.8s0-0.55,0-0.8v-3.43c0-0.02,0.01-0.04,0.02-0.06s0.04-0.04,0.07-0.05
				c0.03-0.01,0.08-0.03,0.13-0.03c0.05-0.01,0.12-0.01,0.21-0.01c0.08,0,0.14,0,0.2,0.01c0.05,0.01,0.1,0.02,0.13,0.03
				c0.03,0.01,0.05,0.03,0.07,0.05s0.02,0.04,0.02,0.06V55.89z"/>
			<path d="M45.38,54.46c0,0.3-0.05,0.56-0.16,0.79s-0.26,0.43-0.45,0.59s-0.42,0.28-0.68,0.36s-0.54,0.12-0.85,0.12
				c-0.21,0-0.41-0.02-0.59-0.05s-0.34-0.08-0.48-0.13s-0.26-0.11-0.36-0.16s-0.16-0.1-0.2-0.14s-0.06-0.09-0.08-0.15
				s-0.03-0.14-0.03-0.24c0-0.07,0-0.13,0.01-0.18s0.02-0.09,0.03-0.11s0.03-0.05,0.05-0.06s0.04-0.02,0.07-0.02
				c0.05,0,0.11,0.03,0.19,0.08s0.19,0.12,0.32,0.18s0.29,0.13,0.47,0.18s0.4,0.09,0.64,0.09c0.18,0,0.35-0.02,0.5-0.07
				s0.28-0.12,0.39-0.21s0.19-0.2,0.25-0.33s0.09-0.28,0.09-0.44c0-0.18-0.04-0.33-0.12-0.46s-0.19-0.24-0.32-0.33
				s-0.29-0.18-0.46-0.26s-0.35-0.16-0.52-0.24s-0.35-0.17-0.52-0.28s-0.32-0.22-0.45-0.36s-0.24-0.3-0.32-0.48s-0.12-0.4-0.12-0.66
				c0-0.26,0.05-0.5,0.14-0.71s0.23-0.38,0.4-0.52s0.37-0.25,0.61-0.32s0.49-0.11,0.76-0.11c0.14,0,0.28,0.01,0.42,0.04
				s0.27,0.06,0.4,0.1s0.24,0.09,0.33,0.14s0.16,0.09,0.19,0.12s0.05,0.06,0.06,0.07S45,50.33,45,50.36s0.01,0.06,0.01,0.1
				s0,0.09,0,0.15c0,0.06,0,0.11-0.01,0.16s-0.01,0.08-0.02,0.11s-0.02,0.05-0.04,0.07s-0.04,0.02-0.06,0.02
				c-0.04,0-0.09-0.02-0.17-0.07s-0.17-0.1-0.28-0.15s-0.24-0.11-0.39-0.16s-0.32-0.07-0.51-0.07c-0.18,0-0.33,0.02-0.46,0.07
				s-0.24,0.11-0.32,0.19s-0.15,0.17-0.19,0.28s-0.06,0.22-0.06,0.34c0,0.18,0.04,0.33,0.12,0.45s0.19,0.24,0.32,0.34
				s0.29,0.19,0.46,0.27s0.35,0.16,0.53,0.25s0.35,0.17,0.53,0.27s0.33,0.22,0.46,0.35s0.24,0.29,0.33,0.48S45.38,54.21,45.38,54.46
				z"/>
		</g>
	</g>
</g>
<g>
	<text transform="matrix(1 0 0 1 10.4073 254.7403)" class="st3 st4">POSIÇÃO</text>
</g>
<g>
	<g>
		<path d="M11.91,345.65c0,0.03-0.01,0.05-0.02,0.07s-0.04,0.04-0.07,0.05c-0.03,0.01-0.08,0.02-0.13,0.03
			c-0.05,0.01-0.12,0.01-0.2,0.01c-0.08,0-0.15,0-0.21-0.01c-0.05-0.01-0.09-0.02-0.13-0.03c-0.03-0.01-0.06-0.03-0.07-0.05
			s-0.02-0.04-0.02-0.07v-2.8H8.2v2.8c0,0.03-0.01,0.05-0.02,0.07s-0.04,0.04-0.07,0.05c-0.03,0.01-0.08,0.02-0.13,0.03
			c-0.05,0.01-0.12,0.01-0.2,0.01c-0.08,0-0.15,0-0.2-0.01c-0.06-0.01-0.1-0.02-0.13-0.03c-0.03-0.01-0.06-0.03-0.07-0.05
			s-0.02-0.04-0.02-0.07v-6.06c0-0.03,0.01-0.05,0.02-0.07s0.04-0.04,0.07-0.05c0.03-0.01,0.08-0.02,0.13-0.03
			c0.06-0.01,0.12-0.01,0.2-0.01c0.08,0,0.15,0,0.2,0.01c0.05,0.01,0.1,0.02,0.13,0.03c0.03,0.01,0.06,0.03,0.07,0.05
			s0.02,0.04,0.02,0.07v2.53h2.88v-2.53c0-0.03,0.01-0.05,0.02-0.07s0.04-0.04,0.07-0.05c0.03-0.01,0.07-0.02,0.13-0.03
			c0.05-0.01,0.12-0.01,0.21-0.01c0.08,0,0.14,0,0.2,0.01c0.05,0.01,0.1,0.02,0.13,0.03c0.03,0.01,0.06,0.03,0.07,0.05
			s0.02,0.04,0.02,0.07V345.65z"/>
	</g>
	<g>
		<path d="M14.43,345.65c0,0.03-0.01,0.05-0.02,0.07s-0.04,0.04-0.07,0.05c-0.03,0.01-0.08,0.02-0.13,0.03
			c-0.05,0.01-0.12,0.01-0.2,0.01c-0.08,0-0.15,0-0.2-0.01c-0.06-0.01-0.1-0.02-0.13-0.03c-0.03-0.01-0.06-0.03-0.07-0.05
			s-0.02-0.04-0.02-0.07v-6.06c0-0.03,0.01-0.05,0.02-0.07s0.04-0.04,0.07-0.05c0.03-0.01,0.08-0.02,0.13-0.03
			c0.05-0.01,0.12-0.01,0.19-0.01c0.08,0,0.15,0,0.2,0.01c0.05,0.01,0.1,0.02,0.13,0.03c0.03,0.01,0.06,0.03,0.07,0.05
			s0.02,0.04,0.02,0.07V345.65z"/>
	</g>
	<g>
		<path d="M19.5,344c0,0.3-0.05,0.56-0.16,0.79c-0.11,0.23-0.26,0.43-0.45,0.59s-0.42,0.28-0.68,0.36
			c-0.26,0.08-0.54,0.12-0.85,0.12c-0.21,0-0.41-0.02-0.59-0.05c-0.18-0.04-0.34-0.08-0.48-0.13c-0.14-0.05-0.26-0.11-0.36-0.16
			c-0.1-0.05-0.16-0.1-0.2-0.14s-0.06-0.09-0.08-0.15c-0.02-0.06-0.03-0.14-0.03-0.24c0-0.07,0-0.13,0.01-0.18
			c0.01-0.05,0.02-0.09,0.03-0.12s0.03-0.05,0.05-0.06c0.02-0.01,0.04-0.02,0.07-0.02c0.05,0,0.11,0.03,0.19,0.08
			c0.08,0.06,0.19,0.12,0.32,0.18c0.13,0.07,0.29,0.13,0.47,0.18c0.18,0.06,0.4,0.08,0.64,0.08c0.18,0,0.35-0.02,0.5-0.07
			s0.28-0.12,0.39-0.21c0.11-0.09,0.19-0.2,0.25-0.33c0.06-0.13,0.09-0.28,0.09-0.44c0-0.18-0.04-0.33-0.12-0.46
			s-0.19-0.24-0.32-0.33c-0.13-0.1-0.29-0.18-0.46-0.26c-0.17-0.08-0.35-0.16-0.52-0.24s-0.35-0.17-0.52-0.28
			c-0.17-0.1-0.32-0.22-0.45-0.36s-0.24-0.3-0.32-0.48c-0.08-0.18-0.12-0.4-0.12-0.66c0-0.26,0.05-0.5,0.14-0.71
			c0.1-0.21,0.23-0.38,0.4-0.52c0.17-0.14,0.37-0.25,0.61-0.32s0.49-0.11,0.76-0.11c0.14,0,0.28,0.01,0.42,0.04s0.27,0.06,0.4,0.1
			c0.13,0.04,0.24,0.09,0.33,0.14c0.1,0.05,0.16,0.09,0.19,0.12c0.03,0.03,0.05,0.05,0.06,0.07c0.01,0.02,0.02,0.04,0.02,0.07
			c0.01,0.03,0.01,0.06,0.01,0.1s0,0.09,0,0.15c0,0.06,0,0.11-0.01,0.16c0,0.05-0.01,0.08-0.02,0.12c-0.01,0.03-0.02,0.05-0.04,0.07
			s-0.04,0.02-0.06,0.02c-0.04,0-0.09-0.02-0.17-0.07c-0.08-0.04-0.17-0.1-0.28-0.15c-0.11-0.06-0.24-0.11-0.39-0.16
			c-0.15-0.05-0.32-0.07-0.51-0.07c-0.18,0-0.33,0.02-0.46,0.07c-0.13,0.05-0.24,0.11-0.32,0.19s-0.15,0.17-0.19,0.28
			s-0.06,0.22-0.06,0.34c0,0.18,0.04,0.33,0.12,0.45s0.19,0.24,0.32,0.34s0.29,0.19,0.46,0.27c0.17,0.08,0.35,0.16,0.53,0.25
			s0.35,0.17,0.53,0.27c0.17,0.1,0.33,0.22,0.46,0.35c0.14,0.13,0.24,0.29,0.33,0.48C19.46,343.53,19.5,343.75,19.5,344z"/>
	</g>
	<g>
		<path d="M24.6,339.82c0,0.06,0,0.12-0.01,0.16c-0.01,0.05-0.02,0.08-0.03,0.11c-0.01,0.03-0.03,0.05-0.05,0.06
			c-0.02,0.01-0.04,0.02-0.07,0.02h-1.78v5.48c0,0.03-0.01,0.05-0.02,0.07s-0.04,0.04-0.07,0.05c-0.03,0.01-0.08,0.02-0.13,0.03
			c-0.05,0.01-0.12,0.01-0.2,0.01c-0.08,0-0.15,0-0.2-0.01c-0.06-0.01-0.1-0.02-0.13-0.03c-0.03-0.01-0.06-0.03-0.07-0.05
			s-0.02-0.04-0.02-0.07v-5.48h-1.78c-0.03,0-0.05-0.01-0.07-0.02c-0.02-0.01-0.04-0.03-0.05-0.06c-0.01-0.03-0.02-0.06-0.03-0.11
			c-0.01-0.04-0.01-0.1-0.01-0.16c0-0.06,0-0.12,0.01-0.16c0.01-0.05,0.02-0.09,0.03-0.12s0.03-0.05,0.05-0.06
			c0.02-0.01,0.04-0.02,0.07-0.02h4.39c0.03,0,0.05,0.01,0.07,0.02c0.02,0.01,0.04,0.03,0.05,0.06s0.03,0.07,0.03,0.12
			C24.59,339.7,24.6,339.76,24.6,339.82z"/>
	</g>
	<g>
		<path d="M30.52,342.54c0,0.51-0.06,0.97-0.18,1.38s-0.3,0.76-0.54,1.05s-0.54,0.51-0.9,0.66c-0.36,0.15-0.78,0.23-1.26,0.23
			c-0.48,0-0.89-0.07-1.23-0.21s-0.63-0.35-0.86-0.62c-0.23-0.27-0.39-0.61-0.51-1.01s-0.17-0.86-0.17-1.38
			c0-0.5,0.06-0.95,0.18-1.36c0.12-0.41,0.3-0.75,0.54-1.04c0.24-0.29,0.54-0.5,0.9-0.66c0.36-0.16,0.78-0.23,1.26-0.23
			c0.47,0,0.87,0.07,1.22,0.21c0.35,0.14,0.63,0.34,0.86,0.61s0.4,0.6,0.51,1S30.52,342.03,30.52,342.54z M29.63,342.6
			c0-0.36-0.03-0.69-0.1-1s-0.17-0.58-0.32-0.8c-0.15-0.23-0.35-0.4-0.59-0.53c-0.25-0.13-0.55-0.19-0.92-0.19s-0.67,0.07-0.92,0.21
			s-0.45,0.32-0.6,0.55c-0.15,0.23-0.27,0.49-0.33,0.8c-0.07,0.3-0.1,0.62-0.1,0.96c0,0.37,0.03,0.71,0.09,1.03
			c0.06,0.31,0.17,0.58,0.31,0.81c0.15,0.23,0.34,0.4,0.59,0.53c0.25,0.13,0.55,0.19,0.92,0.19c0.37,0,0.68-0.07,0.93-0.21
			c0.25-0.14,0.45-0.32,0.6-0.55c0.15-0.23,0.26-0.5,0.33-0.81C29.6,343.27,29.63,342.94,29.63,342.6z M28.21,337.71
			c0.04-0.04,0.07-0.07,0.1-0.1c0.03-0.02,0.07-0.04,0.11-0.05c0.04-0.01,0.09-0.02,0.15-0.03s0.13-0.01,0.21-0.01
			c0.1,0,0.17,0.01,0.23,0.02s0.09,0.03,0.12,0.06c0.02,0.02,0.03,0.05,0.02,0.08s-0.03,0.06-0.06,0.09l-1.11,1.04
			c-0.03,0.03-0.06,0.06-0.09,0.08c-0.03,0.02-0.06,0.03-0.1,0.04c-0.04,0.01-0.08,0.02-0.12,0.02s-0.1,0.01-0.17,0.01
			c-0.07,0-0.13,0-0.18-0.01c-0.04-0.01-0.07-0.02-0.09-0.04c-0.02-0.02-0.02-0.04-0.01-0.07c0.01-0.03,0.02-0.06,0.05-0.09
			L28.21,337.71z"/>
	</g>
	<g>
		<path d="M36.06,345.65c0,0.03,0,0.05-0.01,0.07s-0.03,0.04-0.06,0.05c-0.03,0.01-0.08,0.02-0.14,0.03
			c-0.06,0.01-0.14,0.01-0.23,0.01c-0.08,0-0.15,0-0.21-0.01c-0.05-0.01-0.1-0.02-0.13-0.03s-0.06-0.04-0.08-0.06
			c-0.02-0.03-0.03-0.06-0.05-0.1l-0.58-1.49c-0.07-0.17-0.14-0.32-0.21-0.47s-0.16-0.26-0.26-0.37s-0.22-0.18-0.36-0.24
			c-0.14-0.06-0.3-0.09-0.49-0.09h-0.56v2.69c0,0.03-0.01,0.05-0.02,0.07s-0.04,0.04-0.07,0.05c-0.03,0.01-0.07,0.02-0.13,0.03
			c-0.05,0.01-0.12,0.01-0.2,0.01s-0.15,0-0.2-0.01c-0.05-0.01-0.1-0.02-0.13-0.03c-0.03-0.01-0.06-0.03-0.07-0.05
			s-0.02-0.04-0.02-0.07v-5.85c0-0.13,0.03-0.22,0.1-0.27c0.07-0.05,0.14-0.08,0.21-0.08h1.34c0.16,0,0.29,0,0.4,0.01
			c0.11,0.01,0.2,0.02,0.29,0.03c0.24,0.04,0.46,0.11,0.65,0.2c0.19,0.09,0.34,0.21,0.47,0.35c0.13,0.14,0.22,0.3,0.29,0.48
			s0.1,0.38,0.1,0.6c0,0.21-0.03,0.4-0.09,0.57c-0.06,0.17-0.14,0.32-0.25,0.44c-0.11,0.13-0.24,0.24-0.39,0.33
			c-0.15,0.09-0.32,0.17-0.5,0.24c0.1,0.05,0.2,0.1,0.28,0.17c0.08,0.07,0.16,0.15,0.24,0.25s0.14,0.21,0.21,0.34
			s0.13,0.27,0.2,0.43l0.57,1.39c0.05,0.12,0.07,0.2,0.09,0.25C36.06,345.58,36.06,345.62,36.06,345.65z M34.8,341.21
			c0-0.25-0.06-0.46-0.17-0.63s-0.3-0.29-0.56-0.37c-0.08-0.02-0.17-0.04-0.28-0.05s-0.24-0.01-0.4-0.01h-0.71v2.13h0.82
			c0.22,0,0.41-0.03,0.57-0.08s0.3-0.13,0.4-0.22c0.11-0.1,0.19-0.21,0.24-0.34C34.77,341.5,34.8,341.36,34.8,341.21z"/>
	</g>
	<g>
		<path d="M38.12,345.65c0,0.03-0.01,0.05-0.02,0.07s-0.04,0.04-0.07,0.05c-0.03,0.01-0.08,0.02-0.13,0.03
			c-0.05,0.01-0.12,0.01-0.2,0.01c-0.08,0-0.15,0-0.2-0.01c-0.06-0.01-0.1-0.02-0.13-0.03c-0.03-0.01-0.06-0.03-0.07-0.05
			s-0.02-0.04-0.02-0.07v-6.06c0-0.03,0.01-0.05,0.02-0.07s0.04-0.04,0.07-0.05c0.03-0.01,0.08-0.02,0.13-0.03
			c0.05-0.01,0.12-0.01,0.19-0.01c0.08,0,0.15,0,0.2,0.01c0.05,0.01,0.1,0.02,0.13,0.03c0.03,0.01,0.06,0.03,0.07,0.05
			s0.02,0.04,0.02,0.07V345.65z"/>
	</g>
	<g>
		<path d="M44.02,344.88c0,0.05,0,0.1,0,0.14s-0.01,0.07-0.02,0.1s-0.02,0.06-0.03,0.08c-0.01,0.02-0.04,0.05-0.07,0.08
			c-0.03,0.03-0.1,0.08-0.21,0.15c-0.1,0.07-0.23,0.13-0.39,0.2s-0.33,0.12-0.53,0.16s-0.42,0.07-0.66,0.07
			c-0.41,0-0.78-0.07-1.11-0.21s-0.61-0.34-0.84-0.61c-0.23-0.27-0.41-0.6-0.54-0.99c-0.13-0.39-0.19-0.84-0.19-1.36
			c0-0.52,0.07-0.99,0.2-1.4s0.32-0.76,0.57-1.04c0.24-0.29,0.54-0.5,0.88-0.65c0.34-0.15,0.72-0.22,1.13-0.22
			c0.18,0,0.36,0.02,0.53,0.05s0.33,0.08,0.48,0.13c0.15,0.05,0.28,0.11,0.39,0.18s0.19,0.13,0.24,0.17s0.07,0.08,0.09,0.1
			c0.01,0.02,0.02,0.05,0.03,0.08c0.01,0.03,0.01,0.07,0.02,0.11c0,0.04,0.01,0.09,0.01,0.15c0,0.07,0,0.12-0.01,0.17
			c-0.01,0.05-0.02,0.08-0.03,0.12c-0.01,0.03-0.03,0.05-0.05,0.07s-0.04,0.02-0.07,0.02c-0.05,0-0.11-0.03-0.19-0.09
			c-0.08-0.06-0.19-0.13-0.32-0.21c-0.13-0.08-0.29-0.15-0.47-0.21c-0.19-0.06-0.41-0.1-0.67-0.1c-0.28,0-0.54,0.06-0.77,0.17
			c-0.23,0.11-0.43,0.28-0.59,0.5c-0.16,0.22-0.29,0.48-0.38,0.8c-0.09,0.31-0.13,0.67-0.13,1.08c0,0.4,0.04,0.75,0.13,1.06
			c0.09,0.31,0.21,0.56,0.37,0.77c0.16,0.21,0.36,0.36,0.6,0.47c0.24,0.11,0.5,0.16,0.8,0.16c0.25,0,0.47-0.03,0.66-0.09
			c0.19-0.06,0.35-0.13,0.48-0.21c0.13-0.08,0.24-0.15,0.33-0.21c0.09-0.06,0.15-0.09,0.2-0.09c0.02,0,0.04,0,0.06,0.01
			c0.02,0.01,0.03,0.03,0.04,0.06c0.01,0.03,0.02,0.07,0.02,0.11S44.02,344.81,44.02,344.88z"/>
	</g>
	<g>
		<path d="M50.33,342.54c0,0.51-0.06,0.97-0.18,1.38s-0.3,0.76-0.54,1.05s-0.54,0.51-0.9,0.66c-0.36,0.15-0.78,0.23-1.26,0.23
			c-0.48,0-0.89-0.07-1.23-0.21s-0.63-0.35-0.86-0.62c-0.23-0.27-0.39-0.61-0.51-1.01s-0.17-0.86-0.17-1.38
			c0-0.5,0.06-0.95,0.18-1.36c0.12-0.41,0.3-0.75,0.54-1.04c0.24-0.29,0.54-0.5,0.9-0.66c0.36-0.16,0.78-0.23,1.26-0.23
			c0.47,0,0.87,0.07,1.22,0.21c0.35,0.14,0.63,0.34,0.86,0.61s0.4,0.6,0.51,1S50.33,342.03,50.33,342.54z M49.45,342.6
			c0-0.36-0.03-0.69-0.1-1s-0.17-0.58-0.32-0.8c-0.15-0.23-0.35-0.4-0.59-0.53c-0.25-0.13-0.55-0.19-0.92-0.19s-0.67,0.07-0.92,0.21
			s-0.45,0.32-0.6,0.55c-0.15,0.23-0.27,0.49-0.33,0.8c-0.07,0.3-0.1,0.62-0.1,0.96c0,0.37,0.03,0.71,0.09,1.03
			c0.06,0.31,0.17,0.58,0.31,0.81c0.15,0.23,0.34,0.4,0.59,0.53c0.25,0.13,0.55,0.19,0.92,0.19c0.37,0,0.68-0.07,0.93-0.21
			c0.25-0.14,0.45-0.32,0.6-0.55c0.15-0.23,0.26-0.5,0.33-0.81C49.41,343.27,49.45,342.94,49.45,342.6z"/>
	</g>
</g>
<g>
	<g>
		<path d="M9.89,149.44c0,0.51-0.06,0.97-0.18,1.38s-0.3,0.76-0.54,1.05s-0.54,0.51-0.9,0.66s-0.78,0.23-1.26,0.23
			c-0.48,0-0.89-0.07-1.23-0.21s-0.63-0.35-0.86-0.62s-0.39-0.61-0.51-1.01s-0.17-0.86-0.17-1.38c0-0.5,0.06-0.95,0.18-1.36
			s0.3-0.75,0.54-1.04s0.54-0.5,0.9-0.66s0.78-0.23,1.26-0.23c0.47,0,0.87,0.07,1.22,0.21s0.63,0.34,0.86,0.61s0.4,0.6,0.51,1
			S9.89,148.93,9.89,149.44z M9,149.5c0-0.36-0.03-0.69-0.1-1s-0.17-0.57-0.32-0.8s-0.35-0.4-0.59-0.53
			c-0.25-0.13-0.55-0.19-0.92-0.19s-0.67,0.07-0.92,0.21s-0.45,0.32-0.6,0.55s-0.27,0.49-0.33,0.8c-0.07,0.3-0.1,0.62-0.1,0.96
			c0,0.37,0.03,0.71,0.09,1.03c0.06,0.31,0.17,0.58,0.31,0.81s0.34,0.4,0.59,0.53c0.25,0.13,0.55,0.19,0.92,0.19
			c0.37,0,0.68-0.07,0.93-0.21c0.25-0.14,0.45-0.32,0.6-0.55s0.26-0.5,0.33-0.81S9,149.84,9,149.5z"/>
	</g>
	<g>
		<path d="M15.43,152.54c0,0.03,0,0.05-0.01,0.07s-0.03,0.04-0.06,0.05s-0.08,0.02-0.14,0.03s-0.14,0.01-0.23,0.01
			c-0.08,0-0.15,0-0.21-0.01s-0.1-0.02-0.13-0.03s-0.06-0.04-0.08-0.06s-0.03-0.06-0.05-0.1l-0.58-1.49
			c-0.07-0.17-0.14-0.32-0.21-0.47s-0.16-0.26-0.26-0.37s-0.22-0.18-0.36-0.24s-0.3-0.09-0.49-0.09h-0.56v2.69
			c0,0.03-0.01,0.05-0.02,0.07s-0.04,0.04-0.07,0.05s-0.07,0.02-0.13,0.03s-0.12,0.01-0.2,0.01s-0.15,0-0.2-0.01
			s-0.1-0.02-0.13-0.03s-0.06-0.03-0.07-0.05s-0.02-0.04-0.02-0.07v-5.85c0-0.13,0.03-0.22,0.1-0.27s0.14-0.08,0.21-0.08h1.34
			c0.16,0,0.29,0,0.4,0.01s0.2,0.02,0.29,0.03c0.24,0.04,0.46,0.11,0.65,0.2s0.34,0.21,0.47,0.35s0.22,0.3,0.29,0.48
			s0.1,0.38,0.1,0.6c0,0.21-0.03,0.4-0.09,0.57s-0.14,0.32-0.25,0.44s-0.24,0.24-0.39,0.33s-0.32,0.17-0.5,0.24
			c0.1,0.05,0.2,0.1,0.28,0.17s0.16,0.15,0.24,0.25s0.14,0.21,0.21,0.34s0.13,0.27,0.2,0.43l0.57,1.39c0.05,0.12,0.07,0.2,0.09,0.25
			S15.43,152.52,15.43,152.54z M14.17,148.1c0-0.25-0.06-0.46-0.17-0.63s-0.3-0.29-0.56-0.37c-0.08-0.02-0.17-0.04-0.28-0.05
			s-0.24-0.01-0.4-0.01h-0.71v2.13h0.82c0.22,0,0.41-0.03,0.57-0.08s0.3-0.13,0.4-0.22s0.19-0.21,0.24-0.34
			S14.17,148.26,14.17,148.1z"/>
	</g>
	<g>
		<path d="M21.51,149.42c0,0.55-0.07,1.02-0.21,1.43s-0.34,0.75-0.61,1.02s-0.6,0.47-0.99,0.6s-0.86,0.2-1.4,0.2h-1.34
			c-0.07,0-0.15-0.03-0.21-0.08s-0.1-0.14-0.1-0.27v-5.63c0-0.13,0.03-0.22,0.1-0.27s0.14-0.08,0.21-0.08h1.43
			c0.55,0,1.01,0.07,1.39,0.21s0.69,0.35,0.95,0.61s0.45,0.59,0.58,0.96S21.51,148.94,21.51,149.42z M20.62,149.45
			c0-0.34-0.04-0.66-0.13-0.95s-0.22-0.55-0.4-0.76s-0.41-0.38-0.69-0.5s-0.63-0.18-1.07-0.18h-0.85v4.92h0.86
			c0.4,0,0.74-0.05,1.02-0.15s0.51-0.26,0.69-0.46s0.32-0.47,0.42-0.78S20.62,149.88,20.62,149.45z"/>
	</g>
	<g>
		<path d="M26.32,152.32c0,0.06,0,0.11-0.01,0.15s-0.02,0.08-0.03,0.11s-0.04,0.05-0.06,0.06s-0.04,0.02-0.07,0.02h-3.03
			c-0.07,0-0.15-0.03-0.21-0.08s-0.1-0.14-0.1-0.27v-5.63c0-0.13,0.03-0.22,0.1-0.27s0.14-0.08,0.21-0.08h3
			c0.03,0,0.05,0.01,0.07,0.02s0.04,0.03,0.05,0.06s0.02,0.07,0.03,0.11s0.01,0.1,0.01,0.16c0,0.06,0,0.11-0.01,0.15
			s-0.02,0.08-0.03,0.11s-0.03,0.05-0.05,0.06s-0.04,0.02-0.07,0.02h-2.47v1.98h2.12c0.03,0,0.05,0.01,0.07,0.02
			s0.04,0.04,0.05,0.06s0.03,0.06,0.03,0.11s0.01,0.1,0.01,0.16c0,0.06,0,0.11-0.01,0.15s-0.02,0.08-0.03,0.1s-0.03,0.04-0.05,0.06
			s-0.04,0.02-0.07,0.02h-2.12v2.26h2.5c0.03,0,0.05,0.01,0.07,0.02s0.04,0.03,0.06,0.06s0.03,0.06,0.03,0.11
			S26.32,152.26,26.32,152.32z"/>
	</g>
	<g>
		<path d="M32.46,152.32c0,0.06-0.01,0.12-0.03,0.17s-0.05,0.08-0.09,0.11s-0.07,0.05-0.12,0.06s-0.09,0.02-0.13,0.02h-0.28
			c-0.09,0-0.16-0.01-0.23-0.03c-0.07-0.02-0.13-0.05-0.19-0.1s-0.12-0.11-0.18-0.19s-0.12-0.19-0.19-0.31l-1.93-3.59
			c-0.1-0.19-0.2-0.38-0.3-0.58c-0.1-0.2-0.2-0.4-0.29-0.59H28.5c0.01,0.23,0.01,0.47,0.01,0.72s0,0.49,0,0.73v3.81
			c0,0.02-0.01,0.04-0.02,0.07s-0.04,0.04-0.07,0.05s-0.08,0.02-0.13,0.03c-0.05,0.01-0.12,0.01-0.2,0.01c-0.08,0-0.15,0-0.2-0.01
			s-0.1-0.02-0.13-0.03c-0.03-0.01-0.05-0.03-0.07-0.05s-0.02-0.04-0.02-0.07v-5.83c0-0.13,0.04-0.22,0.11-0.28s0.15-0.08,0.24-0.08
			h0.41c0.1,0,0.18,0.01,0.24,0.02c0.07,0.02,0.12,0.04,0.18,0.08c0.05,0.04,0.1,0.09,0.15,0.16s0.1,0.15,0.15,0.25l1.48,2.77
			c0.09,0.17,0.18,0.33,0.26,0.5s0.17,0.32,0.25,0.48s0.16,0.31,0.23,0.46s0.15,0.3,0.23,0.46h0c-0.01-0.26-0.01-0.52-0.01-0.8
			s0-0.55,0-0.8v-3.43c0-0.02,0.01-0.04,0.02-0.06s0.04-0.04,0.07-0.05c0.03-0.01,0.08-0.03,0.13-0.03
			c0.05-0.01,0.12-0.01,0.21-0.01c0.08,0,0.14,0,0.2,0.01c0.05,0.01,0.1,0.02,0.13,0.03c0.03,0.01,0.05,0.03,0.07,0.05
			s0.02,0.04,0.02,0.06V152.32z"/>
	</g>
	<g>
		<path d="M37.53,150.9c0,0.3-0.05,0.56-0.16,0.79s-0.26,0.43-0.45,0.59s-0.42,0.28-0.68,0.36s-0.54,0.12-0.85,0.12
			c-0.21,0-0.41-0.02-0.59-0.05s-0.34-0.08-0.48-0.13s-0.26-0.11-0.36-0.16s-0.16-0.1-0.2-0.14s-0.06-0.09-0.08-0.15
			s-0.03-0.14-0.03-0.24c0-0.07,0-0.13,0.01-0.18s0.02-0.09,0.03-0.11s0.03-0.05,0.05-0.06s0.04-0.02,0.07-0.02
			c0.05,0,0.11,0.03,0.19,0.08s0.19,0.12,0.32,0.18s0.29,0.13,0.47,0.18s0.4,0.09,0.64,0.09c0.18,0,0.35-0.02,0.5-0.07
			s0.28-0.12,0.39-0.21s0.19-0.2,0.25-0.33s0.09-0.28,0.09-0.44c0-0.18-0.04-0.33-0.12-0.46s-0.19-0.24-0.32-0.33
			s-0.29-0.18-0.46-0.26s-0.35-0.16-0.52-0.24s-0.35-0.17-0.52-0.28s-0.32-0.22-0.45-0.36s-0.24-0.3-0.32-0.48s-0.12-0.4-0.12-0.66
			c0-0.26,0.05-0.5,0.14-0.71s0.23-0.38,0.4-0.52s0.37-0.25,0.61-0.32s0.49-0.11,0.76-0.11c0.14,0,0.28,0.01,0.42,0.04
			s0.27,0.06,0.4,0.1s0.24,0.09,0.33,0.14s0.16,0.09,0.19,0.12s0.05,0.06,0.06,0.07s0.02,0.04,0.02,0.07s0.01,0.06,0.01,0.1
			s0,0.09,0,0.15c0,0.06,0,0.11-0.01,0.16s-0.01,0.08-0.02,0.11s-0.02,0.05-0.04,0.07s-0.04,0.02-0.06,0.02
			c-0.04,0-0.09-0.02-0.17-0.07s-0.17-0.1-0.28-0.15s-0.24-0.11-0.39-0.16s-0.32-0.07-0.51-0.07c-0.18,0-0.33,0.02-0.46,0.07
			s-0.24,0.11-0.32,0.19s-0.15,0.17-0.19,0.28s-0.06,0.22-0.06,0.34c0,0.18,0.04,0.33,0.12,0.45s0.19,0.24,0.32,0.34
			s0.29,0.19,0.46,0.27s0.35,0.16,0.53,0.25s0.35,0.17,0.53,0.27s0.33,0.22,0.46,0.35s0.24,0.29,0.33,0.48S37.53,150.65,37.53,150.9
			z"/>
	</g>
	<g>
		<path d="M44.51,152.32c0,0.06,0,0.11-0.01,0.15s-0.02,0.08-0.03,0.11s-0.04,0.05-0.06,0.06s-0.04,0.02-0.07,0.02h-3.03
			c-0.07,0-0.15-0.03-0.21-0.08s-0.1-0.14-0.1-0.27v-5.63c0-0.13,0.03-0.22,0.1-0.27s0.14-0.08,0.21-0.08h3
			c0.03,0,0.05,0.01,0.07,0.02s0.04,0.03,0.05,0.06s0.02,0.07,0.03,0.11s0.01,0.1,0.01,0.16c0,0.06,0,0.11-0.01,0.15
			s-0.02,0.08-0.03,0.11s-0.03,0.05-0.05,0.06s-0.04,0.02-0.07,0.02h-2.47v1.98h2.12c0.03,0,0.05,0.01,0.07,0.02
			s0.04,0.04,0.05,0.06s0.03,0.06,0.03,0.11s0.01,0.1,0.01,0.16c0,0.06,0,0.11-0.01,0.15s-0.02,0.08-0.03,0.1s-0.03,0.04-0.05,0.06
			s-0.04,0.02-0.07,0.02h-2.12v2.26h2.5c0.03,0,0.05,0.01,0.07,0.02s0.04,0.03,0.06,0.06s0.03,0.06,0.03,0.11
			S44.51,152.26,44.51,152.32z"/>
	</g>
	<g>
		<path d="M52.75,152.54c0,0.03-0.01,0.05-0.02,0.07c-0.01,0.02-0.04,0.04-0.07,0.05c-0.03,0.01-0.08,0.02-0.13,0.03
			c-0.05,0.01-0.12,0.01-0.2,0.01c-0.08,0-0.14,0-0.2-0.01s-0.1-0.02-0.13-0.03s-0.05-0.03-0.07-0.05
			c-0.01-0.02-0.02-0.04-0.02-0.07v-5.5H51.9l-2.23,5.53c-0.01,0.02-0.02,0.04-0.04,0.06s-0.04,0.03-0.08,0.04s-0.07,0.02-0.12,0.02
			s-0.1,0.01-0.17,0.01c-0.07,0-0.13,0-0.18-0.01s-0.09-0.02-0.12-0.03s-0.06-0.03-0.08-0.04s-0.03-0.03-0.04-0.05l-2.13-5.53h0v5.5
			c0,0.03-0.01,0.05-0.02,0.07c-0.01,0.02-0.04,0.04-0.07,0.05c-0.03,0.01-0.08,0.02-0.13,0.03s-0.12,0.01-0.21,0.01
			c-0.08,0-0.15,0-0.2-0.01c-0.05-0.01-0.1-0.02-0.13-0.03s-0.05-0.03-0.07-0.05s-0.02-0.04-0.02-0.07v-5.81
			c0-0.14,0.04-0.23,0.11-0.29s0.15-0.09,0.24-0.09h0.52c0.11,0,0.2,0.01,0.28,0.03c0.08,0.02,0.15,0.05,0.21,0.09
			s0.11,0.1,0.15,0.16c0.04,0.06,0.07,0.14,0.1,0.23l1.81,4.58h0.02l1.88-4.56c0.04-0.1,0.08-0.18,0.12-0.25s0.09-0.12,0.14-0.16
			s0.11-0.07,0.17-0.09c0.06-0.02,0.14-0.03,0.22-0.03h0.54c0.05,0,0.1,0.01,0.14,0.02c0.04,0.01,0.08,0.04,0.11,0.07
			c0.03,0.03,0.06,0.07,0.08,0.12s0.03,0.1,0.03,0.17V152.54z"/>
	</g>
	<g>
		<path d="M10.37,167.19c0,0.06,0,0.11-0.01,0.15c-0.01,0.04-0.02,0.08-0.03,0.11s-0.04,0.05-0.06,0.06s-0.04,0.02-0.07,0.02H7.17
			c-0.07,0-0.15-0.03-0.21-0.08c-0.07-0.05-0.1-0.14-0.1-0.27v-5.63c0-0.13,0.03-0.22,0.1-0.27c0.07-0.05,0.14-0.08,0.21-0.08h3
			c0.03,0,0.05,0.01,0.07,0.02s0.04,0.03,0.05,0.06s0.02,0.07,0.03,0.11c0.01,0.04,0.01,0.1,0.01,0.16c0,0.06,0,0.11-0.01,0.15
			c-0.01,0.04-0.02,0.08-0.03,0.11c-0.01,0.03-0.03,0.05-0.05,0.06s-0.04,0.02-0.07,0.02H7.7v1.98h2.12c0.03,0,0.05,0.01,0.07,0.02
			c0.02,0.01,0.04,0.03,0.05,0.06s0.03,0.06,0.03,0.11s0.01,0.1,0.01,0.16c0,0.06,0,0.11-0.01,0.15s-0.02,0.08-0.03,0.1
			s-0.03,0.04-0.05,0.06c-0.02,0.01-0.04,0.02-0.07,0.02H7.7v2.26h2.5c0.03,0,0.05,0.01,0.07,0.02s0.04,0.03,0.06,0.06
			c0.02,0.03,0.03,0.06,0.03,0.11C10.37,167.07,10.37,167.12,10.37,167.19z"/>
	</g>
	<g>
		<path d="M15.76,167.23c0.04,0.07,0.07,0.13,0.08,0.17s0,0.08-0.03,0.1c-0.03,0.02-0.08,0.04-0.14,0.05
			c-0.07,0.01-0.16,0.01-0.27,0.01c-0.1,0-0.19,0-0.24-0.01c-0.06,0-0.1-0.01-0.14-0.03s-0.06-0.03-0.08-0.05
			c-0.02-0.02-0.03-0.04-0.05-0.07l-1.41-2.51l-1.42,2.51c-0.02,0.03-0.03,0.05-0.05,0.07s-0.05,0.04-0.08,0.05
			c-0.03,0.01-0.08,0.02-0.14,0.02c-0.06,0.01-0.14,0.01-0.23,0.01c-0.11,0-0.19,0-0.25-0.01c-0.06-0.01-0.1-0.03-0.13-0.05
			c-0.02-0.03-0.03-0.06-0.02-0.1s0.03-0.1,0.08-0.17l1.72-2.91l-1.65-2.81c-0.04-0.07-0.06-0.13-0.08-0.17
			c-0.01-0.04,0-0.08,0.02-0.1c0.03-0.03,0.07-0.04,0.14-0.05s0.15-0.01,0.27-0.01c0.1,0,0.18,0,0.24,0.01
			c0.06,0,0.11,0.01,0.15,0.02c0.04,0.01,0.06,0.03,0.08,0.05c0.02,0.02,0.03,0.04,0.05,0.07l1.36,2.36l1.35-2.36
			c0.02-0.03,0.03-0.05,0.05-0.07c0.02-0.02,0.04-0.04,0.07-0.05c0.03-0.01,0.07-0.02,0.13-0.02c0.06-0.01,0.13-0.01,0.22-0.01
			c0.1,0,0.18,0,0.25,0.01c0.06,0.01,0.11,0.02,0.14,0.05s0.04,0.06,0.03,0.1c-0.01,0.04-0.03,0.1-0.07,0.17l-1.64,2.79
			L15.76,167.23z"/>
	</g>
	<g>
		<path d="M20.45,167.19c0,0.06,0,0.11-0.01,0.15c-0.01,0.04-0.02,0.08-0.03,0.11s-0.04,0.05-0.06,0.06s-0.04,0.02-0.07,0.02h-3.03
			c-0.07,0-0.15-0.03-0.21-0.08c-0.07-0.05-0.1-0.14-0.1-0.27v-5.63c0-0.13,0.03-0.22,0.1-0.27c0.07-0.05,0.14-0.08,0.21-0.08h3
			c0.03,0,0.05,0.01,0.07,0.02s0.04,0.03,0.05,0.06s0.02,0.07,0.03,0.11c0.01,0.04,0.01,0.1,0.01,0.16c0,0.06,0,0.11-0.01,0.15
			c-0.01,0.04-0.02,0.08-0.03,0.11c-0.01,0.03-0.03,0.05-0.05,0.06s-0.04,0.02-0.07,0.02h-2.47v1.98h2.12
			c0.03,0,0.05,0.01,0.07,0.02c0.02,0.01,0.04,0.03,0.05,0.06s0.03,0.06,0.03,0.11s0.01,0.1,0.01,0.16c0,0.06,0,0.11-0.01,0.15
			s-0.02,0.08-0.03,0.1s-0.03,0.04-0.05,0.06c-0.02,0.01-0.04,0.02-0.07,0.02h-2.12v2.26h2.5c0.03,0,0.05,0.01,0.07,0.02
			s0.04,0.03,0.06,0.06c0.02,0.03,0.03,0.06,0.03,0.11C20.44,167.07,20.45,167.12,20.45,167.19z"/>
	</g>
	<g>
		<path d="M25.92,166.64c0,0.05,0,0.1,0,0.14s-0.01,0.07-0.02,0.1s-0.02,0.06-0.03,0.08s-0.04,0.05-0.07,0.08s-0.1,0.08-0.21,0.15
			c-0.1,0.07-0.23,0.13-0.39,0.2c-0.15,0.06-0.33,0.12-0.53,0.16c-0.2,0.04-0.42,0.07-0.66,0.07c-0.41,0-0.78-0.07-1.11-0.21
			s-0.61-0.34-0.84-0.61s-0.41-0.6-0.54-0.99c-0.13-0.39-0.19-0.84-0.19-1.36c0-0.52,0.07-0.99,0.2-1.4s0.32-0.76,0.57-1.04
			c0.24-0.29,0.54-0.5,0.88-0.65s0.72-0.22,1.13-0.22c0.18,0,0.36,0.02,0.53,0.05c0.17,0.04,0.33,0.08,0.48,0.13
			s0.28,0.11,0.39,0.18s0.19,0.13,0.24,0.17c0.04,0.04,0.07,0.08,0.09,0.1s0.02,0.05,0.03,0.08c0.01,0.03,0.01,0.07,0.02,0.11
			s0.01,0.09,0.01,0.15c0,0.07,0,0.12-0.01,0.17c-0.01,0.05-0.02,0.08-0.03,0.11c-0.01,0.03-0.03,0.05-0.05,0.07
			c-0.02,0.02-0.04,0.02-0.07,0.02c-0.05,0-0.11-0.03-0.19-0.09c-0.08-0.06-0.19-0.13-0.32-0.21c-0.13-0.08-0.29-0.15-0.47-0.21
			c-0.19-0.06-0.41-0.1-0.67-0.1c-0.28,0-0.54,0.06-0.77,0.17c-0.23,0.11-0.43,0.28-0.59,0.5c-0.16,0.22-0.29,0.48-0.38,0.8
			c-0.09,0.31-0.13,0.67-0.13,1.08c0,0.4,0.04,0.75,0.13,1.06c0.09,0.31,0.21,0.56,0.37,0.77c0.16,0.21,0.36,0.36,0.6,0.47
			c0.24,0.11,0.5,0.16,0.8,0.16c0.25,0,0.47-0.03,0.66-0.09c0.19-0.06,0.35-0.13,0.48-0.21c0.13-0.08,0.24-0.15,0.33-0.21
			c0.09-0.06,0.15-0.09,0.2-0.09c0.02,0,0.04,0,0.06,0.01c0.02,0.01,0.03,0.03,0.04,0.06c0.01,0.03,0.02,0.07,0.02,0.11
			S25.92,166.56,25.92,166.64z"/>
	</g>
	<g>
		<path d="M31.78,165.2c0,0.38-0.06,0.73-0.17,1.03c-0.11,0.3-0.27,0.56-0.48,0.76s-0.46,0.37-0.76,0.47s-0.64,0.16-1.02,0.16
			c-0.35,0-0.67-0.05-0.95-0.15s-0.53-0.25-0.74-0.45c-0.21-0.2-0.36-0.44-0.47-0.74s-0.17-0.64-0.17-1.03v-3.92
			c0-0.03,0.01-0.05,0.02-0.07s0.04-0.04,0.07-0.05c0.03-0.01,0.07-0.02,0.13-0.03c0.05-0.01,0.12-0.01,0.21-0.01
			c0.08,0,0.15,0,0.2,0.01c0.06,0.01,0.1,0.02,0.13,0.03c0.03,0.01,0.05,0.03,0.07,0.05s0.02,0.04,0.02,0.07v3.82
			c0,0.29,0.04,0.55,0.11,0.77s0.17,0.4,0.31,0.54c0.14,0.15,0.3,0.25,0.49,0.33c0.19,0.07,0.4,0.11,0.64,0.11
			c0.24,0,0.46-0.04,0.65-0.11s0.35-0.18,0.48-0.32s0.23-0.32,0.3-0.53s0.1-0.46,0.1-0.74v-3.86c0-0.03,0.01-0.05,0.02-0.07
			s0.04-0.04,0.07-0.05c0.03-0.01,0.08-0.02,0.13-0.03c0.05-0.01,0.12-0.01,0.2-0.01c0.08,0,0.14,0,0.2,0.01
			c0.05,0.01,0.1,0.02,0.13,0.03c0.03,0.01,0.05,0.03,0.07,0.05s0.02,0.04,0.02,0.07V165.2z"/>
	</g>
	<g>
		<path d="M36.2,167.9c0.07,0.15,0.12,0.27,0.15,0.36c0.03,0.1,0.04,0.19,0.04,0.27c0,0.12-0.02,0.23-0.07,0.33
			s-0.11,0.18-0.19,0.25c-0.08,0.07-0.18,0.12-0.3,0.15s-0.25,0.05-0.4,0.05c-0.11,0-0.22-0.01-0.32-0.02
			c-0.1-0.01-0.19-0.03-0.26-0.05s-0.13-0.03-0.15-0.04s-0.04-0.03-0.06-0.05s-0.02-0.04-0.02-0.07s-0.01-0.07-0.01-0.12
			c0-0.1,0.01-0.17,0.03-0.2c0.02-0.04,0.06-0.05,0.1-0.05h0.6c0.11,0,0.19-0.02,0.25-0.07c0.06-0.04,0.09-0.11,0.09-0.2
			c0-0.04-0.01-0.09-0.03-0.16c-0.02-0.06-0.05-0.13-0.08-0.2l-0.22-0.5c-0.29-0.03-0.57-0.11-0.84-0.24s-0.52-0.32-0.73-0.57
			c-0.22-0.25-0.39-0.58-0.52-0.97c-0.13-0.39-0.19-0.84-0.19-1.36c0-0.52,0.07-0.99,0.2-1.4s0.32-0.76,0.57-1.04
			c0.24-0.29,0.54-0.5,0.88-0.65s0.72-0.22,1.13-0.22c0.18,0,0.36,0.02,0.53,0.05c0.17,0.04,0.33,0.08,0.48,0.13
			s0.28,0.11,0.39,0.18s0.19,0.13,0.24,0.17c0.04,0.04,0.07,0.08,0.09,0.1s0.02,0.05,0.03,0.08c0.01,0.03,0.01,0.07,0.02,0.11
			s0.01,0.09,0.01,0.15c0,0.07,0,0.12-0.01,0.17s-0.02,0.08-0.03,0.11c-0.01,0.03-0.03,0.05-0.05,0.07
			c-0.02,0.02-0.04,0.02-0.07,0.02c-0.05,0-0.11-0.03-0.19-0.09c-0.08-0.06-0.19-0.13-0.31-0.21c-0.13-0.08-0.28-0.15-0.47-0.21
			c-0.18-0.06-0.4-0.1-0.66-0.1c-0.28,0-0.53,0.06-0.76,0.17c-0.23,0.11-0.43,0.28-0.59,0.5s-0.29,0.48-0.38,0.8
			c-0.09,0.31-0.13,0.67-0.13,1.08c0,0.4,0.04,0.75,0.13,1.06c0.09,0.31,0.21,0.56,0.37,0.77c0.16,0.21,0.36,0.36,0.59,0.47
			c0.23,0.11,0.5,0.16,0.8,0.16c0.24,0,0.45-0.03,0.64-0.09c0.19-0.06,0.35-0.13,0.49-0.21s0.25-0.15,0.33-0.21s0.15-0.09,0.2-0.09
			c0.02,0,0.04,0,0.06,0.01s0.03,0.03,0.04,0.06c0.01,0.03,0.02,0.07,0.02,0.11s0.01,0.11,0.01,0.19c0,0.05,0,0.1,0,0.14
			s-0.01,0.07-0.02,0.1s-0.02,0.06-0.03,0.08s-0.04,0.05-0.07,0.08s-0.1,0.08-0.21,0.15c-0.1,0.07-0.23,0.13-0.38,0.19
			s-0.3,0.11-0.45,0.15s-0.3,0.06-0.43,0.07L36.2,167.9z"/>
	</g>
	<g>
		<path d="M43.51,167.24c0.03,0.07,0.04,0.13,0.04,0.17c0,0.04-0.01,0.08-0.04,0.1s-0.07,0.04-0.13,0.04s-0.14,0.01-0.24,0.01
			s-0.18,0-0.24-0.01c-0.06,0-0.11-0.01-0.14-0.02c-0.03-0.01-0.05-0.03-0.07-0.05s-0.03-0.04-0.04-0.07l-0.54-1.54h-2.63
			l-0.52,1.52c-0.01,0.03-0.02,0.05-0.04,0.08c-0.02,0.02-0.04,0.04-0.07,0.05c-0.03,0.01-0.07,0.02-0.13,0.03s-0.13,0.01-0.22,0.01
			c-0.09,0-0.17,0-0.23-0.01c-0.06-0.01-0.1-0.02-0.13-0.05s-0.04-0.06-0.03-0.1c0-0.04,0.02-0.1,0.04-0.17l2.12-5.87
			c0.01-0.04,0.03-0.07,0.05-0.09s0.05-0.04,0.09-0.05s0.09-0.02,0.16-0.03c0.06-0.01,0.14-0.01,0.24-0.01c0.1,0,0.19,0,0.26,0.01
			c0.07,0,0.12,0.01,0.17,0.03s0.07,0.03,0.1,0.06c0.02,0.03,0.04,0.05,0.05,0.09L43.51,167.24z M41.94,159.65
			c0-0.04,0.02-0.07,0.07-0.09c0.05-0.01,0.12-0.02,0.23-0.02c0.12,0,0.19,0.01,0.23,0.04c0.04,0.02,0.05,0.08,0.05,0.16
			c0,0.3-0.08,0.54-0.25,0.71c-0.17,0.17-0.4,0.26-0.71,0.26c-0.17,0-0.32-0.03-0.45-0.09s-0.24-0.12-0.35-0.19
			c-0.11-0.07-0.21-0.13-0.3-0.19c-0.09-0.06-0.19-0.09-0.3-0.09c-0.14,0-0.23,0.04-0.29,0.12s-0.08,0.19-0.08,0.33
			c0,0.02-0.01,0.04-0.02,0.06c-0.01,0.01-0.04,0.03-0.06,0.03c-0.03,0.01-0.06,0.01-0.1,0.02c-0.04,0-0.08,0-0.12,0
			c-0.12,0-0.19-0.01-0.23-0.04s-0.05-0.08-0.05-0.16c0-0.16,0.02-0.29,0.07-0.42c0.05-0.12,0.11-0.22,0.2-0.3s0.19-0.14,0.31-0.19
			c0.12-0.04,0.25-0.07,0.39-0.07c0.17,0,0.32,0.03,0.45,0.09s0.24,0.12,0.35,0.19s0.2,0.13,0.3,0.19s0.19,0.09,0.3,0.09
			c0.11,0,0.2-0.03,0.27-0.1C41.9,159.94,41.94,159.82,41.94,159.65z M40.79,162.06L40.79,162.06l-1.09,3.15h2.2L40.79,162.06z"/>
	</g>
	<g>
		<path d="M49.74,164.3c0,0.51-0.06,0.97-0.18,1.38s-0.3,0.76-0.54,1.05c-0.24,0.29-0.54,0.51-0.9,0.66
			c-0.36,0.15-0.78,0.23-1.26,0.23c-0.48,0-0.89-0.07-1.23-0.21c-0.35-0.14-0.63-0.35-0.86-0.62s-0.39-0.61-0.51-1.01
			s-0.17-0.86-0.17-1.38c0-0.5,0.06-0.95,0.18-1.36s0.3-0.75,0.54-1.04c0.24-0.29,0.54-0.5,0.9-0.66c0.36-0.15,0.78-0.23,1.26-0.23
			c0.47,0,0.87,0.07,1.22,0.21s0.63,0.34,0.86,0.61c0.23,0.27,0.4,0.6,0.51,1C49.69,163.34,49.74,163.79,49.74,164.3z M48.85,164.36
			c0-0.36-0.03-0.69-0.1-1c-0.06-0.31-0.17-0.58-0.32-0.8c-0.15-0.23-0.35-0.4-0.59-0.53c-0.25-0.13-0.55-0.19-0.92-0.19
			s-0.67,0.07-0.92,0.21s-0.45,0.32-0.6,0.55s-0.27,0.49-0.33,0.8c-0.07,0.3-0.1,0.62-0.1,0.96c0,0.37,0.03,0.71,0.09,1.03
			c0.06,0.31,0.17,0.58,0.31,0.81c0.15,0.23,0.34,0.4,0.59,0.53c0.25,0.13,0.55,0.19,0.92,0.19c0.37,0,0.68-0.07,0.93-0.21
			c0.25-0.14,0.45-0.32,0.6-0.55c0.15-0.23,0.26-0.5,0.33-0.81S48.85,164.7,48.85,164.36z"/>
	</g>
</g>
<g>
	<g>
		<path class="st5" d="M15.32,137.05"/>
	</g>
</g>
<g>
	<g>
		<g>
			<path class="st6" d="M21.08,2.6"/>
		</g>
	</g>
	<g>
		<g>
			<g>
				<g>
					<g>
						<g>
							<path d="M42.48,33.59H26.71c-2.98,0-3.54-1.67-3.65-2.24c-0.42-1.34-5.42-17.35-6.2-20.21c-0.44-1.6-0.88-2.21-1.07-2.4H9.68
								v-2l6.62,0.02c0.57,0.12,1.65,0.79,2.49,3.85c0.79,2.89,6.15,20.04,6.2,20.21l0.04,0.25c0.04,0.14,0.44,0.52,1.67,0.52h15.77
								V33.59z"/>
						</g>
					</g>
				</g>
			</g>
		</g>
		<g>
			<g>
				<g>
					<g>
						<g>
							<path d="M24.23,41c-2.12,0-3.84-1.72-3.84-3.84s1.72-3.84,3.84-3.84s3.84,1.72,3.84,3.84S26.34,41,24.23,41z M24.23,35.32
								c-1.01,0-1.84,0.83-1.84,1.84S23.21,39,24.23,39s1.84-0.83,1.84-1.84S25.24,35.32,24.23,35.32z"/>
						</g>
					</g>
				</g>
			</g>
		</g>
		<g>
			<g>
				<g>
					<g>
						<g>
							<path d="M40.69,41c-2.12,0-3.84-1.72-3.84-3.84s1.72-3.84,3.84-3.84s3.84,1.72,3.84,3.84S42.81,41,40.69,41z M40.69,35.32
								c-1.01,0-1.84,0.83-1.84,1.84S39.68,39,40.69,39s1.84-0.83,1.84-1.84S41.7,35.32,40.69,35.32z"/>
						</g>
					</g>
				</g>
			</g>
		</g>
		<g>
			<g>
				<g>
					<g>
						<g>
							<path d="M36.42,27.8c-4.55,0-10.45-0.05-13.76-0.09l0.02-2c7.1,0.07,18.7,0.15,19.62,0.02c0.18-0.04,0.25-0.18,0.27-0.23
								c0.01-0.02,3.5-11.17,4.03-12.91c0.09-0.28,0.07-0.45,0.04-0.5c-0.04-0.07-0.18-0.12-0.24-0.14H20.23v-2l26.38,0.01
								c0.11,0.01,1.14,0.17,1.71,1.05c0.27,0.41,0.52,1.13,0.19,2.18c-0.53,1.74-4.03,12.9-4.03,12.9
								c-0.11,0.44-0.62,1.34-1.78,1.61C42.33,27.77,39.73,27.8,36.42,27.8z"/>
						</g>
					</g>
				</g>
			</g>
		</g>
	</g>
</g>
<g>
	<g>
		<g>
			<path d="M41.39,138.08H15.95c-1.36,0-2.46-1.1-2.46-2.46v-28.1c0-1.13,0.92-2.05,2.05-2.05h1.92v2h-1.92l-0.05,28.15
				c0,0.26,0.21,0.46,0.46,0.46h25.45c0.25,0,0.46-0.21,0.46-0.46v-28.1l-1.38-0.05v-2h1.33c1.13,0,2.05,0.92,2.05,2.05v28.1
				C43.86,136.97,42.75,138.08,41.39,138.08z"/>
		</g>
	</g>
	<g>
		<g>
			<path d="M37.01,110.79H20.54c-1.15,0-2.09-0.94-2.09-2.09v-3.4c0-1.15,0.94-2.09,2.09-2.09h2.87c0.15-0.86,0.53-2.1,1.5-3.11
				c1.03-1.07,2.47-1.63,4.25-1.65c0,0,0,0,0,0c3.36,0,4.77,2.69,5.17,4.69h2.67c1.15,0,2.09,0.94,2.09,2.09v3.47
				C39.09,109.86,38.16,110.79,37.01,110.79z M20.54,105.21c-0.05,0-0.09,0.04-0.09,0.09v3.4c0,0.05,0.04,0.09,0.09,0.09h16.46
				c0.05,0,0.09-0.04,0.09-0.09v-3.47c0-0.05-0.04-0.09-0.09-0.09h-4.48l-0.05-0.94c-0.02-0.38-0.33-3.75-3.29-3.75
				c-3.8,0.05-3.87,3.37-3.86,3.75l0.01,1.01L20.54,105.21z"/>
		</g>
	</g>
	<g>
		<g>
			<path d="M21.51,121.53l4.06,5.04c0.42,0.5,1.16,0.56,1.66,0.14l11.48-9.84l-1.9-2.04l-9.97,9.27c0,0-0.55,0.3-1.26-0.11
				C24.58,123.4,21.51,121.53,21.51,121.53z"/>
		</g>
		<g>
			<path d="M26.47,127.99c-0.06,0-0.13,0-0.19-0.01c-0.58-0.05-1.11-0.33-1.48-0.78l-7.65-9.51l4.89,2.98c0,0,3.06,1.86,4.05,2.44
				c0.11,0.06,0.19,0.08,0.25,0.08l10.53-9.79l3.29,3.54l-12.27,10.52C27.48,127.81,26.99,127.99,26.47,127.99z M25.67,125.1
				l0.67,0.84c0.03,0.03,0.07,0.05,0.1,0.05c0.03,0,0.08,0,0.12-0.04l10.69-9.17l-0.51-0.55l-9.44,8.73
				C26.95,125.18,26.34,125.3,25.67,125.1z"/>
		</g>
	</g>
</g>
<g>
	<g>
		<g>
			<path d="M43.48,326.58H13.86c-1.98,0-3.59-1.61-3.59-3.59v-40.57c0-1.98,1.61-3.59,3.59-3.59h29.61c1.98,0,3.59,1.61,3.59,3.59
				v40.57C47.07,324.97,45.46,326.58,43.48,326.58z M13.86,280.83c-0.88,0-1.59,0.71-1.59,1.59v40.57c0,0.88,0.71,1.59,1.59,1.59
				h29.61c0.88,0,1.59-0.71,1.59-1.59v-40.57c0-0.88-0.71-1.59-1.59-1.59H13.86z"/>
		</g>
	</g>
	<g>
		<g>
			<path d="M40.4,287.77H16.85c-0.61,0-1.1-0.49-1.1-1.1l0,0c0-0.61,0.49-1.1,1.1-1.1H40.4c0.61,0,1.1,0.49,1.1,1.1l0,0
				C41.5,287.28,41.01,287.77,40.4,287.77z"/>
		</g>
	</g>
	<g>
		<g>
			<path d="M40.4,291.99H16.85c-0.61,0-1.1-0.49-1.1-1.1l0,0c0-0.61,0.49-1.1,1.1-1.1H40.4c0.61,0,1.1,0.49,1.1,1.1l0,0
				C41.5,291.5,41.01,291.99,40.4,291.99z"/>
		</g>
	</g>
	<g>
		<g>
			<path d="M30.37,296.45H16.85c-0.61,0-1.1-0.49-1.1-1.1l0,0c0-0.61,0.49-1.1,1.1-1.1h13.53c0.61,0,1.1,0.49,1.1,1.1l0,0
				C31.48,295.96,30.98,296.45,30.37,296.45z"/>
		</g>
	</g>
	<g>
		<g>
			<polygon points="15.57,310.35 16.55,311.34 25.24,302.71 31.95,309.59 41.83,299.81 40.73,298.85 32.15,307.63 25.1,300.67 			
				"/>
		</g>
	</g>
	<g>
		<g>
			<rect x="15.57" y="313.48" width="5.12" height="6.16"/>
		</g>
	</g>
	<g>
		<g>
			<rect x="22.6" y="309.82" width="5.12" height="9.83"/>
		</g>
	</g>
	<g>
		<g>
			<rect x="29.58" y="311.79" width="5.12" height="7.85"/>
		</g>
	</g>
	<g>
		<g>
			<rect x="36.72" y="307.6" width="5.12" height="12.04"/>
		</g>
	</g>
</g>
<g>
	<g>
		<g>
			<path d="M16.46,237.9c-1.75,0-3.45-0.04-4.6-0.14c-3.24-0.3-4.49-3.26-4.7-4.79l-0.01-0.13c-0.01-1.23-0.23-30.25,0-33.96
				c0.22-3.56,3.32-5.07,4.93-5.37l0.18-0.02H38.3c3.53,0.2,5.01,3.12,5.3,4.63l0.02,0.19v15.64h-2v-15.53
				c-0.12-0.47-0.83-2.79-3.38-2.94l-25.88,0c-0.49,0.12-3.06,0.85-3.22,3.5c-0.22,3.55-0.01,32.06,0,33.75
				c0.07,0.4,0.59,2.8,2.9,3.01c3.2,0.3,11.4,0,11.48,0l0.07,2C23.38,237.77,19.82,237.9,16.46,237.9z"/>
		</g>
	</g>
	<g>
		<g>
			<polygon points="34.35,223.73 37.05,222.67 37.48,220.14 40.18,220.14 40.68,222.59 43.26,223.73 45.16,222.29 46.97,224.36 
				45.87,226.01 46.97,228.71 49.29,229.01 49.29,231.83 46.93,232.29 45.87,234.87 47.1,236.98 45.16,238.87 43.26,237.57 
				40.47,238.87 40.35,240.9 37.52,240.9 37.1,238.83 34.35,237.44 32.58,238.79 30.64,236.89 31.74,235.33 30.99,232.46 28.57,232 
				28.57,229.21 30.64,228.83 31.86,226.22 30.54,224.06 32.33,222.21 			"/>
		</g>
	</g>
	<g>
		<g>
			<path d="M24.17,210.42c-0.96,0-1.78-0.02-2.09-0.06c-0.97-0.15-1.4-0.72-1.55-1.16c-0.25-0.49-1.35-2.78-2.03-5.45
				c-0.62-2.43-2.83-3.65-2.85-3.67l0.96-1.76c0.12,0.07,3,1.67,3.83,4.93c0.69,2.74,1.9,5.1,1.92,5.12l0,0c0.01,0,0.02,0,0.03,0.01
				c0.4,0.06,2.99,0.04,5.36-0.01c0.07-0.06,0.19-0.19,0.3-0.41c0.24-0.48,1.21-3.27,1.85-5.16c-1.21-0.05-5.45-0.02-9.23,0.04
				l-0.03-2c3.43-0.06,9.28-0.13,9.98,0.02c1.06,0.23,1.48,1.19,1.35,2.02l-0.04,0.16c-0.28,0.83-1.69,5.02-2.09,5.81
				c-0.54,1.07-1.33,1.4-1.48,1.45l-0.15,0.05l-0.16,0C27.33,210.38,25.61,210.42,24.17,210.42z"/>
		</g>
	</g>
	<g>
		<g>
			<path d="M22.65,214.62c-1.41,0-2.55-1.15-2.55-2.55c0-1.41,1.15-2.55,2.55-2.55s2.55,1.15,2.55,2.55
				C25.21,213.48,24.06,214.62,22.65,214.62z M22.65,211.51c-0.31,0-0.55,0.25-0.55,0.55s0.25,0.55,0.55,0.55s0.55-0.25,0.55-0.55
				S22.96,211.51,22.65,211.51z"/>
		</g>
	</g>
	<g>
		<g>
			<path d="M27.34,214.62c-1.41,0-2.55-1.15-2.55-2.55c0-1.41,1.15-2.55,2.55-2.55c1.41,0,2.55,1.15,2.55,2.55
				C29.9,213.48,28.75,214.62,27.34,214.62z M27.34,211.51c-0.31,0-0.55,0.25-0.55,0.55s0.25,0.55,0.55,0.55s0.55-0.25,0.55-0.55
				S27.65,211.51,27.34,211.51z"/>
		</g>
	</g>
	<g>
		<g>
			<rect x="12.94" y="217.9" width="15.31" height="2.45"/>
		</g>
	</g>
	<g>
		<g>
			<rect x="12.94" y="224.38" width="12.58" height="2.45"/>
		</g>
	</g>
	<g>
		<g>
			<rect x="12.94" y="230.46" width="11.42" height="2.45"/>
		</g>
	</g>
	<g>
		<g>
			<circle class="st7" cx="38.92" cy="230.53" r="3.7"/>
		</g>
	</g>
</g>
<g>
	<g>
		<path class="st8" d="M50.09,234.66"/>
	</g>
</g>
</svg>
