<?xml version="1.0" encoding="utf-8"?>
<!-- Generator: Adobe Illustrator 23.0.1, SVG Export Plug-In . SVG Version: 6.00 Build 0)  -->
<svg version="1.1" id="Layer_1" xmlns="http://www.w3.org/2000/svg" xmlns:xlink="http://www.w3.org/1999/xlink" x="0px" y="0px"
	 viewBox="0 0 50 50" style="enable-background:new 0 0 50 50;" xml:space="preserve">
<style type="text/css">
	.st0{fill:#444445;}
	.st1{fill:#B1B2B1;}
</style>
<g>
	<g>
		<path class="st0" d="M25,1C11.75,1,1,11.75,1,25s10.75,24,24,24s24-10.75,24-24S38.25,1,25,1z"/>
		<path class="st1" d="M25,49.5C11.49,49.5,0.5,38.51,0.5,25C0.5,11.49,11.49,0.5,25,0.5c13.51,0,24.5,10.99,24.5,24.5
			C49.5,38.51,38.51,49.5,25,49.5z M25,1.5C12.04,1.5,1.5,12.04,1.5,25S12.04,48.5,25,48.5S48.5,37.96,48.5,25S37.96,1.5,25,1.5z"/>
	</g>
	<g>
		<circle class="st0" cx="25.58" cy="24.66" r="4.43"/>
		<path class="st1" d="M25.58,29.59c-2.72,0-4.93-2.21-4.93-4.93c0-2.72,2.21-4.93,4.93-4.93c2.72,0,4.93,2.21,4.93,4.93
			C30.51,27.38,28.3,29.59,25.58,29.59z M25.58,20.73c-2.17,0-3.93,1.76-3.93,3.93s1.76,3.93,3.93,3.93s3.93-1.76,3.93-3.93
			S27.75,20.73,25.58,20.73z"/>
	</g>
	<g>
		<circle class="st0" cx="12.52" cy="24.66" r="4.43"/>
		<path class="st1" d="M12.52,29.59c-2.72,0-4.93-2.21-4.93-4.93c0-2.72,2.21-4.93,4.93-4.93s4.93,2.21,4.93,4.93
			C17.45,27.38,15.24,29.59,12.52,29.59z M12.52,20.73c-2.17,0-3.93,1.76-3.93,3.93s1.76,3.93,3.93,3.93s3.93-1.76,3.93-3.93
			S14.69,20.73,12.52,20.73z"/>
	</g>
	<g>
		<circle class="st0" cx="38.89" cy="24.66" r="4.43"/>
		<path class="st1" d="M38.89,29.59c-2.72,0-4.93-2.21-4.93-4.93c0-2.72,2.21-4.93,4.93-4.93c2.72,0,4.93,2.21,4.93,4.93
			C43.82,27.38,41.61,29.59,38.89,29.59z M38.89,20.73c-2.17,0-3.93,1.76-3.93,3.93s1.76,3.93,3.93,3.93s3.93-1.76,3.93-3.93
			S41.06,20.73,38.89,20.73z"/>
	</g>
</g>
</svg>
