<?xml version="1.0" encoding="utf-8"?>
<!-- Generator: Adobe Illustrator 23.0.1, SVG Export Plug-In . SVG Version: 6.00 Build 0)  -->
<svg version="1.1" id="Layer_1" xmlns="http://www.w3.org/2000/svg" xmlns:xlink="http://www.w3.org/1999/xlink" x="0px" y="0px"
	 viewBox="0 0 50 50" style="enable-background:new 0 0 50 50;" xml:space="preserve">
<style type="text/css">
	.st0{fill:#444445;stroke:#000000;stroke-width:0.5;stroke-miterlimit:10;}
	.st1{stroke:#000000;stroke-width:0.5;stroke-miterlimit:10;}
	.st2{fill:#B1B2B1;stroke:#000000;stroke-width:0.5;stroke-miterlimit:10;}
</style>
<g>
	<g>
		<g>
			<path class="st0" d="M25,3.88C13.34,3.88,3.88,13.34,3.88,25S13.34,46.12,25,46.12S46.12,36.66,46.12,25S36.66,3.88,25,3.88z"/>
			<path class="st1" d="M25,47.12C12.8,47.12,2.88,37.2,2.88,25S12.8,2.88,25,2.88S47.12,12.8,47.12,25S37.2,47.12,25,47.12z
				 M25,4.88C13.91,4.88,4.88,13.91,4.88,25c0,11.09,9.03,20.12,20.12,20.12c11.09,0,20.12-9.03,20.12-20.12
				C45.12,13.91,36.09,4.88,25,4.88z"/>
		</g>
		<g>
			<path class="st2" d="M25,46.56C13.11,46.56,3.44,36.89,3.44,25S13.11,3.44,25,3.44S46.56,13.11,46.56,25S36.89,46.56,25,46.56z
				 M25,4.32C13.6,4.32,4.32,13.6,4.32,25S13.6,45.68,25,45.68S45.68,36.4,45.68,25S36.4,4.32,25,4.32z"/>
			<path class="st1" d="M25,47.56C12.56,47.56,2.44,37.44,2.44,25S12.56,2.44,25,2.44S47.56,12.56,47.56,25S37.44,47.56,25,47.56z
				 M25,5.32C14.15,5.32,5.32,14.15,5.32,25S14.15,44.68,25,44.68S44.68,35.85,44.68,25S35.85,5.32,25,5.32z"/>
		</g>
	</g>
	<g>
		<g>
			<circle class="st0" cx="25.51" cy="24.7" r="3.9"/>
			<path class="st1" d="M25.51,29.6c-2.7,0-4.9-2.2-4.9-4.9c0-2.7,2.2-4.9,4.9-4.9s4.9,2.2,4.9,4.9
				C30.41,27.4,28.21,29.6,25.51,29.6z M25.51,21.8c-1.6,0-2.9,1.3-2.9,2.9s1.3,2.9,2.9,2.9s2.9-1.3,2.9-2.9S27.11,21.8,25.51,21.8z
				"/>
		</g>
		<g>
			<path class="st2" d="M25.51,29.04c-2.39,0-4.34-1.94-4.34-4.34s1.94-4.34,4.34-4.34s4.34,1.94,4.34,4.34S27.9,29.04,25.51,29.04z
				 M25.51,21.24c-1.91,0-3.46,1.55-3.46,3.46s1.55,3.46,3.46,3.46s3.46-1.55,3.46-3.46S27.42,21.24,25.51,21.24z"/>
			<path class="st1" d="M25.51,30.04c-2.94,0-5.34-2.39-5.34-5.34c0-2.94,2.4-5.34,5.34-5.34c2.94,0,5.34,2.4,5.34,5.34
				C30.85,27.64,28.45,30.04,25.51,30.04z M25.51,22.24c-1.36,0-2.46,1.1-2.46,2.46c0,1.36,1.1,2.46,2.46,2.46
				c1.36,0,2.46-1.1,2.46-2.46C27.97,23.35,26.87,22.24,25.51,22.24z"/>
		</g>
	</g>
	<g>
		<g>
			<circle class="st0" cx="14.02" cy="24.7" r="3.9"/>
			<path class="st1" d="M14.02,29.6c-2.7,0-4.9-2.2-4.9-4.9c0-2.7,2.2-4.9,4.9-4.9s4.9,2.2,4.9,4.9
				C18.92,27.4,16.72,29.6,14.02,29.6z M14.02,21.8c-1.6,0-2.9,1.3-2.9,2.9s1.3,2.9,2.9,2.9s2.9-1.3,2.9-2.9S15.62,21.8,14.02,21.8z
				"/>
		</g>
		<g>
			<path class="st2" d="M14.02,29.04c-2.39,0-4.34-1.94-4.34-4.34s1.94-4.34,4.34-4.34s4.34,1.94,4.34,4.34S16.41,29.04,14.02,29.04
				z M14.02,21.24c-1.91,0-3.46,1.55-3.46,3.46s1.55,3.46,3.46,3.46s3.46-1.55,3.46-3.46S15.93,21.24,14.02,21.24z"/>
			<path class="st1" d="M14.02,30.04c-2.94,0-5.34-2.39-5.34-5.34c0-2.94,2.4-5.34,5.34-5.34s5.34,2.4,5.34,5.34
				C19.36,27.64,16.96,30.04,14.02,30.04z M14.02,22.24c-1.36,0-2.46,1.1-2.46,2.46c0,1.36,1.1,2.46,2.46,2.46s2.46-1.1,2.46-2.46
				C16.48,23.35,15.37,22.24,14.02,22.24z"/>
		</g>
	</g>
	<g>
		<g>
			<circle class="st0" cx="37.22" cy="24.7" r="3.9"/>
			<path class="st1" d="M37.22,29.6c-2.7,0-4.9-2.2-4.9-4.9c0-2.7,2.2-4.9,4.9-4.9s4.9,2.2,4.9,4.9
				C42.12,27.4,39.92,29.6,37.22,29.6z M37.22,21.8c-1.6,0-2.9,1.3-2.9,2.9s1.3,2.9,2.9,2.9s2.9-1.3,2.9-2.9S38.82,21.8,37.22,21.8z
				"/>
		</g>
		<g>
			<path class="st2" d="M37.22,29.04c-2.39,0-4.34-1.94-4.34-4.34s1.94-4.34,4.34-4.34c2.39,0,4.34,1.94,4.34,4.34
				S39.62,29.04,37.22,29.04z M37.22,21.24c-1.91,0-3.46,1.55-3.46,3.46s1.55,3.46,3.46,3.46c1.91,0,3.46-1.55,3.46-3.46
				S39.13,21.24,37.22,21.24z"/>
			<path class="st1" d="M37.22,30.04c-2.94,0-5.34-2.39-5.34-5.34c0-2.94,2.39-5.34,5.34-5.34c2.94,0,5.34,2.4,5.34,5.34
				C42.56,27.64,40.17,30.04,37.22,30.04z M37.22,22.24c-1.36,0-2.46,1.1-2.46,2.46c0,1.36,1.1,2.46,2.46,2.46s2.46-1.1,2.46-2.46
				C39.68,23.35,38.58,22.24,37.22,22.24z"/>
		</g>
	</g>
</g>
</svg>
