<svg xmlns="http://www.w3.org/2000/svg" xmlns:xlink="http://www.w3.org/1999/xlink" viewBox="0 0 29.67 15.38"><defs><style>.cls-1{fill:none;}.cls-2{clip-path:url(#clip-path);}.cls-3{fill:#fff;}.cls-4,.cls-9{opacity:0.5;}.cls-4{fill:url(#linear-gradient);}.cls-5{clip-path:url(#clip-path-2);}.cls-6{clip-path:url(#clip-path-3);}.cls-7{fill:#ca2027;}.cls-8{fill:#2b3561;}.cls-9{fill:url(#linear-gradient-2);}</style><clipPath id="clip-path"><path class="cls-1" d="M22.14,7.62A7.37,7.37,0,1,1,14.77.25,7.37,7.37,0,0,1,22.14,7.62Z"/></clipPath><linearGradient id="linear-gradient" x1="14.76" y1="8.78" x2="14.78" y2="2.61" gradientUnits="userSpaceOnUse"><stop offset="0" stop-color="#fff" stop-opacity="0"/><stop offset="1" stop-color="#fff"/></linearGradient><clipPath id="clip-path-2"><path class="cls-1" d="M22.59,7.62A7.62,7.62,0,1,1,15,0,7.62,7.62,0,0,1,22.59,7.62Z"/></clipPath><clipPath id="clip-path-3"><rect class="cls-1" x="3.31" width="26.37" height="15.38"/></clipPath><linearGradient id="linear-gradient-2" x1="15.03" y1="8.25" x2="15.04" y2="2.08" xlink:href="#linear-gradient"/></defs><title>Ativo 8</title><g id="Camada_2" data-name="Camada 2"><g id="Camada_1-2" data-name="Camada 1"><g class="cls-2"><polygon class="cls-3" points="12.31 0.24 17.23 0.24 17.23 5.31 29.54 5.16 29.54 10.09 17.23 10.23 17.23 15.16 12.31 15.16 12.31 10.23 0 10.09 0 5.16 12.31 5.31 12.31 0.24"/><polygon class="cls-3" points="0 0.24 3.3 0.39 29.54 13.51 29.54 15.01 26.24 15.16 0 1.89 0 0.24"/><polygon class="cls-3" points="29.54 0.24 26.24 0.39 0 13.51 0 15.01 3.3 15.16 29.54 1.89 29.54 0.24"/></g><path class="cls-4" d="M20.54,4.79c0,2.23-2.58,4-5.77,4S9,7,9,4.79s2.58-4,5.76-4S20.54,2.56,20.54,4.79Z"/><g class="cls-5"><g class="cls-6"><rect class="cls-7" x="3.31" y="14.2" width="26.37" height="1.18"/><rect class="cls-3" x="3.31" y="13.01" width="26.37" height="1.18"/><rect class="cls-7" x="3.31" y="11.83" width="26.37" height="1.18"/><rect class="cls-3" x="3.31" y="10.65" width="26.37" height="1.18"/><rect class="cls-7" x="3.31" y="9.46" width="26.37" height="1.18"/><rect class="cls-3" x="3.31" y="8.28" width="26.37" height="1.18"/><rect class="cls-7" x="3.31" y="7.1" width="26.37" height="1.18"/><rect class="cls-3" x="3.31" y="5.92" width="26.37" height="1.18"/><rect class="cls-7" x="3.31" y="4.73" width="26.37" height="1.18"/><rect class="cls-3" x="3.31" y="3.55" width="26.37" height="1.18"/><rect class="cls-7" x="3.31" y="2.37" width="26.37" height="1.18"/><rect class="cls-3" x="3.31" y="1.18" width="26.37" height="1.18"/><rect class="cls-7" x="3.31" width="26.37" height="1.18"/><rect class="cls-8" x="3.31" width="12.04" height="8.28"/><polygon class="cls-3" points="4.39 0.91 4.5 1.23 4.83 1.23 4.56 1.42 4.66 1.73 4.39 1.54 4.13 1.73 4.23 1.42 3.96 1.23 4.29 1.23 4.39 0.91"/><polygon class="cls-3" points="4.39 2.29 4.5 2.61 4.83 2.61 4.56 2.8 4.66 3.12 4.39 2.92 4.13 3.12 4.23 2.8 3.96 2.61 4.29 2.61 4.39 2.29"/><polygon class="cls-3" points="4.39 3.68 4.5 3.99 4.83 3.99 4.56 4.18 4.66 4.5 4.39 4.3 4.13 4.5 4.23 4.18 3.96 3.99 4.29 3.99 4.39 3.68"/><polygon class="cls-3" points="4.39 5.06 4.5 5.37 4.83 5.37 4.56 5.57 4.66 5.88 4.39 5.69 4.13 5.88 4.23 5.57 3.96 5.37 4.29 5.37 4.39 5.06"/><polygon class="cls-3" points="4.39 6.44 4.5 6.75 4.83 6.75 4.56 6.95 4.66 7.26 4.39 7.07 4.13 7.26 4.23 6.95 3.96 6.75 4.29 6.75 4.39 6.44"/><polygon class="cls-3" points="5.36 1.64 5.46 1.95 5.79 1.95 5.52 2.15 5.62 2.46 5.36 2.27 5.09 2.46 5.19 2.15 4.93 1.95 5.26 1.95 5.36 1.64"/><polygon class="cls-3" points="5.36 3.02 5.46 3.34 5.79 3.34 5.52 3.53 5.62 3.84 5.36 3.65 5.09 3.84 5.19 3.53 4.93 3.34 5.26 3.34 5.36 3.02"/><polygon class="cls-3" points="5.36 4.41 5.46 4.72 5.79 4.72 5.52 4.91 5.62 5.22 5.36 5.03 5.09 5.22 5.19 4.91 4.93 4.72 5.26 4.72 5.36 4.41"/><polygon class="cls-3" points="5.36 5.79 5.46 6.1 5.79 6.1 5.52 6.29 5.62 6.61 5.36 6.41 5.09 6.61 5.19 6.29 4.93 6.1 5.26 6.1 5.36 5.79"/><polygon class="cls-3" points="6.33 0.91 6.43 1.23 6.76 1.23 6.5 1.42 6.6 1.73 6.33 1.54 6.07 1.73 6.17 1.42 5.9 1.23 6.23 1.23 6.33 0.91"/><polygon class="cls-3" points="6.33 2.29 6.43 2.61 6.76 2.61 6.5 2.8 6.6 3.12 6.33 2.92 6.07 3.12 6.17 2.8 5.9 2.61 6.23 2.61 6.33 2.29"/><polygon class="cls-3" points="6.33 3.68 6.43 3.99 6.76 3.99 6.5 4.18 6.6 4.5 6.33 4.3 6.07 4.5 6.17 4.18 5.9 3.99 6.23 3.99 6.33 3.68"/><polygon class="cls-3" points="6.33 5.06 6.43 5.37 6.76 5.37 6.5 5.57 6.6 5.88 6.33 5.69 6.07 5.88 6.17 5.57 5.9 5.37 6.23 5.37 6.33 5.06"/><polygon class="cls-3" points="6.33 6.44 6.43 6.75 6.76 6.75 6.5 6.95 6.6 7.26 6.33 7.07 6.07 7.26 6.17 6.95 5.9 6.75 6.23 6.75 6.33 6.44"/><polygon class="cls-3" points="7.29 1.64 7.4 1.95 7.73 1.95 7.46 2.15 7.56 2.46 7.29 2.27 7.03 2.46 7.13 2.15 6.87 1.95 7.19 1.95 7.29 1.64"/><polygon class="cls-3" points="7.29 3.02 7.4 3.34 7.73 3.34 7.46 3.53 7.56 3.84 7.29 3.65 7.03 3.84 7.13 3.53 6.87 3.34 7.19 3.34 7.29 3.02"/><polygon class="cls-3" points="7.29 4.41 7.4 4.72 7.73 4.72 7.46 4.91 7.56 5.22 7.29 5.03 7.03 5.22 7.13 4.91 6.87 4.72 7.19 4.72 7.29 4.41"/><polygon class="cls-3" points="7.29 5.79 7.4 6.1 7.73 6.1 7.46 6.29 7.56 6.61 7.29 6.41 7.03 6.61 7.13 6.29 6.87 6.1 7.19 6.1 7.29 5.79"/><polygon class="cls-3" points="8.27 0.91 8.37 1.23 8.7 1.23 8.44 1.42 8.54 1.73 8.27 1.54 8 1.73 8.11 1.42 7.84 1.23 8.17 1.23 8.27 0.91"/><polygon class="cls-3" points="8.27 2.29 8.37 2.61 8.7 2.61 8.44 2.8 8.54 3.12 8.27 2.92 8 3.12 8.11 2.8 7.84 2.61 8.17 2.61 8.27 2.29"/><polygon class="cls-3" points="8.27 3.68 8.37 3.99 8.7 3.99 8.44 4.18 8.54 4.5 8.27 4.3 8 4.5 8.11 4.18 7.84 3.99 8.17 3.99 8.27 3.68"/><polygon class="cls-3" points="8.27 5.06 8.37 5.37 8.7 5.37 8.44 5.57 8.54 5.88 8.27 5.69 8 5.88 8.11 5.57 7.84 5.37 8.17 5.37 8.27 5.06"/><polygon class="cls-3" points="8.27 6.44 8.37 6.75 8.7 6.75 8.44 6.95 8.54 7.26 8.27 7.07 8 7.26 8.11 6.95 7.84 6.75 8.17 6.75 8.27 6.44"/><polygon class="cls-3" points="9.23 1.64 9.34 1.95 9.66 1.95 9.4 2.15 9.5 2.46 9.23 2.27 8.97 2.46 9.07 2.15 8.8 1.95 9.13 1.95 9.23 1.64"/><polygon class="cls-3" points="9.23 3.02 9.34 3.34 9.66 3.34 9.4 3.53 9.5 3.84 9.23 3.65 8.97 3.84 9.07 3.53 8.8 3.34 9.13 3.34 9.23 3.02"/><polygon class="cls-3" points="9.23 4.41 9.34 4.72 9.66 4.72 9.4 4.91 9.5 5.22 9.23 5.03 8.97 5.22 9.07 4.91 8.8 4.72 9.13 4.72 9.23 4.41"/><polygon class="cls-3" points="9.23 5.79 9.34 6.1 9.66 6.1 9.4 6.29 9.5 6.61 9.23 6.41 8.97 6.61 9.07 6.29 8.8 6.1 9.13 6.1 9.23 5.79"/><polygon class="cls-3" points="10.21 0.91 10.31 1.23 10.64 1.23 10.37 1.42 10.47 1.73 10.21 1.54 9.94 1.73 10.04 1.42 9.78 1.23 10.11 1.23 10.21 0.91"/><polygon class="cls-3" points="10.21 2.29 10.31 2.61 10.64 2.61 10.37 2.8 10.47 3.12 10.21 2.92 9.94 3.12 10.04 2.8 9.78 2.61 10.11 2.61 10.21 2.29"/><polygon class="cls-3" points="10.21 3.68 10.31 3.99 10.64 3.99 10.37 4.18 10.47 4.5 10.21 4.3 9.94 4.5 10.04 4.18 9.78 3.99 10.11 3.99 10.21 3.68"/><polygon class="cls-3" points="10.21 5.06 10.31 5.37 10.64 5.37 10.37 5.57 10.47 5.88 10.21 5.69 9.94 5.88 10.04 5.57 9.78 5.37 10.11 5.37 10.21 5.06"/><polygon class="cls-3" points="10.21 6.44 10.31 6.75 10.64 6.75 10.37 6.95 10.47 7.26 10.21 7.07 9.94 7.26 10.04 6.95 9.78 6.75 10.11 6.75 10.21 6.44"/><polygon class="cls-3" points="11.17 1.64 11.27 1.95 11.6 1.95 11.34 2.15 11.44 2.46 11.17 2.27 10.9 2.46 11.01 2.15 10.74 1.95 11.07 1.95 11.17 1.64"/><polygon class="cls-3" points="11.17 3.02 11.27 3.34 11.6 3.34 11.34 3.53 11.44 3.84 11.17 3.65 10.9 3.84 11.01 3.53 10.74 3.34 11.07 3.34 11.17 3.02"/><polygon class="cls-3" points="11.17 4.41 11.27 4.72 11.6 4.72 11.34 4.91 11.44 5.22 11.17 5.03 10.9 5.22 11.01 4.91 10.74 4.72 11.07 4.72 11.17 4.41"/><polygon class="cls-3" points="11.17 5.79 11.27 6.1 11.6 6.1 11.34 6.29 11.44 6.61 11.17 6.41 10.9 6.61 11.01 6.29 10.74 6.1 11.07 6.1 11.17 5.79"/><polygon class="cls-3" points="12.15 0.91 12.25 1.23 12.58 1.23 12.31 1.42 12.41 1.73 12.15 1.54 11.88 1.73 11.98 1.42 11.71 1.23 12.04 1.23 12.15 0.91"/><polygon class="cls-3" points="12.15 2.29 12.25 2.61 12.58 2.61 12.31 2.8 12.41 3.12 12.15 2.92 11.88 3.12 11.98 2.8 11.71 2.61 12.04 2.61 12.15 2.29"/><polygon class="cls-3" points="12.15 3.68 12.25 3.99 12.58 3.99 12.31 4.18 12.41 4.5 12.15 4.3 11.88 4.5 11.98 4.18 11.71 3.99 12.04 3.99 12.15 3.68"/><polygon class="cls-3" points="12.15 5.06 12.25 5.37 12.58 5.37 12.31 5.57 12.41 5.88 12.15 5.69 11.88 5.88 11.98 5.57 11.71 5.37 12.04 5.37 12.15 5.06"/><polygon class="cls-3" points="12.15 6.44 12.25 6.75 12.58 6.75 12.31 6.95 12.41 7.26 12.15 7.07 11.88 7.26 11.98 6.95 11.71 6.75 12.04 6.75 12.15 6.44"/><polygon class="cls-3" points="13.11 1.64 13.21 1.95 13.54 1.95 13.27 2.15 13.38 2.46 13.11 2.27 12.84 2.46 12.94 2.15 12.68 1.95 13.01 1.95 13.11 1.64"/><polygon class="cls-3" points="13.11 3.02 13.21 3.34 13.54 3.34 13.27 3.53 13.38 3.84 13.11 3.65 12.84 3.84 12.94 3.53 12.68 3.34 13.01 3.34 13.11 3.02"/><polygon class="cls-3" points="13.11 4.41 13.21 4.72 13.54 4.72 13.27 4.91 13.38 5.22 13.11 5.03 12.84 5.22 12.94 4.91 12.68 4.72 13.01 4.72 13.11 4.41"/><polygon class="cls-3" points="13.11 5.79 13.21 6.1 13.54 6.1 13.27 6.29 13.38 6.61 13.11 6.41 12.84 6.61 12.94 6.29 12.68 6.1 13.01 6.1 13.11 5.79"/><polygon class="cls-3" points="14.08 0.91 14.19 1.23 14.52 1.23 14.25 1.42 14.35 1.73 14.08 1.54 13.82 1.73 13.92 1.42 13.65 1.23 13.98 1.23 14.08 0.91"/><polygon class="cls-3" points="14.08 2.29 14.19 2.61 14.52 2.61 14.25 2.8 14.35 3.12 14.08 2.92 13.82 3.12 13.92 2.8 13.65 2.61 13.98 2.61 14.08 2.29"/><polygon class="cls-3" points="14.08 3.68 14.19 3.99 14.52 3.99 14.25 4.18 14.35 4.5 14.08 4.3 13.82 4.5 13.92 4.18 13.65 3.99 13.98 3.99 14.08 3.68"/><polygon class="cls-3" points="14.08 5.06 14.19 5.37 14.52 5.37 14.25 5.57 14.35 5.88 14.08 5.69 13.82 5.88 13.92 5.57 13.65 5.37 13.98 5.37 14.08 5.06"/><polygon class="cls-3" points="14.08 6.44 14.19 6.75 14.52 6.75 14.25 6.95 14.35 7.26 14.08 7.07 13.82 7.26 13.92 6.95 13.65 6.75 13.98 6.75 14.08 6.44"/></g></g><path class="cls-9" d="M20.8,4.26c0,2.23-2.58,4-5.76,4s-5.77-1.81-5.77-4,2.59-4,5.77-4S20.8,2,20.8,4.26Z"/></g></g></svg>