<?xml version="1.0" encoding="utf-8"?>
<!-- Generator: Adobe Illustrator 23.0.1, SVG Export Plug-In . SVG Version: 6.00 Build 0)  -->
<svg version="1.1" id="Layer_1" xmlns="http://www.w3.org/2000/svg" xmlns:xlink="http://www.w3.org/1999/xlink" x="0px" y="0px"
	 viewBox="0 0 56.5 21.3" style="enable-background:new 0 0 56.5 21.3;" xml:space="preserve">
<style type="text/css">
	.st0{fill:#FF9933;}
	.st1{font-family:'MyriadPro-Semibold';}
	.st2{font-size:8.4319px;}
	.st3{fill:#F1881D;}
	.st4{fill:#FFFFFF;stroke:#3F3F3F;stroke-miterlimit:10;}
</style>
<g>
	<g>
		<text transform="matrix(1 0 0 1 24.3542 14.1152)" class="st0 st1 st2">Favorito</text>
	</g>
	<path class="st0" d="M52,0H13.4l0.3,0.7H52c1.9,0,3.4,1.2,3.4,2.6v13.9c0,1.5-1.5,2.6-3.4,2.6H19.6l-0.1,0.8l32.5,0
		c2.5,0,4.5-1.6,4.5-3.5V3.5C56.5,1.6,54.5,0,52,0z"/>
	<g>
		<path class="st3" d="M15.8,5.5l2.4-0.8c0.1,0,0.3-0.2,0.3-0.3c0-0.1,0-0.2-0.1-0.3c-0.3-0.2-1.6-1.3-2.1-1.6
			c-0.1-0.1-0.3-0.1-0.4,0c-0.1,0.1-0.2,0.2-0.2,0.3v2.7C15.6,5.5,15.7,5.6,15.8,5.5z"/>
	</g>
	<g>
		<path class="st3" d="M6.2,5.5L3.8,4.7c-0.1,0-0.3-0.2-0.3-0.3c0-0.1,0-0.2,0.1-0.3c0.3-0.2,1.6-1.3,2.1-1.6c0.1-0.1,0.3-0.1,0.4,0
			c0.1,0.1,0.2,0.2,0.2,0.3v2.7C6.4,5.5,6.3,5.5,6.2,5.5z"/>
	</g>
	<g>
		<path class="st3" d="M3.9,13.8l-1.5,2C2.3,15.9,2.2,16,2,16c-0.1,0-0.2-0.1-0.3-0.2c-0.1-0.3-0.7-1.9-0.9-2.5
			c-0.1-0.1,0-0.3,0.1-0.4c0.1-0.1,0.3-0.1,0.4-0.1l2.5,0.9C4,13.7,4,13.7,3.9,13.8z"/>
	</g>
	<g>
		<path class="st3" d="M10.7,18.6l-1.4,2.1c-0.1,0.1-0.1,0.3,0,0.4c0,0.1,0.1,0.2,0.3,0.2c0.3,0,2,0,2.7,0c0.2,0,0.3-0.1,0.3-0.2
			c0-0.1,0-0.3,0-0.4l-1.6-2.1C10.8,18.5,10.7,18.5,10.7,18.6z"/>
	</g>
	<path class="st0" d="M17.6,19.3c-2.8-0.2-5-2.5-5-5.4c0-3,2.4-5.4,5.4-5.4c1,0,2,0.3,2.9,0.8l0.6-0.6c0.2-0.2,0.3-0.4,0.2-0.7
		c0-0.2-0.2-0.5-0.5-0.5c-0.8-0.1-6.6-0.9-6.6-0.9l-3.2-6.1c-0.1-0.2-0.2-0.3-0.4-0.3c-0.1,0-0.2,0-0.2,0c-0.1,0-0.2,0-0.2,0
		c-0.2,0.1-0.3,0.2-0.4,0.3L7.1,6.5c0,0-5.8,0.8-6.6,0.9C0.2,7.5,0,7.7,0,7.9c0,0.3,0.1,0.5,0.2,0.7L5,13.4c0,0-0.9,6-1,6.8
		c-0.1,0.8,0.7,0.5,0.7,0.5l6.2-3.1l6.2,3.1c0,0,0.7,0.2,0.7-0.5C17.7,20,17.6,19.7,17.6,19.3z"/>
	<circle class="st0" cx="17.8" cy="13.8" r="4.5"/>
	<polygon class="st4" points="20.7,13.2 18.4,13.2 18.4,10.9 17.1,10.9 17.1,13.2 14.9,13.2 14.9,14.5 17.1,14.5 17.1,16.7 
		18.4,16.7 18.4,14.5 20.7,14.5 	"/>
</g>
</svg>
