<?xml version="1.0" encoding="utf-8"?>
<!-- Generator: Adobe Illustrator 23.0.1, SVG Export Plug-In . SVG Version: 6.00 Build 0)  -->
<svg version="1.1" id="Layer_1" xmlns="http://www.w3.org/2000/svg" xmlns:xlink="http://www.w3.org/1999/xlink" x="0px" y="0px"
	 viewBox="0 0 640 480" style="enable-background:new 0 0 640 480;" xml:space="preserve">
<style type="text/css">
	.st0{stroke:#B1B2B1;stroke-miterlimit:10;}
	.st1{stroke:#B1B2B1;stroke-width:2;stroke-miterlimit:10;}
	.st2{fill:#333333;}
	.st3{fill:#A0A0A0;}
	.st4{fill:#FFFFFF;}
</style>
<g>
	<g>
		<g>
			<path d="M17,198.1c0,0.5-0.1,0.9-0.2,1.3c-0.1,0.4-0.3,0.7-0.5,1c-0.2,0.3-0.5,0.5-0.9,0.6c-0.3,0.1-0.7,0.2-1.2,0.2
				c-0.4,0-0.8-0.1-1.2-0.2c-0.3-0.1-0.6-0.3-0.8-0.6c-0.2-0.3-0.4-0.6-0.5-1c-0.1-0.4-0.2-0.8-0.2-1.3c0-0.5,0.1-0.9,0.2-1.3
				s0.3-0.7,0.5-1c0.2-0.3,0.5-0.5,0.9-0.6c0.3-0.1,0.7-0.2,1.2-0.2c0.4,0,0.8,0.1,1.1,0.2c0.3,0.1,0.6,0.3,0.8,0.6
				c0.2,0.3,0.4,0.6,0.5,0.9C17,197.2,17,197.6,17,198.1z M16.2,198.1c0-0.3,0-0.7-0.1-0.9c-0.1-0.3-0.2-0.5-0.3-0.8
				c-0.1-0.2-0.3-0.4-0.6-0.5c-0.2-0.1-0.5-0.2-0.9-0.2c-0.3,0-0.6,0.1-0.9,0.2c-0.2,0.1-0.4,0.3-0.6,0.5c-0.1,0.2-0.3,0.5-0.3,0.8
				c-0.1,0.3-0.1,0.6-0.1,0.9c0,0.4,0,0.7,0.1,1c0.1,0.3,0.2,0.6,0.3,0.8s0.3,0.4,0.6,0.5c0.2,0.1,0.5,0.2,0.9,0.2
				c0.3,0,0.6-0.1,0.9-0.2c0.2-0.1,0.4-0.3,0.6-0.5c0.1-0.2,0.2-0.5,0.3-0.8C16.2,198.7,16.2,198.4,16.2,198.1z"/>
		</g>
	</g>
	<g>
		<g>
			<path d="M22.3,201C22.3,201,22.3,201,22.3,201c0,0.1,0,0.1-0.1,0.1c0,0-0.1,0-0.1,0c-0.1,0-0.1,0-0.2,0c-0.1,0-0.1,0-0.2,0
				c-0.1,0-0.1,0-0.1,0c0,0-0.1,0-0.1-0.1c0,0,0-0.1,0-0.1l-0.5-1.4c-0.1-0.2-0.1-0.3-0.2-0.4c-0.1-0.1-0.2-0.2-0.2-0.3
				c-0.1-0.1-0.2-0.2-0.3-0.2c-0.1-0.1-0.3-0.1-0.5-0.1h-0.5v2.5c0,0,0,0,0,0.1c0,0,0,0-0.1,0c0,0-0.1,0-0.1,0c-0.1,0-0.1,0-0.2,0
				s-0.1,0-0.2,0c-0.1,0-0.1,0-0.1,0c0,0-0.1,0-0.1,0c0,0,0,0,0-0.1v-5.5c0-0.1,0-0.2,0.1-0.3c0.1,0,0.1-0.1,0.2-0.1h1.3
				c0.2,0,0.3,0,0.4,0c0.1,0,0.2,0,0.3,0c0.2,0,0.4,0.1,0.6,0.2c0.2,0.1,0.3,0.2,0.4,0.3s0.2,0.3,0.3,0.5c0.1,0.2,0.1,0.4,0.1,0.6
				c0,0.2,0,0.4-0.1,0.5c-0.1,0.2-0.1,0.3-0.2,0.4c-0.1,0.1-0.2,0.2-0.4,0.3c-0.1,0.1-0.3,0.2-0.5,0.2c0.1,0,0.2,0.1,0.3,0.2
				c0.1,0.1,0.2,0.1,0.2,0.2c0.1,0.1,0.1,0.2,0.2,0.3c0.1,0.1,0.1,0.3,0.2,0.4l0.5,1.3c0,0.1,0.1,0.2,0.1,0.2S22.3,201,22.3,201z
				 M21.1,196.8c0-0.2-0.1-0.4-0.2-0.6c-0.1-0.2-0.3-0.3-0.5-0.3c-0.1,0-0.2,0-0.3,0c-0.1,0-0.2,0-0.4,0h-0.7v2h0.8
				c0.2,0,0.4,0,0.5-0.1c0.2-0.1,0.3-0.1,0.4-0.2c0.1-0.1,0.2-0.2,0.2-0.3C21,197.1,21.1,196.9,21.1,196.8z"/>
		</g>
	</g>
	<g>
		<g>
			<path d="M28,198c0,0.5-0.1,1-0.2,1.4c-0.1,0.4-0.3,0.7-0.6,1c-0.3,0.3-0.6,0.4-0.9,0.6c-0.4,0.1-0.8,0.2-1.3,0.2h-1.3
				c-0.1,0-0.1,0-0.2-0.1c-0.1,0-0.1-0.1-0.1-0.3v-5.3c0-0.1,0-0.2,0.1-0.3s0.1-0.1,0.2-0.1h1.4c0.5,0,1,0.1,1.3,0.2
				c0.4,0.1,0.7,0.3,0.9,0.6c0.2,0.3,0.4,0.6,0.5,0.9C27.9,197.2,28,197.6,28,198z M27.2,198.1c0-0.3,0-0.6-0.1-0.9
				c-0.1-0.3-0.2-0.5-0.4-0.7c-0.2-0.2-0.4-0.4-0.6-0.5s-0.6-0.2-1-0.2h-0.8v4.6H25c0.4,0,0.7,0,1-0.1c0.3-0.1,0.5-0.2,0.7-0.4
				c0.2-0.2,0.3-0.4,0.4-0.7C27.1,198.8,27.2,198.5,27.2,198.1z"/>
		</g>
	</g>
	<g>
		<g>
			<path d="M32.6,200.8c0,0.1,0,0.1,0,0.1c0,0,0,0.1,0,0.1c0,0,0,0-0.1,0.1c0,0,0,0-0.1,0h-2.9c-0.1,0-0.1,0-0.2-0.1
				c-0.1,0-0.1-0.1-0.1-0.3v-5.3c0-0.1,0-0.2,0.1-0.3s0.1-0.1,0.2-0.1h2.8c0,0,0,0,0.1,0c0,0,0,0,0,0.1c0,0,0,0.1,0,0.1
				c0,0,0,0.1,0,0.2c0,0.1,0,0.1,0,0.1c0,0,0,0.1,0,0.1c0,0,0,0,0,0.1c0,0,0,0-0.1,0H30v1.9h2c0,0,0,0,0.1,0c0,0,0,0,0.1,0.1
				c0,0,0,0.1,0,0.1c0,0,0,0.1,0,0.2c0,0.1,0,0.1,0,0.1s0,0.1,0,0.1c0,0,0,0-0.1,0.1c0,0,0,0-0.1,0h-2v2.1h2.4c0,0,0,0,0.1,0
				c0,0,0,0,0.1,0.1c0,0,0,0.1,0,0.1C32.5,200.7,32.6,200.7,32.6,200.8z"/>
		</g>
	</g>
	<g>
		<g>
			<path d="M38.4,200.8c0,0.1,0,0.1,0,0.2c0,0,0,0.1-0.1,0.1s-0.1,0-0.1,0.1c0,0-0.1,0-0.1,0h-0.3c-0.1,0-0.2,0-0.2,0
				c-0.1,0-0.1,0-0.2-0.1c-0.1,0-0.1-0.1-0.2-0.2c-0.1-0.1-0.1-0.2-0.2-0.3l-1.8-3.4c-0.1-0.2-0.2-0.4-0.3-0.6
				c-0.1-0.2-0.2-0.4-0.3-0.6h0c0,0.2,0,0.4,0,0.7s0,0.5,0,0.7v3.6c0,0,0,0,0,0.1c0,0,0,0-0.1,0c0,0-0.1,0-0.1,0c-0.1,0-0.1,0-0.2,0
				s-0.1,0-0.2,0c-0.1,0-0.1,0-0.1,0c0,0-0.1,0-0.1,0c0,0,0,0,0-0.1v-5.5c0-0.1,0-0.2,0.1-0.3c0.1-0.1,0.1-0.1,0.2-0.1h0.4
				c0.1,0,0.2,0,0.2,0c0.1,0,0.1,0,0.2,0.1c0,0,0.1,0.1,0.1,0.1s0.1,0.1,0.1,0.2l1.4,2.6c0.1,0.2,0.2,0.3,0.2,0.5
				c0.1,0.2,0.2,0.3,0.2,0.5s0.1,0.3,0.2,0.4c0.1,0.1,0.1,0.3,0.2,0.4h0c0-0.2,0-0.5,0-0.8c0-0.3,0-0.5,0-0.8v-3.2c0,0,0,0,0-0.1
				c0,0,0,0,0.1,0c0,0,0.1,0,0.1,0c0.1,0,0.1,0,0.2,0c0.1,0,0.1,0,0.2,0c0.1,0,0.1,0,0.1,0c0,0,0.1,0,0.1,0c0,0,0,0,0,0.1V200.8z"/>
		</g>
	</g>
	<g>
		<g>
			<path d="M43.2,199.4c0,0.3-0.1,0.5-0.2,0.7c-0.1,0.2-0.2,0.4-0.4,0.6c-0.2,0.2-0.4,0.3-0.6,0.3s-0.5,0.1-0.8,0.1
				c-0.2,0-0.4,0-0.6-0.1c-0.2,0-0.3-0.1-0.5-0.1c-0.1,0-0.2-0.1-0.3-0.2c-0.1-0.1-0.2-0.1-0.2-0.1c0,0-0.1-0.1-0.1-0.1
				c0-0.1,0-0.1,0-0.2c0-0.1,0-0.1,0-0.2c0,0,0-0.1,0-0.1c0,0,0,0,0-0.1c0,0,0,0,0.1,0c0,0,0.1,0,0.2,0.1c0.1,0.1,0.2,0.1,0.3,0.2
				s0.3,0.1,0.4,0.2c0.2,0.1,0.4,0.1,0.6,0.1c0.2,0,0.3,0,0.5-0.1c0.1,0,0.3-0.1,0.4-0.2c0.1-0.1,0.2-0.2,0.2-0.3s0.1-0.3,0.1-0.4
				c0-0.2,0-0.3-0.1-0.4c-0.1-0.1-0.2-0.2-0.3-0.3s-0.3-0.2-0.4-0.2c-0.2-0.1-0.3-0.2-0.5-0.2c-0.2-0.1-0.3-0.2-0.5-0.3
				c-0.2-0.1-0.3-0.2-0.4-0.3c-0.1-0.1-0.2-0.3-0.3-0.5c-0.1-0.2-0.1-0.4-0.1-0.6c0-0.2,0-0.5,0.1-0.7s0.2-0.4,0.4-0.5
				c0.2-0.1,0.4-0.2,0.6-0.3c0.2-0.1,0.5-0.1,0.7-0.1c0.1,0,0.3,0,0.4,0c0.1,0,0.3,0.1,0.4,0.1c0.1,0,0.2,0.1,0.3,0.1
				c0.1,0,0.2,0.1,0.2,0.1c0,0,0,0.1,0.1,0.1c0,0,0,0,0,0.1c0,0,0,0.1,0,0.1c0,0,0,0.1,0,0.1c0,0.1,0,0.1,0,0.1c0,0,0,0.1,0,0.1
				s0,0.1,0,0.1c0,0,0,0-0.1,0c0,0-0.1,0-0.2-0.1c-0.1,0-0.2-0.1-0.3-0.1c-0.1-0.1-0.2-0.1-0.4-0.1c-0.1,0-0.3-0.1-0.5-0.1
				c-0.2,0-0.3,0-0.4,0.1c-0.1,0-0.2,0.1-0.3,0.2c-0.1,0.1-0.1,0.2-0.2,0.3c0,0.1-0.1,0.2-0.1,0.3c0,0.2,0,0.3,0.1,0.4
				c0.1,0.1,0.2,0.2,0.3,0.3c0.1,0.1,0.3,0.2,0.4,0.3s0.3,0.2,0.5,0.2c0.2,0.1,0.3,0.2,0.5,0.3c0.2,0.1,0.3,0.2,0.4,0.3
				c0.1,0.1,0.2,0.3,0.3,0.5C43.1,199,43.2,199.2,43.2,199.4z"/>
		</g>
	</g>
</g>
<g>
	<g>
		<g>
			<path d="M16.5,132c0,0.1,0,0.1,0,0.2c0,0,0,0.1,0,0.1c0,0-0.1,0-0.1,0c-0.1,0-0.1,0-0.2,0s-0.2,0-0.2,0c-0.1,0-0.1,0-0.1,0
				c0,0-0.1,0-0.1,0c0,0,0,0,0-0.1l-0.5-1.5h-2.5l-0.5,1.4c0,0,0,0.1,0,0.1c0,0,0,0-0.1,0.1c0,0-0.1,0-0.1,0c-0.1,0-0.1,0-0.2,0
				c-0.1,0-0.2,0-0.2,0c-0.1,0-0.1,0-0.1,0c0,0,0-0.1,0-0.1c0,0,0-0.1,0-0.2l2-5.5c0,0,0-0.1,0-0.1c0,0,0,0,0.1-0.1c0,0,0.1,0,0.1,0
				c0.1,0,0.1,0,0.2,0c0.1,0,0.2,0,0.2,0c0.1,0,0.1,0,0.2,0s0.1,0,0.1,0.1c0,0,0,0.1,0.1,0.1L16.5,132z M13.9,127.1L13.9,127.1l-1,3
				H15L13.9,127.1z"/>
		</g>
	</g>
	<g>
		<g>
			<path d="M22,131.9c0,0.1,0,0.1,0,0.2c0,0,0,0.1-0.1,0.1c0,0-0.1,0-0.1,0.1c0,0-0.1,0-0.1,0h-0.3c-0.1,0-0.2,0-0.2,0
				c-0.1,0-0.1,0-0.2-0.1c-0.1,0-0.1-0.1-0.2-0.2c-0.1-0.1-0.1-0.2-0.2-0.3l-1.8-3.4c-0.1-0.2-0.2-0.4-0.3-0.6
				c-0.1-0.2-0.2-0.4-0.3-0.6h0c0,0.2,0,0.4,0,0.7c0,0.2,0,0.5,0,0.7v3.6c0,0,0,0,0,0.1c0,0,0,0-0.1,0c0,0-0.1,0-0.1,0
				c-0.1,0-0.1,0-0.2,0c-0.1,0-0.1,0-0.2,0c-0.1,0-0.1,0-0.1,0c0,0-0.1,0-0.1,0c0,0,0,0,0-0.1v-5.5c0-0.1,0-0.2,0.1-0.3
				c0.1-0.1,0.1-0.1,0.2-0.1h0.4c0.1,0,0.2,0,0.2,0c0.1,0,0.1,0,0.2,0.1c0,0,0.1,0.1,0.1,0.1c0,0.1,0.1,0.1,0.1,0.2l1.4,2.6
				c0.1,0.2,0.2,0.3,0.2,0.5c0.1,0.2,0.2,0.3,0.2,0.5s0.1,0.3,0.2,0.4c0.1,0.1,0.1,0.3,0.2,0.4h0c0-0.2,0-0.5,0-0.8
				c0-0.3,0-0.5,0-0.8v-3.2c0,0,0,0,0-0.1s0,0,0.1,0c0,0,0.1,0,0.1,0c0.1,0,0.1,0,0.2,0c0.1,0,0.1,0,0.2,0c0.1,0,0.1,0,0.1,0
				c0,0,0.1,0,0.1,0s0,0,0,0.1V131.9z"/>
		</g>
	</g>
	<g>
		<g>
			<path d="M28.1,132c0,0.1,0,0.1,0,0.2c0,0,0,0.1,0,0.1c0,0-0.1,0-0.1,0c-0.1,0-0.1,0-0.2,0c-0.1,0-0.2,0-0.2,0c-0.1,0-0.1,0-0.1,0
				c0,0-0.1,0-0.1,0c0,0,0,0,0-0.1l-0.5-1.5h-2.5l-0.5,1.4c0,0,0,0.1,0,0.1c0,0,0,0-0.1,0.1c0,0-0.1,0-0.1,0c-0.1,0-0.1,0-0.2,0
				c-0.1,0-0.2,0-0.2,0c-0.1,0-0.1,0-0.1,0c0,0,0-0.1,0-0.1c0,0,0-0.1,0-0.2l2-5.5c0,0,0-0.1,0-0.1c0,0,0,0,0.1-0.1c0,0,0.1,0,0.1,0
				c0.1,0,0.1,0,0.2,0c0.1,0,0.2,0,0.2,0c0.1,0,0.1,0,0.2,0c0,0,0.1,0,0.1,0.1c0,0,0,0.1,0.1,0.1L28.1,132z M25.5,127.1L25.5,127.1
				l-1,3h2.1L25.5,127.1z"/>
		</g>
	</g>
	<g>
		<g>
			<path d="M32.2,131.9c0,0.1,0,0.1,0,0.2c0,0,0,0.1,0,0.1c0,0,0,0.1-0.1,0.1c0,0,0,0-0.1,0h-2.6c-0.1,0-0.1,0-0.2-0.1
				c-0.1,0-0.1-0.1-0.1-0.3v-5.5c0,0,0,0,0-0.1c0,0,0,0,0.1,0c0,0,0.1,0,0.1,0c0.1,0,0.1,0,0.2,0c0.1,0,0.1,0,0.2,0
				c0.1,0,0.1,0,0.1,0c0,0,0.1,0,0.1,0s0,0,0,0.1v5.2H32c0,0,0.1,0,0.1,0c0,0,0,0,0.1,0.1c0,0,0,0.1,0,0.1
				C32.2,131.8,32.2,131.9,32.2,131.9z"/>
		</g>
	</g>
	<g>
		<g>
			<path d="M33.8,132.1C33.8,132.2,33.8,132.2,33.8,132.1c0,0.1-0.1,0.1-0.1,0.1c0,0-0.1,0-0.1,0c-0.1,0-0.1,0-0.2,0
				c-0.1,0-0.1,0-0.2,0c-0.1,0-0.1,0-0.1,0c0,0-0.1,0-0.1,0c0,0,0,0,0-0.1v-5.7c0,0,0,0,0-0.1c0,0,0,0,0.1,0c0,0,0.1,0,0.1,0
				c0.1,0,0.1,0,0.2,0c0.1,0,0.1,0,0.2,0c0.1,0,0.1,0,0.1,0c0,0,0.1,0,0.1,0c0,0,0,0,0,0.1V132.1z"/>
		</g>
	</g>
	<g>
		<g>
			<path d="M38.6,130.6c0,0.3-0.1,0.5-0.2,0.7c-0.1,0.2-0.2,0.4-0.4,0.6c-0.2,0.2-0.4,0.3-0.6,0.3c-0.2,0.1-0.5,0.1-0.8,0.1
				c-0.2,0-0.4,0-0.6-0.1c-0.2,0-0.3-0.1-0.5-0.1c-0.1,0-0.2-0.1-0.3-0.2s-0.2-0.1-0.2-0.1c0,0-0.1-0.1-0.1-0.1c0-0.1,0-0.1,0-0.2
				c0-0.1,0-0.1,0-0.2c0,0,0-0.1,0-0.1c0,0,0,0,0-0.1c0,0,0,0,0.1,0c0,0,0.1,0,0.2,0.1c0.1,0.1,0.2,0.1,0.3,0.2s0.3,0.1,0.4,0.2
				c0.2,0.1,0.4,0.1,0.6,0.1c0.2,0,0.3,0,0.5-0.1c0.1,0,0.3-0.1,0.4-0.2c0.1-0.1,0.2-0.2,0.2-0.3s0.1-0.3,0.1-0.4
				c0-0.2,0-0.3-0.1-0.4c-0.1-0.1-0.2-0.2-0.3-0.3c-0.1-0.1-0.3-0.2-0.4-0.2c-0.2-0.1-0.3-0.2-0.5-0.2c-0.2-0.1-0.3-0.2-0.5-0.3
				c-0.2-0.1-0.3-0.2-0.4-0.3c-0.1-0.1-0.2-0.3-0.3-0.5c-0.1-0.2-0.1-0.4-0.1-0.6c0-0.2,0-0.5,0.1-0.7c0.1-0.2,0.2-0.4,0.4-0.5
				c0.2-0.1,0.4-0.2,0.6-0.3c0.2-0.1,0.5-0.1,0.7-0.1c0.1,0,0.3,0,0.4,0c0.1,0,0.3,0.1,0.4,0.1c0.1,0,0.2,0.1,0.3,0.1
				c0.1,0,0.2,0.1,0.2,0.1c0,0,0,0.1,0.1,0.1c0,0,0,0,0,0.1c0,0,0,0.1,0,0.1c0,0,0,0.1,0,0.1c0,0.1,0,0.1,0,0.1c0,0,0,0.1,0,0.1
				c0,0,0,0.1,0,0.1c0,0,0,0-0.1,0c0,0-0.1,0-0.2-0.1c-0.1,0-0.2-0.1-0.3-0.1c-0.1-0.1-0.2-0.1-0.4-0.1c-0.1,0-0.3-0.1-0.5-0.1
				c-0.2,0-0.3,0-0.4,0.1c-0.1,0-0.2,0.1-0.3,0.2c-0.1,0.1-0.1,0.2-0.2,0.3c0,0.1-0.1,0.2-0.1,0.3c0,0.2,0,0.3,0.1,0.4
				s0.2,0.2,0.3,0.3c0.1,0.1,0.3,0.2,0.4,0.3s0.3,0.2,0.5,0.2c0.2,0.1,0.3,0.2,0.5,0.3s0.3,0.2,0.4,0.3c0.1,0.1,0.2,0.3,0.3,0.5
				C38.6,130.2,38.6,130.4,38.6,130.6z"/>
		</g>
	</g>
	<g>
		<g>
			<path d="M43.1,131.9c0,0.1,0,0.1,0,0.1c0,0,0,0.1,0,0.1s0,0-0.1,0.1c0,0,0,0-0.1,0h-2.9c-0.1,0-0.1,0-0.2-0.1
				c-0.1,0-0.1-0.1-0.1-0.3v-5.3c0-0.1,0-0.2,0.1-0.3c0.1,0,0.1-0.1,0.2-0.1h2.8c0,0,0,0,0.1,0c0,0,0,0,0,0.1c0,0,0,0.1,0,0.1
				c0,0,0,0.1,0,0.2c0,0.1,0,0.1,0,0.1c0,0,0,0.1,0,0.1c0,0,0,0,0,0.1c0,0,0,0-0.1,0h-2.3v1.9h2c0,0,0,0,0.1,0c0,0,0,0,0.1,0.1
				c0,0,0,0.1,0,0.1c0,0,0,0.1,0,0.2c0,0.1,0,0.1,0,0.1c0,0,0,0.1,0,0.1c0,0,0,0-0.1,0.1c0,0,0,0-0.1,0h-2v2.1h2.4c0,0,0,0,0.1,0
				c0,0,0,0,0.1,0.1s0,0.1,0,0.1C43.1,131.8,43.1,131.9,43.1,131.9z"/>
		</g>
	</g>
</g>
<g>
	<g>
		<g>
			<path d="M19.9,52.7c0,0.2,0,0.4-0.1,0.5c0,0.2-0.1,0.3-0.2,0.4c-0.1,0.1-0.2,0.2-0.3,0.3c-0.1,0.1-0.3,0.2-0.4,0.2
				c-0.2,0.1-0.3,0.1-0.5,0.1c-0.2,0-0.4,0-0.6,0h-1.6c-0.1,0-0.1,0-0.2-0.1c-0.1,0-0.1-0.1-0.1-0.3v-5.3c0-0.1,0-0.2,0.1-0.3
				s0.1-0.1,0.2-0.1h1.4c0.4,0,0.6,0,0.9,0.1c0.2,0.1,0.4,0.2,0.6,0.3c0.2,0.1,0.3,0.3,0.3,0.5c0.1,0.2,0.1,0.4,0.1,0.6
				c0,0.1,0,0.3-0.1,0.4s-0.1,0.2-0.1,0.4c-0.1,0.1-0.1,0.2-0.2,0.3c-0.1,0.1-0.2,0.2-0.3,0.2c0.2,0,0.3,0.1,0.5,0.2
				c0.1,0.1,0.3,0.2,0.4,0.3c0.1,0.1,0.2,0.3,0.3,0.4S19.9,52.5,19.9,52.7z M18.7,50c0-0.1,0-0.3-0.1-0.4c0-0.1-0.1-0.2-0.2-0.3
				c-0.1-0.1-0.2-0.1-0.3-0.2c-0.1,0-0.3-0.1-0.5-0.1h-0.8V51h0.9c0.2,0,0.4,0,0.5-0.1c0.1-0.1,0.2-0.1,0.3-0.2
				c0.1-0.1,0.1-0.2,0.2-0.3S18.7,50.1,18.7,50z M19.1,52.7c0-0.2,0-0.3-0.1-0.5c-0.1-0.1-0.1-0.2-0.2-0.3c-0.1-0.1-0.2-0.2-0.4-0.2
				c-0.2,0-0.4-0.1-0.6-0.1h-0.9v2.1h1.2c0.2,0,0.3,0,0.5-0.1c0.1,0,0.3-0.1,0.4-0.2c0.1-0.1,0.2-0.2,0.2-0.3
				C19.1,53,19.1,52.9,19.1,52.7z"/>
		</g>
	</g>
	<g>
		<g>
			<path d="M26.2,51.3c0,0.5-0.1,0.9-0.2,1.3s-0.3,0.7-0.5,1c-0.2,0.3-0.5,0.5-0.9,0.6c-0.3,0.1-0.7,0.2-1.2,0.2
				c-0.4,0-0.8-0.1-1.2-0.2c-0.3-0.1-0.6-0.3-0.8-0.6c-0.2-0.3-0.4-0.6-0.5-1s-0.2-0.8-0.2-1.3c0-0.5,0.1-0.9,0.2-1.3
				c0.1-0.4,0.3-0.7,0.5-1c0.2-0.3,0.5-0.5,0.9-0.6c0.3-0.1,0.7-0.2,1.2-0.2c0.4,0,0.8,0.1,1.1,0.2c0.3,0.1,0.6,0.3,0.8,0.6
				c0.2,0.3,0.4,0.6,0.5,0.9C26.1,50.4,26.2,50.8,26.2,51.3z M25.3,51.4c0-0.3,0-0.7-0.1-0.9c-0.1-0.3-0.2-0.5-0.3-0.8
				c-0.1-0.2-0.3-0.4-0.6-0.5c-0.2-0.1-0.5-0.2-0.9-0.2c-0.3,0-0.6,0.1-0.9,0.2c-0.2,0.1-0.4,0.3-0.6,0.5c-0.1,0.2-0.3,0.5-0.3,0.8
				c-0.1,0.3-0.1,0.6-0.1,0.9c0,0.4,0,0.7,0.1,1c0.1,0.3,0.2,0.6,0.3,0.8s0.3,0.4,0.6,0.5c0.2,0.1,0.5,0.2,0.9,0.2
				c0.3,0,0.6-0.1,0.9-0.2c0.2-0.1,0.4-0.3,0.6-0.5c0.1-0.2,0.2-0.5,0.3-0.8C25.3,52,25.3,51.7,25.3,51.4z"/>
		</g>
	</g>
	<g>
		<g>
			<path d="M32.4,51.3c0,0.5-0.1,0.9-0.2,1.3c-0.1,0.4-0.3,0.7-0.5,1c-0.2,0.3-0.5,0.5-0.9,0.6c-0.3,0.1-0.7,0.2-1.2,0.2
				c-0.4,0-0.8-0.1-1.2-0.2c-0.3-0.1-0.6-0.3-0.8-0.6c-0.2-0.3-0.4-0.6-0.5-1s-0.2-0.8-0.2-1.3c0-0.5,0.1-0.9,0.2-1.3
				c0.1-0.4,0.3-0.7,0.5-1s0.5-0.5,0.9-0.6c0.3-0.1,0.7-0.2,1.2-0.2c0.4,0,0.8,0.1,1.1,0.2c0.3,0.1,0.6,0.3,0.8,0.6
				c0.2,0.3,0.4,0.6,0.5,0.9C32.4,50.4,32.4,50.8,32.4,51.3z M31.6,51.4c0-0.3,0-0.7-0.1-0.9c-0.1-0.3-0.2-0.5-0.3-0.8
				c-0.1-0.2-0.3-0.4-0.6-0.5c-0.2-0.1-0.5-0.2-0.9-0.2c-0.3,0-0.6,0.1-0.9,0.2c-0.2,0.1-0.4,0.3-0.6,0.5c-0.1,0.2-0.3,0.5-0.3,0.8
				c-0.1,0.3-0.1,0.6-0.1,0.9c0,0.4,0,0.7,0.1,1c0.1,0.3,0.2,0.6,0.3,0.8s0.3,0.4,0.6,0.5c0.2,0.1,0.5,0.2,0.9,0.2
				c0.3,0,0.6-0.1,0.9-0.2c0.2-0.1,0.4-0.3,0.6-0.5c0.1-0.2,0.2-0.5,0.3-0.8C31.5,52,31.6,51.7,31.6,51.4z"/>
		</g>
	</g>
	<g>
		<g>
			<path d="M37.6,54.2C37.6,54.3,37.6,54.3,37.6,54.2c0,0.1,0,0.1-0.1,0.1c0,0-0.1,0-0.1,0c-0.1,0-0.1,0-0.2,0c-0.1,0-0.2,0-0.3,0
				c-0.1,0-0.1,0-0.2-0.1c0,0-0.1-0.1-0.1-0.1l-2.2-3v3c0,0,0,0,0,0.1c0,0,0,0-0.1,0c0,0-0.1,0-0.1,0c-0.1,0-0.1,0-0.2,0
				c-0.1,0-0.1,0-0.2,0c-0.1,0-0.1,0-0.1,0c0,0-0.1,0-0.1,0c0,0,0,0,0-0.1v-5.7c0,0,0,0,0-0.1c0,0,0,0,0.1,0c0,0,0.1,0,0.1,0
				c0.1,0,0.1,0,0.2,0c0.1,0,0.1,0,0.2,0c0.1,0,0.1,0,0.1,0c0,0,0.1,0,0.1,0c0,0,0,0,0,0.1v2.7l2.1-2.7c0,0,0-0.1,0.1-0.1
				c0,0,0.1,0,0.1,0c0,0,0.1,0,0.1,0c0.1,0,0.1,0,0.2,0c0.1,0,0.1,0,0.2,0c0,0,0.1,0,0.1,0c0,0,0,0,0.1,0c0,0,0,0,0,0.1
				c0,0,0,0.1,0,0.1c0,0-0.1,0.1-0.1,0.2l-2,2.4l2.1,2.8C37.5,54.1,37.5,54.1,37.6,54.2C37.6,54.2,37.6,54.2,37.6,54.2z"/>
		</g>
	</g>
</g>
<g>
	<g>
		<g>
			<path d="M14.6,384.5c0,0.3,0,0.6-0.1,0.8c-0.1,0.2-0.2,0.4-0.4,0.6c-0.2,0.2-0.4,0.3-0.7,0.4c-0.3,0.1-0.6,0.1-1,0.1h-0.7v2.2
				c0,0,0,0,0,0.1c0,0,0,0-0.1,0c0,0-0.1,0-0.1,0c-0.1,0-0.1,0-0.2,0s-0.1,0-0.2,0c-0.1,0-0.1,0-0.1,0c0,0-0.1,0-0.1,0s0,0,0-0.1
				v-5.5c0-0.1,0-0.2,0.1-0.3c0.1-0.1,0.1-0.1,0.2-0.1h1.3c0.1,0,0.3,0,0.4,0c0.1,0,0.3,0,0.4,0.1c0.2,0,0.3,0.1,0.5,0.2
				c0.2,0.1,0.3,0.2,0.4,0.4c0.1,0.1,0.2,0.3,0.3,0.5C14.5,384.1,14.6,384.3,14.6,384.5z M13.7,384.5c0-0.2,0-0.4-0.1-0.6
				c-0.1-0.2-0.2-0.3-0.3-0.4c-0.1-0.1-0.3-0.1-0.4-0.2c-0.1,0-0.3,0-0.4,0h-0.7v2.4h0.7c0.2,0,0.4,0,0.6-0.1
				c0.2-0.1,0.3-0.1,0.4-0.3c0.1-0.1,0.2-0.2,0.2-0.4C13.7,384.9,13.7,384.7,13.7,384.5z"/>
		</g>
	</g>
	<g>
		<g>
			<path d="M20.8,385.6c0,0.5-0.1,0.9-0.2,1.3c-0.1,0.4-0.3,0.7-0.5,1c-0.2,0.3-0.5,0.5-0.9,0.6c-0.3,0.1-0.7,0.2-1.2,0.2
				c-0.4,0-0.8-0.1-1.2-0.2c-0.3-0.1-0.6-0.3-0.8-0.6c-0.2-0.3-0.4-0.6-0.5-0.9c-0.1-0.4-0.2-0.8-0.2-1.3c0-0.5,0.1-0.9,0.2-1.3
				s0.3-0.7,0.5-1c0.2-0.3,0.5-0.5,0.9-0.6c0.3-0.1,0.7-0.2,1.2-0.2c0.4,0,0.8,0.1,1.1,0.2c0.3,0.1,0.6,0.3,0.8,0.6
				c0.2,0.3,0.4,0.6,0.5,0.9C20.7,384.7,20.8,385.2,20.8,385.6z M19.9,385.7c0-0.3,0-0.7-0.1-0.9c-0.1-0.3-0.2-0.5-0.3-0.8
				c-0.1-0.2-0.3-0.4-0.6-0.5c-0.2-0.1-0.5-0.2-0.9-0.2c-0.3,0-0.6,0.1-0.9,0.2c-0.2,0.1-0.4,0.3-0.6,0.5c-0.1,0.2-0.3,0.5-0.3,0.8
				c-0.1,0.3-0.1,0.6-0.1,0.9c0,0.4,0,0.7,0.1,1c0.1,0.3,0.2,0.5,0.3,0.8c0.1,0.2,0.3,0.4,0.6,0.5c0.2,0.1,0.5,0.2,0.9,0.2
				c0.3,0,0.6-0.1,0.9-0.2c0.2-0.1,0.4-0.3,0.6-0.5c0.1-0.2,0.2-0.5,0.3-0.8C19.9,386.3,19.9,386,19.9,385.7z"/>
		</g>
	</g>
	<g>
		<g>
			<path d="M25.2,387c0,0.3-0.1,0.5-0.2,0.7c-0.1,0.2-0.2,0.4-0.4,0.6c-0.2,0.2-0.4,0.3-0.6,0.3c-0.2,0.1-0.5,0.1-0.8,0.1
				c-0.2,0-0.4,0-0.6-0.1c-0.2,0-0.3-0.1-0.5-0.1c-0.1,0-0.2-0.1-0.3-0.2c-0.1-0.1-0.2-0.1-0.2-0.1c0,0-0.1-0.1-0.1-0.1
				c0-0.1,0-0.1,0-0.2c0-0.1,0-0.1,0-0.2c0,0,0-0.1,0-0.1c0,0,0,0,0-0.1c0,0,0,0,0.1,0c0,0,0.1,0,0.2,0.1c0.1,0.1,0.2,0.1,0.3,0.2
				c0.1,0.1,0.3,0.1,0.4,0.2c0.2,0.1,0.4,0.1,0.6,0.1c0.2,0,0.3,0,0.5-0.1c0.1,0,0.3-0.1,0.4-0.2c0.1-0.1,0.2-0.2,0.2-0.3
				c0.1-0.1,0.1-0.3,0.1-0.4c0-0.2,0-0.3-0.1-0.4s-0.2-0.2-0.3-0.3c-0.1-0.1-0.3-0.2-0.4-0.2c-0.2-0.1-0.3-0.2-0.5-0.2
				c-0.2-0.1-0.3-0.2-0.5-0.3c-0.2-0.1-0.3-0.2-0.4-0.3c-0.1-0.1-0.2-0.3-0.3-0.5c-0.1-0.2-0.1-0.4-0.1-0.6c0-0.2,0-0.5,0.1-0.7
				c0.1-0.2,0.2-0.4,0.4-0.5c0.2-0.1,0.4-0.2,0.6-0.3c0.2-0.1,0.5-0.1,0.7-0.1c0.1,0,0.3,0,0.4,0c0.1,0,0.3,0.1,0.4,0.1
				c0.1,0,0.2,0.1,0.3,0.1c0.1,0,0.2,0.1,0.2,0.1c0,0,0,0.1,0.1,0.1c0,0,0,0,0,0.1c0,0,0,0.1,0,0.1c0,0,0,0.1,0,0.1
				c0,0.1,0,0.1,0,0.1c0,0,0,0.1,0,0.1c0,0,0,0.1,0,0.1c0,0,0,0-0.1,0c0,0-0.1,0-0.2-0.1s-0.2-0.1-0.3-0.1c-0.1-0.1-0.2-0.1-0.4-0.1
				c-0.1,0-0.3-0.1-0.5-0.1c-0.2,0-0.3,0-0.4,0.1c-0.1,0-0.2,0.1-0.3,0.2c-0.1,0.1-0.1,0.2-0.2,0.3c0,0.1-0.1,0.2-0.1,0.3
				c0,0.2,0,0.3,0.1,0.4c0.1,0.1,0.2,0.2,0.3,0.3c0.1,0.1,0.3,0.2,0.4,0.3c0.2,0.1,0.3,0.2,0.5,0.2c0.2,0.1,0.3,0.2,0.5,0.3
				c0.2,0.1,0.3,0.2,0.4,0.3c0.1,0.1,0.2,0.3,0.3,0.5C25.2,386.6,25.2,386.8,25.2,387z"/>
		</g>
	</g>
	<g>
		<g>
			<path d="M27.2,388.6C27.2,388.6,27.2,388.6,27.2,388.6c0,0.1-0.1,0.1-0.1,0.1c0,0-0.1,0-0.1,0c-0.1,0-0.1,0-0.2,0
				c-0.1,0-0.1,0-0.2,0c-0.1,0-0.1,0-0.1,0c0,0-0.1,0-0.1,0s0,0,0-0.1v-5.7c0,0,0,0,0-0.1c0,0,0,0,0.1,0c0,0,0.1,0,0.1,0
				c0.1,0,0.1,0,0.2,0c0.1,0,0.1,0,0.2,0c0.1,0,0.1,0,0.1,0c0,0,0.1,0,0.1,0s0,0,0,0.1V388.6z"/>
		</g>
	</g>
	<g>
		<g>
			<path d="M31.4,389c0.1,0.1,0.1,0.3,0.1,0.3c0,0.1,0,0.2,0,0.3c0,0.1,0,0.2-0.1,0.3c0,0.1-0.1,0.2-0.2,0.2
				c-0.1,0.1-0.2,0.1-0.3,0.1c-0.1,0-0.2,0.1-0.4,0.1c-0.1,0-0.2,0-0.3,0c-0.1,0-0.2,0-0.2,0c-0.1,0-0.1,0-0.1,0s0,0-0.1,0
				s0,0,0-0.1c0,0,0-0.1,0-0.1c0-0.1,0-0.2,0-0.2c0,0,0.1,0,0.1,0h0.6c0.1,0,0.2,0,0.2-0.1c0.1,0,0.1-0.1,0.1-0.2c0,0,0-0.1,0-0.2
				c0-0.1,0-0.1-0.1-0.2l-0.2-0.5c-0.3,0-0.5-0.1-0.8-0.2c-0.3-0.1-0.5-0.3-0.7-0.5c-0.2-0.2-0.4-0.5-0.5-0.9
				c-0.1-0.4-0.2-0.8-0.2-1.3c0-0.5,0.1-0.9,0.2-1.3s0.3-0.7,0.5-1c0.2-0.3,0.5-0.5,0.8-0.6s0.7-0.2,1.1-0.2c0.2,0,0.3,0,0.5,0
				c0.2,0,0.3,0.1,0.5,0.1s0.3,0.1,0.4,0.2c0.1,0.1,0.2,0.1,0.2,0.2c0,0,0.1,0.1,0.1,0.1c0,0,0,0,0,0.1c0,0,0,0.1,0,0.1
				c0,0,0,0.1,0,0.1c0,0.1,0,0.1,0,0.2c0,0,0,0.1,0,0.1c0,0,0,0.1,0,0.1c0,0,0,0-0.1,0c0,0-0.1,0-0.2-0.1c-0.1-0.1-0.2-0.1-0.3-0.2
				c-0.1-0.1-0.3-0.1-0.4-0.2c-0.2-0.1-0.4-0.1-0.6-0.1c-0.3,0-0.5,0.1-0.7,0.2c-0.2,0.1-0.4,0.3-0.6,0.5c-0.2,0.2-0.3,0.5-0.4,0.8
				c-0.1,0.3-0.1,0.6-0.1,1c0,0.4,0,0.7,0.1,1c0.1,0.3,0.2,0.5,0.4,0.7c0.2,0.2,0.3,0.3,0.6,0.4c0.2,0.1,0.5,0.1,0.8,0.1
				c0.2,0,0.4,0,0.6-0.1c0.2-0.1,0.3-0.1,0.5-0.2c0.1-0.1,0.2-0.1,0.3-0.2c0.1-0.1,0.1-0.1,0.2-0.1c0,0,0,0,0.1,0c0,0,0,0,0,0.1
				c0,0,0,0.1,0,0.1c0,0,0,0.1,0,0.2c0,0.1,0,0.1,0,0.1c0,0,0,0.1,0,0.1c0,0,0,0.1,0,0.1s0,0-0.1,0.1s-0.1,0.1-0.2,0.1
				c-0.1,0.1-0.2,0.1-0.4,0.2c-0.1,0.1-0.3,0.1-0.4,0.1c-0.1,0-0.3,0.1-0.4,0.1L31.4,389z"/>
		</g>
	</g>
	<g>
		<g>
			<path d="M38.3,388.4c0,0.1,0,0.1,0,0.2c0,0,0,0.1,0,0.1c0,0-0.1,0-0.1,0c-0.1,0-0.1,0-0.2,0c-0.1,0-0.2,0-0.2,0
				c-0.1,0-0.1,0-0.1,0c0,0-0.1,0-0.1,0c0,0,0,0,0-0.1l-0.5-1.5h-2.5l-0.5,1.4c0,0,0,0.1,0,0.1c0,0,0,0-0.1,0.1c0,0-0.1,0-0.1,0
				c-0.1,0-0.1,0-0.2,0c-0.1,0-0.2,0-0.2,0c-0.1,0-0.1,0-0.1,0c0,0,0-0.1,0-0.1c0,0,0-0.1,0-0.2l2-5.5c0,0,0-0.1,0-0.1
				c0,0,0,0,0.1-0.1c0,0,0.1,0,0.1,0c0.1,0,0.1,0,0.2,0c0.1,0,0.2,0,0.2,0c0.1,0,0.1,0,0.2,0s0.1,0,0.1,0.1c0,0,0,0.1,0.1,0.1
				L38.3,388.4z M36.8,381.3C36.8,381.2,36.8,381.2,36.8,381.3c0.1-0.1,0.2-0.1,0.3-0.1c0.1,0,0.2,0,0.2,0c0,0,0.1,0.1,0.1,0.1
				c0,0.3-0.1,0.5-0.2,0.7c-0.2,0.2-0.4,0.2-0.7,0.2c-0.2,0-0.3,0-0.4-0.1c-0.1-0.1-0.2-0.1-0.3-0.2c-0.1-0.1-0.2-0.1-0.3-0.2
				c-0.1-0.1-0.2-0.1-0.3-0.1c-0.1,0-0.2,0-0.3,0.1s-0.1,0.2-0.1,0.3c0,0,0,0,0,0.1c0,0,0,0-0.1,0c0,0-0.1,0-0.1,0c0,0-0.1,0-0.1,0
				c-0.1,0-0.2,0-0.2,0c0,0-0.1-0.1-0.1-0.1c0-0.1,0-0.3,0.1-0.4c0-0.1,0.1-0.2,0.2-0.3c0.1-0.1,0.2-0.1,0.3-0.2
				c0.1,0,0.2-0.1,0.4-0.1c0.2,0,0.3,0,0.4,0.1c0.1,0.1,0.2,0.1,0.3,0.2c0.1,0.1,0.2,0.1,0.3,0.2c0.1,0.1,0.2,0.1,0.3,0.1
				c0.1,0,0.2,0,0.3-0.1C36.8,381.5,36.8,381.4,36.8,381.3z M35.7,383.5L35.7,383.5l-1,3h2.1L35.7,383.5z"/>
		</g>
	</g>
	<g>
		<g>
			<path d="M44.2,385.6c0,0.5-0.1,0.9-0.2,1.3s-0.3,0.7-0.5,1c-0.2,0.3-0.5,0.5-0.9,0.6c-0.3,0.1-0.7,0.2-1.2,0.2
				c-0.4,0-0.8-0.1-1.2-0.2c-0.3-0.1-0.6-0.3-0.8-0.6c-0.2-0.3-0.4-0.6-0.5-0.9c-0.1-0.4-0.2-0.8-0.2-1.3c0-0.5,0.1-0.9,0.2-1.3
				s0.3-0.7,0.5-1c0.2-0.3,0.5-0.5,0.9-0.6c0.3-0.1,0.7-0.2,1.2-0.2c0.4,0,0.8,0.1,1.1,0.2c0.3,0.1,0.6,0.3,0.8,0.6
				c0.2,0.3,0.4,0.6,0.5,0.9C44.1,384.7,44.2,385.2,44.2,385.6z M43.3,385.7c0-0.3,0-0.7-0.1-0.9c-0.1-0.3-0.2-0.5-0.3-0.8
				c-0.1-0.2-0.3-0.4-0.6-0.5c-0.2-0.1-0.5-0.2-0.9-0.2c-0.3,0-0.6,0.1-0.9,0.2c-0.2,0.1-0.4,0.3-0.6,0.5c-0.1,0.2-0.3,0.5-0.3,0.8
				c-0.1,0.3-0.1,0.6-0.1,0.9c0,0.4,0,0.7,0.1,1c0.1,0.3,0.2,0.5,0.3,0.8c0.1,0.2,0.3,0.4,0.6,0.5c0.2,0.1,0.5,0.2,0.9,0.2
				c0.3,0,0.6-0.1,0.9-0.2c0.2-0.1,0.4-0.3,0.6-0.5c0.1-0.2,0.2-0.5,0.3-0.8C43.3,386.3,43.3,386,43.3,385.7z"/>
		</g>
	</g>
</g>
<g>
	<g>
		<g>
			<path d="M11.5,474.6C11.5,474.6,11.5,474.7,11.5,474.6c0,0.1-0.1,0.1-0.1,0.1c0,0-0.1,0-0.1,0c-0.1,0-0.1,0-0.2,0
				c-0.1,0-0.1,0-0.2,0c0,0-0.1,0-0.1,0c0,0-0.1,0-0.1,0c0,0,0,0,0-0.1V472H8v2.6c0,0,0,0,0,0.1c0,0,0,0-0.1,0c0,0-0.1,0-0.1,0
				c-0.1,0-0.1,0-0.2,0c-0.1,0-0.1,0-0.2,0c-0.1,0-0.1,0-0.1,0c0,0-0.1,0-0.1,0c0,0,0,0,0-0.1v-5.7c0,0,0,0,0-0.1c0,0,0,0,0.1,0
				c0,0,0.1,0,0.1,0c0.1,0,0.1,0,0.2,0c0.1,0,0.1,0,0.2,0c0.1,0,0.1,0,0.1,0c0,0,0.1,0,0.1,0c0,0,0,0,0,0.1v2.4h2.7v-2.4
				c0,0,0,0,0-0.1c0,0,0,0,0.1,0c0,0,0.1,0,0.1,0c0,0,0.1,0,0.2,0c0.1,0,0.1,0,0.2,0c0.1,0,0.1,0,0.1,0c0,0,0.1,0,0.1,0
				c0,0,0,0,0,0.1V474.6z"/>
		</g>
	</g>
	<g>
		<g>
			<path d="M13.9,474.6C13.9,474.6,13.9,474.7,13.9,474.6c0,0.1-0.1,0.1-0.1,0.1c0,0-0.1,0-0.1,0c-0.1,0-0.1,0-0.2,0
				c-0.1,0-0.1,0-0.2,0c-0.1,0-0.1,0-0.1,0c0,0-0.1,0-0.1,0c0,0,0,0,0-0.1v-5.7c0,0,0,0,0-0.1c0,0,0,0,0.1,0c0,0,0.1,0,0.1,0
				c0.1,0,0.1,0,0.2,0c0.1,0,0.1,0,0.2,0c0.1,0,0.1,0,0.1,0c0,0,0.1,0,0.1,0c0,0,0,0,0,0.1V474.6z"/>
		</g>
	</g>
	<g>
		<g>
			<path d="M18.7,473.1c0,0.3-0.1,0.5-0.2,0.7c-0.1,0.2-0.2,0.4-0.4,0.6c-0.2,0.2-0.4,0.3-0.6,0.3c-0.2,0.1-0.5,0.1-0.8,0.1
				c-0.2,0-0.4,0-0.6-0.1c-0.2,0-0.3-0.1-0.5-0.1c-0.1,0-0.2-0.1-0.3-0.2c-0.1-0.1-0.2-0.1-0.2-0.1c0,0-0.1-0.1-0.1-0.1
				c0-0.1,0-0.1,0-0.2c0-0.1,0-0.1,0-0.2c0,0,0-0.1,0-0.1c0,0,0,0,0-0.1c0,0,0,0,0.1,0c0,0,0.1,0,0.2,0.1c0.1,0.1,0.2,0.1,0.3,0.2
				c0.1,0.1,0.3,0.1,0.4,0.2c0.2,0.1,0.4,0.1,0.6,0.1c0.2,0,0.3,0,0.5-0.1c0.1,0,0.3-0.1,0.4-0.2c0.1-0.1,0.2-0.2,0.2-0.3
				c0.1-0.1,0.1-0.3,0.1-0.4c0-0.2,0-0.3-0.1-0.4s-0.2-0.2-0.3-0.3c-0.1-0.1-0.3-0.2-0.4-0.2c-0.2-0.1-0.3-0.2-0.5-0.2
				c-0.2-0.1-0.3-0.2-0.5-0.3c-0.2-0.1-0.3-0.2-0.4-0.3c-0.1-0.1-0.2-0.3-0.3-0.5c-0.1-0.2-0.1-0.4-0.1-0.6c0-0.2,0-0.5,0.1-0.7
				c0.1-0.2,0.2-0.4,0.4-0.5c0.2-0.1,0.4-0.2,0.6-0.3c0.2-0.1,0.5-0.1,0.7-0.1c0.1,0,0.3,0,0.4,0c0.1,0,0.3,0.1,0.4,0.1
				c0.1,0,0.2,0.1,0.3,0.1c0.1,0,0.2,0.1,0.2,0.1c0,0,0,0.1,0.1,0.1c0,0,0,0,0,0.1c0,0,0,0.1,0,0.1c0,0,0,0.1,0,0.1
				c0,0.1,0,0.1,0,0.1c0,0,0,0.1,0,0.1c0,0,0,0.1,0,0.1c0,0,0,0-0.1,0c0,0-0.1,0-0.2-0.1c-0.1,0-0.2-0.1-0.3-0.1
				c-0.1-0.1-0.2-0.1-0.4-0.1c-0.1,0-0.3-0.1-0.5-0.1c-0.2,0-0.3,0-0.4,0.1c-0.1,0-0.2,0.1-0.3,0.2s-0.1,0.2-0.2,0.3
				c0,0.1-0.1,0.2-0.1,0.3c0,0.2,0,0.3,0.1,0.4c0.1,0.1,0.2,0.2,0.3,0.3c0.1,0.1,0.3,0.2,0.4,0.3c0.2,0.1,0.3,0.2,0.5,0.2
				c0.2,0.1,0.3,0.2,0.5,0.3c0.2,0.1,0.3,0.2,0.4,0.3c0.1,0.1,0.2,0.3,0.3,0.5C18.7,472.6,18.7,472.8,18.7,473.1z"/>
		</g>
	</g>
	<g>
		<g>
			<path d="M23.5,469.1c0,0.1,0,0.1,0,0.2c0,0,0,0.1,0,0.1c0,0,0,0-0.1,0.1c0,0,0,0-0.1,0h-1.7v5.2c0,0,0,0,0,0.1c0,0,0,0-0.1,0
				c0,0-0.1,0-0.1,0c-0.1,0-0.1,0-0.2,0c-0.1,0-0.1,0-0.2,0c-0.1,0-0.1,0-0.1,0c0,0-0.1,0-0.1,0c0,0,0,0,0-0.1v-5.2h-1.7
				c0,0,0,0-0.1,0c0,0,0,0,0-0.1c0,0,0-0.1,0-0.1c0,0,0-0.1,0-0.2s0-0.1,0-0.2c0,0,0-0.1,0-0.1c0,0,0,0,0-0.1c0,0,0,0,0.1,0h4.2
				c0,0,0,0,0.1,0c0,0,0,0,0.1,0.1c0,0,0,0.1,0,0.1C23.5,469,23.5,469,23.5,469.1z"/>
		</g>
	</g>
	<g>
		<g>
			<path d="M29.1,471.7c0,0.5-0.1,0.9-0.2,1.3c-0.1,0.4-0.3,0.7-0.5,1c-0.2,0.3-0.5,0.5-0.9,0.6c-0.3,0.1-0.7,0.2-1.2,0.2
				c-0.4,0-0.8-0.1-1.2-0.2c-0.3-0.1-0.6-0.3-0.8-0.6c-0.2-0.3-0.4-0.6-0.5-0.9c-0.1-0.4-0.2-0.8-0.2-1.3c0-0.5,0.1-0.9,0.2-1.3
				c0.1-0.4,0.3-0.7,0.5-1c0.2-0.3,0.5-0.5,0.9-0.6c0.3-0.1,0.7-0.2,1.2-0.2c0.4,0,0.8,0.1,1.1,0.2c0.3,0.1,0.6,0.3,0.8,0.6
				c0.2,0.3,0.4,0.6,0.5,0.9C29.1,470.8,29.1,471.2,29.1,471.7z M28.3,471.7c0-0.3,0-0.7-0.1-0.9c-0.1-0.3-0.2-0.5-0.3-0.8
				c-0.1-0.2-0.3-0.4-0.6-0.5c-0.2-0.1-0.5-0.2-0.9-0.2c-0.3,0-0.6,0.1-0.9,0.2c-0.2,0.1-0.4,0.3-0.6,0.5c-0.1,0.2-0.3,0.5-0.3,0.8
				c-0.1,0.3-0.1,0.6-0.1,0.9c0,0.4,0,0.7,0.1,1c0.1,0.3,0.2,0.5,0.3,0.8c0.1,0.2,0.3,0.4,0.6,0.5c0.2,0.1,0.5,0.2,0.9,0.2
				c0.3,0,0.6-0.1,0.9-0.2c0.2-0.1,0.4-0.3,0.6-0.5c0.1-0.2,0.2-0.5,0.3-0.8C28.2,472.4,28.3,472.1,28.3,471.7z M26.9,467.1
				C27,467.1,27,467,26.9,467.1c0.1-0.1,0.2-0.1,0.2-0.1c0,0,0.1,0,0.1,0c0.1,0,0.1,0,0.2,0c0.1,0,0.2,0,0.2,0c0.1,0,0.1,0,0.1,0.1
				c0,0,0,0,0,0.1c0,0,0,0.1-0.1,0.1l-1,1c0,0-0.1,0.1-0.1,0.1c0,0-0.1,0-0.1,0c0,0-0.1,0-0.1,0c0,0-0.1,0-0.2,0c-0.1,0-0.1,0-0.2,0
				c0,0-0.1,0-0.1,0c0,0,0,0,0-0.1c0,0,0-0.1,0.1-0.1L26.9,467.1z"/>
		</g>
	</g>
	<g>
		<g>
			<path d="M34.3,474.6C34.3,474.6,34.3,474.7,34.3,474.6c0,0.1,0,0.1-0.1,0.1c0,0-0.1,0-0.1,0c-0.1,0-0.1,0-0.2,0
				c-0.1,0-0.1,0-0.2,0c-0.1,0-0.1,0-0.1,0c0,0-0.1,0-0.1-0.1c0,0,0-0.1,0-0.1l-0.5-1.4c-0.1-0.2-0.1-0.3-0.2-0.4
				c-0.1-0.1-0.2-0.2-0.2-0.3c-0.1-0.1-0.2-0.2-0.3-0.2c-0.1-0.1-0.3-0.1-0.5-0.1h-0.5v2.5c0,0,0,0,0,0.1c0,0,0,0-0.1,0
				c0,0-0.1,0-0.1,0c-0.1,0-0.1,0-0.2,0s-0.1,0-0.2,0c-0.1,0-0.1,0-0.1,0c0,0-0.1,0-0.1,0c0,0,0,0,0-0.1v-5.5c0-0.1,0-0.2,0.1-0.3
				c0.1,0,0.1-0.1,0.2-0.1h1.3c0.2,0,0.3,0,0.4,0c0.1,0,0.2,0,0.3,0c0.2,0,0.4,0.1,0.6,0.2c0.2,0.1,0.3,0.2,0.4,0.3
				c0.1,0.1,0.2,0.3,0.3,0.5c0.1,0.2,0.1,0.4,0.1,0.6c0,0.2,0,0.4-0.1,0.5c-0.1,0.2-0.1,0.3-0.2,0.4c-0.1,0.1-0.2,0.2-0.4,0.3
				c-0.1,0.1-0.3,0.2-0.5,0.2c0.1,0,0.2,0.1,0.3,0.2c0.1,0.1,0.2,0.1,0.2,0.2c0.1,0.1,0.1,0.2,0.2,0.3c0.1,0.1,0.1,0.3,0.2,0.4
				l0.5,1.3c0,0.1,0.1,0.2,0.1,0.2C34.3,474.6,34.3,474.6,34.3,474.6z M33.2,470.4c0-0.2-0.1-0.4-0.2-0.6c-0.1-0.2-0.3-0.3-0.5-0.3
				c-0.1,0-0.2,0-0.3,0c-0.1,0-0.2,0-0.4,0h-0.7v2h0.8c0.2,0,0.4,0,0.5-0.1c0.2-0.1,0.3-0.1,0.4-0.2c0.1-0.1,0.2-0.2,0.2-0.3
				C33.1,470.7,33.2,470.6,33.2,470.4z"/>
		</g>
	</g>
	<g>
		<g>
			<path d="M36.3,474.6C36.3,474.6,36.3,474.7,36.3,474.6c0,0.1-0.1,0.1-0.1,0.1c0,0-0.1,0-0.1,0c-0.1,0-0.1,0-0.2,0
				c-0.1,0-0.1,0-0.2,0c-0.1,0-0.1,0-0.1,0c0,0-0.1,0-0.1,0c0,0,0,0,0-0.1v-5.7c0,0,0,0,0-0.1c0,0,0,0,0.1,0c0,0,0.1,0,0.1,0
				c0.1,0,0.1,0,0.2,0c0.1,0,0.1,0,0.2,0c0.1,0,0.1,0,0.1,0c0,0,0.1,0,0.1,0c0,0,0,0,0,0.1V474.6z"/>
		</g>
	</g>
	<g>
		<g>
			<path d="M41.9,473.9c0,0.1,0,0.1,0,0.1c0,0,0,0.1,0,0.1c0,0,0,0.1,0,0.1c0,0,0,0-0.1,0.1s-0.1,0.1-0.2,0.1
				c-0.1,0.1-0.2,0.1-0.4,0.2c-0.1,0.1-0.3,0.1-0.5,0.2c-0.2,0-0.4,0.1-0.6,0.1c-0.4,0-0.7-0.1-1-0.2c-0.3-0.1-0.6-0.3-0.8-0.6
				c-0.2-0.3-0.4-0.6-0.5-0.9c-0.1-0.4-0.2-0.8-0.2-1.3c0-0.5,0.1-0.9,0.2-1.3s0.3-0.7,0.5-1c0.2-0.3,0.5-0.5,0.8-0.6
				c0.3-0.1,0.7-0.2,1.1-0.2c0.2,0,0.3,0,0.5,0c0.2,0,0.3,0.1,0.5,0.1s0.3,0.1,0.4,0.2c0.1,0.1,0.2,0.1,0.2,0.2c0,0,0.1,0.1,0.1,0.1
				c0,0,0,0,0,0.1c0,0,0,0.1,0,0.1c0,0,0,0.1,0,0.1c0,0.1,0,0.1,0,0.2s0,0.1,0,0.1c0,0,0,0.1,0,0.1c0,0,0,0-0.1,0c0,0-0.1,0-0.2-0.1
				c-0.1-0.1-0.2-0.1-0.3-0.2c-0.1-0.1-0.3-0.1-0.4-0.2c-0.2-0.1-0.4-0.1-0.6-0.1c-0.3,0-0.5,0.1-0.7,0.2c-0.2,0.1-0.4,0.3-0.6,0.5
				s-0.3,0.5-0.4,0.8c-0.1,0.3-0.1,0.6-0.1,1c0,0.4,0,0.7,0.1,1c0.1,0.3,0.2,0.5,0.4,0.7c0.2,0.2,0.3,0.3,0.6,0.4
				c0.2,0.1,0.5,0.1,0.8,0.1c0.2,0,0.4,0,0.6-0.1c0.2-0.1,0.3-0.1,0.5-0.2c0.1-0.1,0.2-0.1,0.3-0.2s0.1-0.1,0.2-0.1c0,0,0,0,0.1,0
				c0,0,0,0,0,0.1c0,0,0,0.1,0,0.1C41.9,473.8,41.9,473.8,41.9,473.9z"/>
		</g>
	</g>
	<g>
		<g>
			<path d="M47.8,471.7c0,0.5-0.1,0.9-0.2,1.3c-0.1,0.4-0.3,0.7-0.5,1c-0.2,0.3-0.5,0.5-0.9,0.6c-0.3,0.1-0.7,0.2-1.2,0.2
				c-0.4,0-0.8-0.1-1.2-0.2c-0.3-0.1-0.6-0.3-0.8-0.6c-0.2-0.3-0.4-0.6-0.5-0.9c-0.1-0.4-0.2-0.8-0.2-1.3c0-0.5,0.1-0.9,0.2-1.3
				c0.1-0.4,0.3-0.7,0.5-1c0.2-0.3,0.5-0.5,0.9-0.6c0.3-0.1,0.7-0.2,1.2-0.2c0.4,0,0.8,0.1,1.1,0.2c0.3,0.1,0.6,0.3,0.8,0.6
				c0.2,0.3,0.4,0.6,0.5,0.9C47.8,470.8,47.8,471.2,47.8,471.7z M47,471.7c0-0.3,0-0.7-0.1-0.9c-0.1-0.3-0.2-0.5-0.3-0.8
				c-0.1-0.2-0.3-0.4-0.6-0.5c-0.2-0.1-0.5-0.2-0.9-0.2c-0.3,0-0.6,0.1-0.9,0.2c-0.2,0.1-0.4,0.3-0.6,0.5c-0.1,0.2-0.3,0.5-0.3,0.8
				c-0.1,0.3-0.1,0.6-0.1,0.9c0,0.4,0,0.7,0.1,1c0.1,0.3,0.2,0.5,0.3,0.8c0.1,0.2,0.3,0.4,0.6,0.5c0.2,0.1,0.5,0.2,0.9,0.2
				c0.3,0,0.6-0.1,0.9-0.2c0.2-0.1,0.4-0.3,0.6-0.5c0.1-0.2,0.2-0.5,0.3-0.8C47,472.4,47,472.1,47,471.7z"/>
		</g>
	</g>
</g>
<g>
	<g>
		<g>
			<path d="M9.6,284.5c0,0.5-0.1,0.9-0.2,1.3c-0.1,0.4-0.3,0.7-0.5,1c-0.2,0.3-0.5,0.5-0.9,0.6c-0.3,0.1-0.7,0.2-1.2,0.2
				c-0.4,0-0.8-0.1-1.2-0.2c-0.3-0.1-0.6-0.3-0.8-0.6c-0.2-0.3-0.4-0.6-0.5-0.9c-0.1-0.4-0.2-0.8-0.2-1.3c0-0.5,0.1-0.9,0.2-1.3
				c0.1-0.4,0.3-0.7,0.5-1c0.2-0.3,0.5-0.5,0.9-0.6c0.3-0.1,0.7-0.2,1.2-0.2c0.4,0,0.8,0.1,1.1,0.2c0.3,0.1,0.6,0.3,0.8,0.6
				c0.2,0.3,0.4,0.6,0.5,0.9C9.6,283.6,9.6,284,9.6,284.5z M8.8,284.5c0-0.3,0-0.7-0.1-0.9c-0.1-0.3-0.2-0.5-0.3-0.8
				c-0.1-0.2-0.3-0.4-0.6-0.5c-0.2-0.1-0.5-0.2-0.9-0.2c-0.3,0-0.6,0.1-0.9,0.2c-0.2,0.1-0.4,0.3-0.6,0.5c-0.1,0.2-0.3,0.5-0.3,0.8
				c-0.1,0.3-0.1,0.6-0.1,0.9c0,0.4,0,0.7,0.1,1c0.1,0.3,0.2,0.5,0.3,0.8c0.1,0.2,0.3,0.4,0.6,0.5c0.2,0.1,0.5,0.2,0.9,0.2
				c0.3,0,0.6-0.1,0.9-0.2c0.2-0.1,0.4-0.3,0.6-0.5c0.1-0.2,0.2-0.5,0.3-0.8C8.7,285.2,8.8,284.8,8.8,284.5z"/>
		</g>
	</g>
	<g>
		<g>
			<path d="M14.9,287.4C14.9,287.4,14.8,287.4,14.9,287.4c0,0.1,0,0.1-0.1,0.1c0,0-0.1,0-0.1,0c-0.1,0-0.1,0-0.2,0
				c-0.1,0-0.1,0-0.2,0c-0.1,0-0.1,0-0.1,0c0,0-0.1,0-0.1-0.1c0,0,0-0.1,0-0.1l-0.5-1.4c-0.1-0.2-0.1-0.3-0.2-0.4
				c-0.1-0.1-0.2-0.2-0.2-0.3c-0.1-0.1-0.2-0.2-0.3-0.2c-0.1-0.1-0.3-0.1-0.5-0.1h-0.5v2.5c0,0,0,0,0,0.1c0,0,0,0-0.1,0
				c0,0-0.1,0-0.1,0c-0.1,0-0.1,0-0.2,0s-0.1,0-0.2,0c-0.1,0-0.1,0-0.1,0c0,0-0.1,0-0.1,0c0,0,0,0,0-0.1v-5.5c0-0.1,0-0.2,0.1-0.3
				c0.1,0,0.1-0.1,0.2-0.1h1.3c0.2,0,0.3,0,0.4,0c0.1,0,0.2,0,0.3,0c0.2,0,0.4,0.1,0.6,0.2c0.2,0.1,0.3,0.2,0.4,0.3
				c0.1,0.1,0.2,0.3,0.3,0.5c0.1,0.2,0.1,0.4,0.1,0.6c0,0.2,0,0.4-0.1,0.5c-0.1,0.2-0.1,0.3-0.2,0.4c-0.1,0.1-0.2,0.2-0.4,0.3
				c-0.1,0.1-0.3,0.2-0.5,0.2c0.1,0,0.2,0.1,0.3,0.2c0.1,0.1,0.2,0.1,0.2,0.2c0.1,0.1,0.1,0.2,0.2,0.3c0.1,0.1,0.1,0.3,0.2,0.4
				l0.5,1.3c0,0.1,0.1,0.2,0.1,0.2C14.8,287.3,14.9,287.4,14.9,287.4z M13.7,283.2c0-0.2-0.1-0.4-0.2-0.6c-0.1-0.2-0.3-0.3-0.5-0.3
				c-0.1,0-0.2,0-0.3,0c-0.1,0-0.2,0-0.4,0h-0.7v2h0.8c0.2,0,0.4,0,0.5-0.1c0.2-0.1,0.3-0.1,0.4-0.2c0.1-0.1,0.2-0.2,0.2-0.3
				C13.6,283.5,13.7,283.4,13.7,283.2z"/>
		</g>
	</g>
	<g>
		<g>
			<path d="M20.6,284.4c0,0.5-0.1,1-0.2,1.4c-0.1,0.4-0.3,0.7-0.6,1c-0.3,0.3-0.6,0.4-0.9,0.6c-0.4,0.1-0.8,0.2-1.3,0.2h-1.3
				c-0.1,0-0.1,0-0.2-0.1c-0.1,0-0.1-0.1-0.1-0.3v-5.3c0-0.1,0-0.2,0.1-0.3c0.1,0,0.1-0.1,0.2-0.1h1.4c0.5,0,1,0.1,1.3,0.2
				c0.4,0.1,0.7,0.3,0.9,0.6c0.2,0.3,0.4,0.6,0.5,0.9C20.5,283.6,20.6,284,20.6,284.4z M19.8,284.5c0-0.3,0-0.6-0.1-0.9
				c-0.1-0.3-0.2-0.5-0.4-0.7c-0.2-0.2-0.4-0.4-0.6-0.5c-0.3-0.1-0.6-0.2-1-0.2h-0.8v4.6h0.8c0.4,0,0.7,0,1-0.1
				c0.3-0.1,0.5-0.2,0.7-0.4c0.2-0.2,0.3-0.4,0.4-0.7C19.7,285.2,19.8,284.9,19.8,284.5z"/>
		</g>
	</g>
	<g>
		<g>
			<path d="M25.1,287.2c0,0.1,0,0.1,0,0.1c0,0,0,0.1,0,0.1c0,0,0,0-0.1,0.1c0,0,0,0-0.1,0h-2.9c-0.1,0-0.1,0-0.2-0.1
				c-0.1,0-0.1-0.1-0.1-0.3v-5.3c0-0.1,0-0.2,0.1-0.3c0.1,0,0.1-0.1,0.2-0.1h2.8c0,0,0,0,0.1,0s0,0,0,0.1c0,0,0,0.1,0,0.1
				c0,0,0,0.1,0,0.2c0,0.1,0,0.1,0,0.1c0,0,0,0.1,0,0.1c0,0,0,0,0,0.1c0,0,0,0-0.1,0h-2.3v1.9h2c0,0,0,0,0.1,0c0,0,0,0,0.1,0.1
				c0,0,0,0.1,0,0.1s0,0.1,0,0.2c0,0.1,0,0.1,0,0.1c0,0,0,0.1,0,0.1c0,0,0,0-0.1,0.1c0,0,0,0-0.1,0h-2v2.1H25c0,0,0,0,0.1,0
				c0,0,0,0,0.1,0.1c0,0,0,0.1,0,0.1C25.1,287.1,25.1,287.1,25.1,287.2z"/>
		</g>
	</g>
	<g>
		<g>
			<path d="M30.9,287.2c0,0.1,0,0.1,0,0.2c0,0,0,0.1-0.1,0.1s-0.1,0-0.1,0.1c0,0-0.1,0-0.1,0h-0.3c-0.1,0-0.2,0-0.2,0
				c-0.1,0-0.1,0-0.2-0.1c-0.1,0-0.1-0.1-0.2-0.2c-0.1-0.1-0.1-0.2-0.2-0.3l-1.8-3.4c-0.1-0.2-0.2-0.4-0.3-0.6
				c-0.1-0.2-0.2-0.4-0.3-0.6h0c0,0.2,0,0.4,0,0.7c0,0.2,0,0.5,0,0.7v3.6c0,0,0,0,0,0.1c0,0,0,0-0.1,0c0,0-0.1,0-0.1,0
				c-0.1,0-0.1,0-0.2,0c-0.1,0-0.1,0-0.2,0c-0.1,0-0.1,0-0.1,0c0,0-0.1,0-0.1,0c0,0,0,0,0-0.1v-5.5c0-0.1,0-0.2,0.1-0.3
				c0.1-0.1,0.1-0.1,0.2-0.1h0.4c0.1,0,0.2,0,0.2,0c0.1,0,0.1,0,0.2,0.1c0,0,0.1,0.1,0.1,0.1c0,0.1,0.1,0.1,0.1,0.2l1.4,2.6
				c0.1,0.2,0.2,0.3,0.2,0.5c0.1,0.2,0.2,0.3,0.2,0.5c0.1,0.1,0.1,0.3,0.2,0.4c0.1,0.1,0.1,0.3,0.2,0.4h0c0-0.2,0-0.5,0-0.8
				c0-0.3,0-0.5,0-0.8v-3.2c0,0,0,0,0-0.1c0,0,0,0,0.1,0c0,0,0.1,0,0.1,0c0.1,0,0.1,0,0.2,0c0.1,0,0.1,0,0.2,0c0.1,0,0.1,0,0.1,0
				c0,0,0.1,0,0.1,0c0,0,0,0,0,0.1V287.2z"/>
		</g>
	</g>
	<g>
		<g>
			<path d="M35.7,285.8c0,0.3-0.1,0.5-0.2,0.7c-0.1,0.2-0.2,0.4-0.4,0.6c-0.2,0.2-0.4,0.3-0.6,0.3s-0.5,0.1-0.8,0.1
				c-0.2,0-0.4,0-0.6-0.1c-0.2,0-0.3-0.1-0.5-0.1c-0.1,0-0.2-0.1-0.3-0.2c-0.1-0.1-0.2-0.1-0.2-0.1c0,0-0.1-0.1-0.1-0.1
				c0-0.1,0-0.1,0-0.2c0-0.1,0-0.1,0-0.2c0,0,0-0.1,0-0.1c0,0,0,0,0-0.1c0,0,0,0,0.1,0c0,0,0.1,0,0.2,0.1c0.1,0.1,0.2,0.1,0.3,0.2
				c0.1,0.1,0.3,0.1,0.4,0.2c0.2,0.1,0.4,0.1,0.6,0.1c0.2,0,0.3,0,0.5-0.1c0.1,0,0.3-0.1,0.4-0.2c0.1-0.1,0.2-0.2,0.2-0.3
				c0.1-0.1,0.1-0.3,0.1-0.4c0-0.2,0-0.3-0.1-0.4c-0.1-0.1-0.2-0.2-0.3-0.3c-0.1-0.1-0.3-0.2-0.4-0.2c-0.2-0.1-0.3-0.2-0.5-0.2
				c-0.2-0.1-0.3-0.2-0.5-0.3c-0.2-0.1-0.3-0.2-0.4-0.3c-0.1-0.1-0.2-0.3-0.3-0.5c-0.1-0.2-0.1-0.4-0.1-0.6c0-0.2,0-0.5,0.1-0.7
				c0.1-0.2,0.2-0.4,0.4-0.5c0.2-0.1,0.4-0.2,0.6-0.3c0.2-0.1,0.5-0.1,0.7-0.1c0.1,0,0.3,0,0.4,0c0.1,0,0.3,0.1,0.4,0.1
				c0.1,0,0.2,0.1,0.3,0.1c0.1,0,0.2,0.1,0.2,0.1c0,0,0,0.1,0.1,0.1c0,0,0,0,0,0.1c0,0,0,0.1,0,0.1c0,0,0,0.1,0,0.1
				c0,0.1,0,0.1,0,0.1c0,0,0,0.1,0,0.1c0,0,0,0.1,0,0.1c0,0,0,0-0.1,0c0,0-0.1,0-0.2-0.1c-0.1,0-0.2-0.1-0.3-0.1
				c-0.1-0.1-0.2-0.1-0.4-0.1c-0.1,0-0.3-0.1-0.5-0.1c-0.2,0-0.3,0-0.4,0.1c-0.1,0-0.2,0.1-0.3,0.2c-0.1,0.1-0.1,0.2-0.2,0.3
				S33,282.8,33,283c0,0.2,0,0.3,0.1,0.4c0.1,0.1,0.2,0.2,0.3,0.3c0.1,0.1,0.3,0.2,0.4,0.3c0.2,0.1,0.3,0.2,0.5,0.2
				c0.2,0.1,0.3,0.2,0.5,0.3c0.2,0.1,0.3,0.2,0.4,0.3c0.1,0.1,0.2,0.3,0.3,0.5C35.7,285.4,35.7,285.6,35.7,285.8z"/>
		</g>
	</g>
	<g>
		<g>
			<path d="M42.3,287.2c0,0.1,0,0.1,0,0.1c0,0,0,0.1,0,0.1c0,0,0,0-0.1,0.1c0,0,0,0-0.1,0h-2.9c-0.1,0-0.1,0-0.2-0.1
				c-0.1,0-0.1-0.1-0.1-0.3v-5.3c0-0.1,0-0.2,0.1-0.3c0.1,0,0.1-0.1,0.2-0.1h2.8c0,0,0,0,0.1,0c0,0,0,0,0,0.1c0,0,0,0.1,0,0.1
				c0,0,0,0.1,0,0.2c0,0.1,0,0.1,0,0.1c0,0,0,0.1,0,0.1c0,0,0,0,0,0.1c0,0,0,0-0.1,0h-2.3v1.9h2c0,0,0,0,0.1,0c0,0,0,0,0.1,0.1
				c0,0,0,0.1,0,0.1c0,0,0,0.1,0,0.2c0,0.1,0,0.1,0,0.1c0,0,0,0.1,0,0.1c0,0,0,0-0.1,0.1c0,0,0,0-0.1,0h-2v2.1h2.4c0,0,0,0,0.1,0
				c0,0,0,0,0.1,0.1c0,0,0,0.1,0,0.1C42.3,287.1,42.3,287.1,42.3,287.2z"/>
		</g>
	</g>
	<g>
		<g>
			<path d="M50.1,287.4C50.1,287.4,50.1,287.4,50.1,287.4c0,0.1-0.1,0.1-0.1,0.1c0,0-0.1,0-0.1,0c0,0-0.1,0-0.2,0
				c-0.1,0-0.1,0-0.2,0c-0.1,0-0.1,0-0.1,0c0,0-0.1,0-0.1,0c0,0,0,0,0-0.1v-5.2h0l-2.1,5.2c0,0,0,0,0,0.1s0,0-0.1,0c0,0-0.1,0-0.1,0
				c0,0-0.1,0-0.2,0c-0.1,0-0.1,0-0.2,0c0,0-0.1,0-0.1,0c0,0-0.1,0-0.1,0s0,0,0-0.1l-2-5.2h0v5.2c0,0,0,0,0,0.1c0,0,0,0-0.1,0
				c0,0-0.1,0-0.1,0c-0.1,0-0.1,0-0.2,0c-0.1,0-0.1,0-0.2,0c-0.1,0-0.1,0-0.1,0c0,0-0.1,0-0.1,0c0,0,0,0,0-0.1v-5.5
				c0-0.1,0-0.2,0.1-0.3c0.1-0.1,0.1-0.1,0.2-0.1h0.5c0.1,0,0.2,0,0.3,0c0.1,0,0.1,0,0.2,0.1s0.1,0.1,0.1,0.2c0,0.1,0.1,0.1,0.1,0.2
				l1.7,4.3h0l1.8-4.3c0-0.1,0.1-0.2,0.1-0.2c0-0.1,0.1-0.1,0.1-0.2c0,0,0.1-0.1,0.2-0.1c0.1,0,0.1,0,0.2,0h0.5c0,0,0.1,0,0.1,0
				c0,0,0.1,0,0.1,0.1c0,0,0.1,0.1,0.1,0.1c0,0,0,0.1,0,0.2V287.4z"/>
		</g>
	</g>
	<g>
		<g>
			<path d="M10.1,301.2c0,0.1,0,0.1,0,0.1c0,0,0,0.1,0,0.1c0,0,0,0-0.1,0.1c0,0,0,0-0.1,0H7c-0.1,0-0.1,0-0.2-0.1
				c-0.1,0-0.1-0.1-0.1-0.3v-5.3c0-0.1,0-0.2,0.1-0.3c0.1,0,0.1-0.1,0.2-0.1h2.8c0,0,0,0,0.1,0s0,0,0,0.1c0,0,0,0.1,0,0.1
				c0,0,0,0.1,0,0.2c0,0.1,0,0.1,0,0.1c0,0,0,0.1,0,0.1c0,0,0,0,0,0.1c0,0,0,0-0.1,0H7.5v1.9h2c0,0,0,0,0.1,0c0,0,0,0,0.1,0.1
				c0,0,0,0.1,0,0.1c0,0,0,0.1,0,0.2c0,0.1,0,0.1,0,0.1c0,0,0,0.1,0,0.1c0,0,0,0-0.1,0.1c0,0,0,0-0.1,0h-2v2.1h2.4c0,0,0,0,0.1,0
				c0,0,0,0,0.1,0.1c0,0,0,0.1,0,0.1C10.1,301.1,10.1,301.2,10.1,301.2z"/>
		</g>
	</g>
	<g>
		<g>
			<path d="M15.2,301.3c0,0.1,0.1,0.1,0.1,0.2c0,0,0,0.1,0,0.1c0,0-0.1,0-0.1,0c-0.1,0-0.1,0-0.3,0c-0.1,0-0.2,0-0.2,0
				c-0.1,0-0.1,0-0.1,0c0,0-0.1,0-0.1,0c0,0,0,0,0-0.1l-1.3-2.4l-1.3,2.4c0,0,0,0.1-0.1,0.1c0,0,0,0-0.1,0c0,0-0.1,0-0.1,0
				c-0.1,0-0.1,0-0.2,0c-0.1,0-0.2,0-0.2,0c-0.1,0-0.1,0-0.1,0c0,0,0-0.1,0-0.1c0,0,0-0.1,0.1-0.2l1.6-2.7l-1.6-2.7
				c0-0.1-0.1-0.1-0.1-0.2c0,0,0-0.1,0-0.1c0,0,0.1,0,0.1,0c0.1,0,0.1,0,0.3,0c0.1,0,0.2,0,0.2,0c0.1,0,0.1,0,0.1,0c0,0,0.1,0,0.1,0
				c0,0,0,0,0.1,0.1l1.3,2.2l1.3-2.2c0,0,0,0,0-0.1c0,0,0,0,0.1,0c0,0,0.1,0,0.1,0c0.1,0,0.1,0,0.2,0c0.1,0,0.2,0,0.2,0
				c0.1,0,0.1,0,0.1,0c0,0,0,0.1,0,0.1c0,0,0,0.1-0.1,0.2l-1.6,2.6L15.2,301.3z"/>
		</g>
	</g>
	<g>
		<g>
			<path d="M19.6,301.2c0,0.1,0,0.1,0,0.1c0,0,0,0.1,0,0.1c0,0,0,0-0.1,0.1c0,0,0,0-0.1,0h-2.9c-0.1,0-0.1,0-0.2-0.1
				c-0.1,0-0.1-0.1-0.1-0.3v-5.3c0-0.1,0-0.2,0.1-0.3c0.1,0,0.1-0.1,0.2-0.1h2.8c0,0,0,0,0.1,0c0,0,0,0,0,0.1c0,0,0,0.1,0,0.1
				c0,0,0,0.1,0,0.2c0,0.1,0,0.1,0,0.1c0,0,0,0.1,0,0.1c0,0,0,0,0,0.1c0,0,0,0-0.1,0h-2.3v1.9h2c0,0,0,0,0.1,0c0,0,0,0,0.1,0.1
				c0,0,0,0.1,0,0.1c0,0,0,0.1,0,0.2c0,0.1,0,0.1,0,0.1c0,0,0,0.1,0,0.1c0,0,0,0-0.1,0.1c0,0,0,0-0.1,0h-2v2.1h2.4c0,0,0,0,0.1,0
				c0,0,0,0,0.1,0.1c0,0,0,0.1,0,0.1C19.6,301.1,19.6,301.2,19.6,301.2z"/>
		</g>
	</g>
	<g>
		<g>
			<path d="M24.8,300.7c0,0.1,0,0.1,0,0.1s0,0.1,0,0.1c0,0,0,0.1,0,0.1c0,0,0,0-0.1,0.1s-0.1,0.1-0.2,0.1c-0.1,0.1-0.2,0.1-0.4,0.2
				c-0.1,0.1-0.3,0.1-0.5,0.2c-0.2,0-0.4,0.1-0.6,0.1c-0.4,0-0.7-0.1-1-0.2c-0.3-0.1-0.6-0.3-0.8-0.6c-0.2-0.3-0.4-0.6-0.5-0.9
				c-0.1-0.4-0.2-0.8-0.2-1.3c0-0.5,0.1-0.9,0.2-1.3c0.1-0.4,0.3-0.7,0.5-1c0.2-0.3,0.5-0.5,0.8-0.6c0.3-0.1,0.7-0.2,1.1-0.2
				c0.2,0,0.3,0,0.5,0c0.2,0,0.3,0.1,0.5,0.1s0.3,0.1,0.4,0.2c0.1,0.1,0.2,0.1,0.2,0.2c0,0,0.1,0.1,0.1,0.1c0,0,0,0,0,0.1
				c0,0,0,0.1,0,0.1c0,0,0,0.1,0,0.1c0,0.1,0,0.1,0,0.2c0,0,0,0.1,0,0.1c0,0,0,0.1,0,0.1c0,0,0,0-0.1,0c0,0-0.1,0-0.2-0.1
				c-0.1-0.1-0.2-0.1-0.3-0.2c-0.1-0.1-0.3-0.1-0.4-0.2c-0.2-0.1-0.4-0.1-0.6-0.1c-0.3,0-0.5,0.1-0.7,0.2c-0.2,0.1-0.4,0.3-0.6,0.5
				c-0.2,0.2-0.3,0.5-0.4,0.8c-0.1,0.3-0.1,0.6-0.1,1c0,0.4,0,0.7,0.1,1c0.1,0.3,0.2,0.5,0.4,0.7c0.2,0.2,0.3,0.3,0.6,0.4
				c0.2,0.1,0.5,0.1,0.8,0.1c0.2,0,0.4,0,0.6-0.1c0.2-0.1,0.3-0.1,0.5-0.2c0.1-0.1,0.2-0.1,0.3-0.2c0.1-0.1,0.1-0.1,0.2-0.1
				c0,0,0,0,0.1,0c0,0,0,0,0,0.1c0,0,0,0.1,0,0.1C24.8,300.6,24.8,300.7,24.8,300.7z"/>
		</g>
	</g>
	<g>
		<g>
			<path d="M30.3,299.4c0,0.4-0.1,0.7-0.2,1c-0.1,0.3-0.3,0.5-0.5,0.7c-0.2,0.2-0.4,0.3-0.7,0.4c-0.3,0.1-0.6,0.2-1,0.2
				c-0.3,0-0.6,0-0.9-0.1c-0.3-0.1-0.5-0.2-0.7-0.4c-0.2-0.2-0.3-0.4-0.4-0.7c-0.1-0.3-0.2-0.6-0.2-1v-3.7c0,0,0,0,0-0.1
				c0,0,0,0,0.1,0c0,0,0.1,0,0.1,0c0,0,0.1,0,0.2,0c0.1,0,0.1,0,0.2,0c0.1,0,0.1,0,0.1,0c0,0,0,0,0.1,0c0,0,0,0,0,0.1v3.6
				c0,0.3,0,0.5,0.1,0.7c0.1,0.2,0.2,0.4,0.3,0.5c0.1,0.1,0.3,0.2,0.5,0.3c0.2,0.1,0.4,0.1,0.6,0.1c0.2,0,0.4,0,0.6-0.1
				c0.2-0.1,0.3-0.2,0.5-0.3c0.1-0.1,0.2-0.3,0.3-0.5s0.1-0.4,0.1-0.7v-3.7c0,0,0,0,0-0.1c0,0,0,0,0.1,0c0,0,0.1,0,0.1,0
				c0.1,0,0.1,0,0.2,0c0.1,0,0.1,0,0.2,0c0.1,0,0.1,0,0.1,0c0,0,0.1,0,0.1,0c0,0,0,0,0,0.1V299.4z"/>
		</g>
	</g>
	<g>
		<g>
			<path d="M34.5,301.9c0.1,0.1,0.1,0.3,0.1,0.3c0,0.1,0,0.2,0,0.3c0,0.1,0,0.2-0.1,0.3c0,0.1-0.1,0.2-0.2,0.2
				c-0.1,0.1-0.2,0.1-0.3,0.1c-0.1,0-0.2,0.1-0.4,0.1c-0.1,0-0.2,0-0.3,0c-0.1,0-0.2,0-0.2,0c-0.1,0-0.1,0-0.1,0s0,0-0.1,0
				c0,0,0,0,0-0.1c0,0,0-0.1,0-0.1c0-0.1,0-0.2,0-0.2c0,0,0.1,0,0.1,0h0.6c0.1,0,0.2,0,0.2-0.1c0.1,0,0.1-0.1,0.1-0.2
				c0,0,0-0.1,0-0.2c0-0.1,0-0.1-0.1-0.2l-0.2-0.5c-0.3,0-0.5-0.1-0.8-0.2s-0.5-0.3-0.7-0.5c-0.2-0.2-0.4-0.5-0.5-0.9
				c-0.1-0.4-0.2-0.8-0.2-1.3c0-0.5,0.1-0.9,0.2-1.3s0.3-0.7,0.5-1c0.2-0.3,0.5-0.5,0.8-0.6s0.7-0.2,1.1-0.2c0.2,0,0.3,0,0.5,0
				c0.2,0,0.3,0.1,0.5,0.1s0.3,0.1,0.4,0.2c0.1,0.1,0.2,0.1,0.2,0.2c0,0,0.1,0.1,0.1,0.1c0,0,0,0,0,0.1c0,0,0,0.1,0,0.1
				c0,0,0,0.1,0,0.1c0,0.1,0,0.1,0,0.2c0,0,0,0.1,0,0.1c0,0,0,0.1,0,0.1c0,0,0,0-0.1,0c0,0-0.1,0-0.2-0.1c-0.1-0.1-0.2-0.1-0.3-0.2
				c-0.1-0.1-0.3-0.1-0.4-0.2c-0.2-0.1-0.4-0.1-0.6-0.1c-0.3,0-0.5,0.1-0.7,0.2c-0.2,0.1-0.4,0.3-0.6,0.5s-0.3,0.5-0.4,0.8
				c-0.1,0.3-0.1,0.6-0.1,1c0,0.4,0,0.7,0.1,1c0.1,0.3,0.2,0.5,0.4,0.7c0.2,0.2,0.3,0.3,0.6,0.4c0.2,0.1,0.5,0.1,0.8,0.1
				c0.2,0,0.4,0,0.6-0.1c0.2-0.1,0.3-0.1,0.5-0.2c0.1-0.1,0.2-0.1,0.3-0.2c0.1-0.1,0.1-0.1,0.2-0.1c0,0,0,0,0.1,0c0,0,0,0,0,0.1
				c0,0,0,0.1,0,0.1c0,0,0,0.1,0,0.2c0,0.1,0,0.1,0,0.1s0,0.1,0,0.1c0,0,0,0.1,0,0.1c0,0,0,0-0.1,0.1s-0.1,0.1-0.2,0.1
				c-0.1,0.1-0.2,0.1-0.4,0.2c-0.1,0.1-0.3,0.1-0.4,0.1c-0.1,0-0.3,0.1-0.4,0.1L34.5,301.9z"/>
		</g>
	</g>
	<g>
		<g>
			<path d="M41.4,301.3c0,0.1,0,0.1,0,0.2c0,0,0,0.1,0,0.1c0,0-0.1,0-0.1,0c-0.1,0-0.1,0-0.2,0c-0.1,0-0.2,0-0.2,0
				c-0.1,0-0.1,0-0.1,0c0,0-0.1,0-0.1,0c0,0,0,0,0-0.1l-0.5-1.5h-2.5l-0.5,1.4c0,0,0,0.1,0,0.1c0,0,0,0-0.1,0.1c0,0-0.1,0-0.1,0
				c-0.1,0-0.1,0-0.2,0c-0.1,0-0.2,0-0.2,0c-0.1,0-0.1,0-0.1,0c0,0,0-0.1,0-0.1c0,0,0-0.1,0-0.2l2-5.5c0,0,0-0.1,0-0.1
				c0,0,0,0,0.1-0.1c0,0,0.1,0,0.1,0c0.1,0,0.1,0,0.2,0c0.1,0,0.2,0,0.2,0c0.1,0,0.1,0,0.2,0s0.1,0,0.1,0.1c0,0,0,0.1,0.1,0.1
				L41.4,301.3z M39.9,294.1C39.9,294.1,39.9,294.1,39.9,294.1c0.1-0.1,0.2-0.1,0.3-0.1c0.1,0,0.2,0,0.2,0c0,0,0.1,0.1,0.1,0.1
				c0,0.3-0.1,0.5-0.2,0.7c-0.2,0.2-0.4,0.2-0.7,0.2c-0.2,0-0.3,0-0.4-0.1c-0.1-0.1-0.2-0.1-0.3-0.2c-0.1-0.1-0.2-0.1-0.3-0.2
				c-0.1-0.1-0.2-0.1-0.3-0.1c-0.1,0-0.2,0-0.3,0.1s-0.1,0.2-0.1,0.3c0,0,0,0,0,0.1c0,0,0,0-0.1,0c0,0-0.1,0-0.1,0c0,0-0.1,0-0.1,0
				c-0.1,0-0.2,0-0.2,0c0,0-0.1-0.1-0.1-0.1c0-0.1,0-0.3,0.1-0.4c0-0.1,0.1-0.2,0.2-0.3c0.1-0.1,0.2-0.1,0.3-0.2
				c0.1,0,0.2-0.1,0.4-0.1c0.2,0,0.3,0,0.4,0.1c0.1,0.1,0.2,0.1,0.3,0.2c0.1,0.1,0.2,0.1,0.3,0.2c0.1,0.1,0.2,0.1,0.3,0.1
				c0.1,0,0.2,0,0.3-0.1C39.9,294.4,39.9,294.3,39.9,294.1z M38.8,296.4L38.8,296.4l-1,3h2.1L38.8,296.4z"/>
		</g>
	</g>
	<g>
		<g>
			<path d="M47.3,298.5c0,0.5-0.1,0.9-0.2,1.3s-0.3,0.7-0.5,1c-0.2,0.3-0.5,0.5-0.9,0.6c-0.3,0.1-0.7,0.2-1.2,0.2
				c-0.4,0-0.8-0.1-1.2-0.2c-0.3-0.1-0.6-0.3-0.8-0.6c-0.2-0.3-0.4-0.6-0.5-0.9c-0.1-0.4-0.2-0.8-0.2-1.3c0-0.5,0.1-0.9,0.2-1.3
				s0.3-0.7,0.5-1c0.2-0.3,0.5-0.5,0.9-0.6c0.3-0.1,0.7-0.2,1.2-0.2c0.4,0,0.8,0.1,1.1,0.2c0.3,0.1,0.6,0.3,0.8,0.6
				c0.2,0.3,0.4,0.6,0.5,0.9C47.2,297.6,47.3,298,47.3,298.5z M46.4,298.6c0-0.3,0-0.7-0.1-0.9c-0.1-0.3-0.2-0.5-0.3-0.8
				c-0.1-0.2-0.3-0.4-0.6-0.5c-0.2-0.1-0.5-0.2-0.9-0.2c-0.3,0-0.6,0.1-0.9,0.2c-0.2,0.1-0.4,0.3-0.6,0.5c-0.1,0.2-0.3,0.5-0.3,0.8
				c-0.1,0.3-0.1,0.6-0.1,0.9c0,0.4,0,0.7,0.1,1c0.1,0.3,0.2,0.5,0.3,0.8c0.1,0.2,0.3,0.4,0.6,0.5c0.2,0.1,0.5,0.2,0.9,0.2
				c0.3,0,0.6-0.1,0.9-0.2c0.2-0.1,0.4-0.3,0.6-0.5c0.1-0.2,0.2-0.5,0.3-0.8C46.4,299.2,46.4,298.9,46.4,298.6z"/>
		</g>
	</g>
</g>
<g>
	<g>
		<g>
			<path class="st0" d="M14.7,217.8"/>
		</g>
	</g>
</g>
<g>
	<g>
		<g>
			<g>
				<path class="st1" d="M20.2,150.4"/>
			</g>
		</g>
	</g>
	<g>
		<g>
			<g>
				<g>
					<path d="M40.4,179.8H25.5c-2.9,0-3.4-1.6-3.5-2.2c-0.4-1.3-5.1-16.4-5.9-19.1c-0.4-1.4-0.8-2-1-2.2H9.4v-2.1l6.3,0
						c0.6,0.1,1.6,0.8,2.4,3.7c0.7,2.7,5.8,18.9,5.9,19.1l0,0.3c0,0.1,0.4,0.4,1.5,0.4h14.9V179.8z"/>
				</g>
			</g>
		</g>
		<g>
			<g>
				<g>
					<path d="M23.2,186.8c-2.1,0-3.7-1.7-3.7-3.7s1.7-3.7,3.7-3.7s3.7,1.7,3.7,3.7S25.2,186.8,23.2,186.8z M23.2,181.5
						c-0.9,0-1.6,0.7-1.6,1.6c0,0.9,0.7,1.6,1.6,1.6c0.9,0,1.6-0.7,1.6-1.6C24.8,182.2,24.1,181.5,23.2,181.5z"/>
				</g>
			</g>
		</g>
		<g>
			<g>
				<g>
					<path d="M38.7,186.8c-2.1,0-3.7-1.7-3.7-3.7s1.7-3.7,3.7-3.7s3.7,1.7,3.7,3.7S40.8,186.8,38.7,186.8z M38.7,181.5
						c-0.9,0-1.6,0.7-1.6,1.6c0,0.9,0.7,1.6,1.6,1.6c0.9,0,1.6-0.7,1.6-1.6C40.4,182.2,39.6,181.5,38.7,181.5z"/>
				</g>
			</g>
		</g>
		<g>
			<g>
				<g>
					<path d="M34.7,174.4c-4,0-9.2,0-13-0.1l0-2.1c6.7,0.1,17.6,0.1,18.5,0c0.1,0,0.2-0.1,0.2-0.1c0-0.1,3.3-10.6,3.8-12.2
						c0.1-0.3,0.1-0.4,0-0.4c0,0-0.1-0.1-0.2-0.1H19.4v-2.1l24.9,0c0.1,0,1.1,0.2,1.7,1c0.3,0.4,0.5,1.1,0.2,2.1
						c-0.5,1.6-3.8,12.2-3.8,12.2c-0.1,0.4-0.6,1.3-1.8,1.6C40.3,174.3,37.9,174.4,34.7,174.4z"/>
				</g>
			</g>
		</g>
	</g>
</g>
<g>
	<g>
		<g>
			<g>
				<path d="M39.4,273.8h-24c-1.3,0-2.4-1.1-2.4-2.4v-26.6c0-1.1,0.9-2,2-2h1.8v2.1H15l0.1,26.5c0,0.2,0.1,0.3,0.3,0.3h24
					c0.2,0,0.3-0.1,0.3-0.3v-26.6l-1.2,0.1v-2.1h1.3c1.1,0,2,0.9,2,2v26.6C41.8,272.7,40.7,273.8,39.4,273.8z"/>
			</g>
		</g>
	</g>
	<g>
		<g>
			<g>
				<path d="M35.2,248.1H19.7c-1.1,0-2.1-0.9-2.1-2.1v-3.2c0-1.1,0.9-2.1,2.1-2.1h2.6c0.2-0.8,0.5-2,1.4-2.9c1-1,2.4-1.6,4.1-1.6
					c0,0,0,0,0,0c3.2,0,4.6,2.5,5,4.4h2.4c1.1,0,2.1,0.9,2.1,2.1v3.3C37.3,247.1,36.4,248.1,35.2,248.1z M18.7,246h1.1H18.7z
					 M19.7,246h15.5l0-3.3l-4.3,0l-0.1-1c0-0.3-0.3-3.4-3-3.4h0c-3.4,0-3.6,2.9-3.5,3.4l0,1.1l-4.6,0L19.7,246z"/>
			</g>
		</g>
	</g>
	<g>
		<g>
			<g>
				<path d="M20.6,258.1l3.8,4.8c0.4,0.5,1.1,0.5,1.6,0.1l10.9-9.3l-1.8-1.9l-9.4,8.8c0,0-0.5,0.3-1.2-0.1
					C23.5,259.9,20.6,258.1,20.6,258.1z"/>
			</g>
		</g>
		<g>
			<g>
				<path d="M25.3,264.3c-0.1,0-0.1,0-0.2,0c-0.6-0.1-1.1-0.3-1.5-0.8l-7.6-9.5l5.1,3.1c0,0,2.9,1.8,3.8,2.3c0.1,0,0.1,0.1,0.1,0.1
					l10-9.3l3.3,3.5l-11.7,10C26.3,264.1,25.8,264.3,25.3,264.3z M24.8,261.6l0.4,0.6l0.9-0.8l0,0C25.8,261.6,25.3,261.7,24.8,261.6
					z M35,253.2l-8.3,7.7l8.6-7.4L35,253.2z"/>
			</g>
		</g>
	</g>
</g>
<g>
	<g>
		<g>
			<g>
				<path d="M41.4,456.7h-28c-1.9,0-3.5-1.6-3.5-3.5v-38.3c0-1.9,1.6-3.5,3.5-3.5h28c1.9,0,3.5,1.6,3.5,3.5v38.3
					C44.9,455.1,43.3,456.7,41.4,456.7z M13.4,413.5c-0.8,0-1.4,0.6-1.4,1.4v38.3c0,0.8,0.6,1.4,1.4,1.4h28c0.8,0,1.4-0.6,1.4-1.4
					v-38.3c0-0.8-0.6-1.4-1.4-1.4H13.4z"/>
			</g>
		</g>
	</g>
	<g>
		<g>
			<g>
				<path d="M38.5,419.9H16.1c-0.5,0-1-0.4-1-1v-0.1c0-0.5,0.4-1,1-1h22.4c0.5,0,1,0.4,1,1v0.1C39.5,419.5,39,419.9,38.5,419.9z"/>
			</g>
		</g>
	</g>
	<g>
		<g>
			<g>
				<path d="M38.5,423.9H16.1c-0.5,0-1-0.4-1-1v-0.1c0-0.5,0.4-1,1-1h22.4c0.5,0,1,0.4,1,1v0.1C39.5,423.5,39,423.9,38.5,423.9z"/>
			</g>
		</g>
	</g>
	<g>
		<g>
			<g>
				<path d="M29,428.1H16.1c-0.5,0-1-0.4-1-1V427c0-0.5,0.4-1,1-1H29c0.5,0,1,0.4,1,1v0.1C30,427.7,29.6,428.1,29,428.1z"/>
			</g>
		</g>
	</g>
	<g>
		<g>
			<g>
				<polygon points="15,441.3 15.9,442.2 24.1,434 30.5,440.5 39.8,431.3 38.8,430.4 30.6,438.7 24,432.1 				"/>
			</g>
		</g>
	</g>
	<g>
		<g>
			<g>
				<rect x="15" y="444.2" width="4.8" height="5.8"/>
			</g>
		</g>
	</g>
	<g>
		<g>
			<g>
				<rect x="21.6" y="440.8" width="4.8" height="9.3"/>
			</g>
		</g>
	</g>
	<g>
		<g>
			<g>
				<rect x="28.2" y="442.6" width="4.8" height="7.4"/>
			</g>
		</g>
	</g>
	<g>
		<g>
			<g>
				<rect x="35" y="438.7" width="4.8" height="11.4"/>
			</g>
		</g>
	</g>
</g>
<g>
	<g>
		<g>
			<g>
				<path d="M15.8,372.9c-1.7,0-3.3,0-4.4-0.1c-3.1-0.3-4.3-3.1-4.5-4.6l0-0.1c0-1.2-0.2-28.6,0-32.1c0.2-3.4,3.2-4.9,4.7-5.2l0.2,0
					h24.6c3.4,0.2,4.8,3,5.1,4.5l0,0.2v14.8h-2.1v-14.7c-0.1-0.5-0.8-2.6-3.1-2.7l-24.4,0c-0.5,0.1-2.8,0.8-3,3.2
					c-0.2,3.3,0,30.2,0,31.9c0.1,0.4,0.6,2.6,2.6,2.8c3,0.3,10.8,0,10.8,0l0.1,2.1C22.4,372.8,19,372.9,15.8,372.9z"/>
			</g>
		</g>
	</g>
	<g>
		<g>
			<g>
				<polygon points="32.7,359.4 35.3,358.4 35.7,356 38.2,356 38.7,358.3 41.1,359.4 42.9,358 44.7,360 43.6,361.5 44.7,364.1 
					46.8,364.4 46.8,367.1 44.6,367.5 43.6,369.9 44.8,371.9 42.9,373.7 41.1,372.5 38.5,373.7 38.4,375.6 35.7,375.6 35.3,373.7 
					32.7,372.4 31.1,373.6 29.2,371.8 30.3,370.4 29.6,367.7 27.3,367.2 27.3,364.6 29.2,364.2 30.4,361.7 29.1,359.7 30.8,358 				
					"/>
			</g>
		</g>
	</g>
	<g>
		<g>
			<g>
				<path d="M23.1,346.9c-0.9,0-1.7,0-2-0.1c-1-0.2-1.4-0.7-1.5-1.2c-0.2-0.5-1.3-2.6-1.9-5.2c-0.6-2.2-2.6-3.4-2.6-3.4l1-1.8
					c0.1,0.1,2.9,1.6,3.7,4.7c0.6,2.3,1.6,4.4,1.8,4.8c0.6,0.1,2.9,0,5,0c0.1-0.1,0.1-0.2,0.2-0.3c0.2-0.4,1.1-3,1.7-4.7
					c-1.4,0-5.6,0-8.6,0l0-2.1c3.2-0.1,8.8-0.1,9.5,0c1.1,0.2,1.5,1.2,1.4,2l0,0.2c-0.3,0.8-1.6,4.8-2,5.5c-0.5,1.1-1.3,1.4-1.5,1.4
					l-0.2,0.1l-0.2,0C26.1,346.9,24.5,346.9,23.1,346.9z"/>
			</g>
		</g>
	</g>
	<g>
		<g>
			<g>
				<path d="M21.7,350.9c-1.4,0-2.5-1.1-2.5-2.5s1.1-2.5,2.5-2.5c1.4,0,2.5,1.1,2.5,2.5S23.1,350.9,21.7,350.9z M21.7,348
					c-0.2,0-0.4,0.2-0.4,0.4c0,0.2,0.2,0.4,0.4,0.4c0.2,0,0.4-0.2,0.4-0.4C22.1,348.1,21.9,348,21.7,348z"/>
			</g>
		</g>
	</g>
	<g>
		<g>
			<g>
				<path d="M26.1,350.9c-1.4,0-2.5-1.1-2.5-2.5s1.1-2.5,2.5-2.5c1.4,0,2.5,1.1,2.5,2.5S27.5,350.9,26.1,350.9z M26.1,348
					c-0.2,0-0.4,0.2-0.4,0.4c0,0.2,0.2,0.4,0.4,0.4c0.2,0,0.4-0.2,0.4-0.4C26.5,348.1,26.3,348,26.1,348z"/>
			</g>
		</g>
	</g>
	<g>
		<g>
			<g>
				<rect x="12.5" y="353.9" width="14.5" height="2.3"/>
			</g>
		</g>
	</g>
	<g>
		<g>
			<g>
				<rect x="12.5" y="360" width="11.9" height="2.3"/>
			</g>
		</g>
	</g>
	<g>
		<g>
			<g>
				<rect x="12.5" y="365.8" width="10.8" height="2.3"/>
			</g>
		</g>
	</g>
	<g>
		<g>
			<g>
				<circle class="st2" cx="37" cy="365.8" r="3.5"/>
			</g>
		</g>
	</g>
</g>
<g>
	<g>
		<g>
			<g>
				<path d="M13,74.9l8.5,8.7l11.7-4.9c0,0-5.8-6.5-9.1-6.9C20.9,71.3,13,73.8,13,74.9z"/>
			</g>
		</g>
	</g>
	<g>
		<g>
			<g>
				<path class="st2" d="M23.8,96.3c0-0.2-2.3-12.7-2.3-12.7l11.4-4.9c0,0,0.7,0.7,1,2.2c0.3,1.6,0.8,8.6-2.7,11.4
					S23.8,96.3,23.8,96.3z"/>
			</g>
		</g>
	</g>
	<g>
		<g>
			<g>
				<path class="st3" d="M13,74.9l8.5,8.7l2.4,13.2c0,0-5.6-1.4-7.3-1.7C15,94.8,8.7,90,9.1,85C9.6,80,11.5,75,13,74.9z"/>
			</g>
		</g>
	</g>
	<g>
		<g>
			<g>
				<circle cx="46.4" cy="115" r="1.7"/>
			</g>
		</g>
	</g>
	<g>
		<g>
			<g>
				<circle cx="32.4" cy="101.9" r="0.9"/>
			</g>
		</g>
	</g>
	<g>
		<g>
			<g>
				<rect x="8.5" y="113.3" width="3.2" height="3.2"/>
			</g>
		</g>
	</g>
	<g>
		<g>
			<g>
				<rect x="15.2" y="113.3" width="3.2" height="3.2"/>
			</g>
		</g>
	</g>
	<g>
		<g>
			<g>
				<rect x="21.5" y="113.3" width="3.2" height="3.2"/>
			</g>
		</g>
	</g>
	<g>
		<g>
			<g>
				<rect x="28.3" y="113.3" width="3.2" height="3.2"/>
			</g>
		</g>
	</g>
	<g>
		<g>
			<g>
				<path d="M35.1,113.4v3.2h3.2v-3.2H35.1z M37.6,115.8h-1.8v-1.8h1.8V115.8z"/>
			</g>
		</g>
	</g>
	<g>
		<g>
			<g>
				<rect x="8.1" y="106.7" width="0.7" height="3.3"/>
			</g>
		</g>
		<g>
			<g>
				<path d="M9,110.3H7.8v-3.8H9V110.3z M8.4,109.7h0.2V107H8.4V109.7z"/>
			</g>
		</g>
	</g>
	<g>
		<g>
			<g>
				<rect x="9.7" y="108.2" width="0.7" height="1.8"/>
			</g>
		</g>
		<g>
			<g>
				<path d="M10.7,110.3H9.5v-2.3h1.2V110.3z M10,109.7h0.2v-1.3H10V109.7z"/>
			</g>
		</g>
	</g>
	<g>
		<g>
			<g>
				<rect x="11.5" y="105" width="0.7" height="5"/>
			</g>
		</g>
		<g>
			<g>
				<path d="M12.4,110.3h-1.2v-5.5h1.2V110.3z M11.7,109.7h0.2v-4.5h-0.2V109.7z"/>
			</g>
		</g>
	</g>
	<g>
		<g>
			<g>
				<rect x="13" y="106.7" width="0.7" height="3.3"/>
			</g>
		</g>
		<g>
			<g>
				<path d="M14,110.3h-1.2v-3.8H14V110.3z M13.3,109.7h0.2V107h-0.2V109.7z"/>
			</g>
		</g>
	</g>
	<g>
		<g>
			<g>
				<rect x="14.6" y="108.2" width="0.7" height="1.8"/>
			</g>
		</g>
		<g>
			<g>
				<path d="M15.5,110.3h-1.2v-2.3h1.2V110.3z M14.8,109.7H15v-1.3h-0.2V109.7z"/>
			</g>
		</g>
	</g>
	<g>
		<g>
			<g>
				<rect x="16.3" y="106.8" width="0.7" height="3.2"/>
			</g>
		</g>
		<g>
			<g>
				<path d="M17.2,110.3H16v-3.7h1.2V110.3z M16.6,109.7h0.2V107h-0.2V109.7z"/>
			</g>
		</g>
	</g>
	<g>
		<g>
			<g>
				<rect x="18" y="108.4" width="0.7" height="1.6"/>
			</g>
		</g>
		<g>
			<g>
				<path d="M18.9,110.3h-1.2v-2.1h1.2V110.3z M18.3,109.7h0.2v-1.1h-0.2V109.7z"/>
			</g>
		</g>
	</g>
	<g>
		<g>
			<g>
				<rect x="19.7" y="106.7" width="0.7" height="3.3"/>
			</g>
		</g>
		<g>
			<g>
				<path d="M20.7,110.3h-1.2v-3.8h1.2V110.3z M20,109.7h0.2V107H20V109.7z"/>
			</g>
		</g>
	</g>
	<g>
		<g>
			<g>
				<rect x="21.3" y="105.1" width="0.7" height="4.9"/>
			</g>
		</g>
		<g>
			<g>
				<path d="M22.2,110.3H21v-5.4h1.2V110.3z M21.6,109.7h0.2v-4.4h-0.2V109.7z"/>
			</g>
		</g>
	</g>
	<g>
		<g>
			<g>
				<rect x="22.9" y="100.2" width="0.7" height="9.8"/>
			</g>
		</g>
		<g>
			<g>
				<path d="M23.9,110.3h-1.2V99.9h1.2V110.3z M23.2,109.7h0.2v-9.3h-0.2V109.7z"/>
			</g>
		</g>
	</g>
	<g>
		<g>
			<g>
				<rect x="24.6" y="101.7" width="0.7" height="8.3"/>
			</g>
		</g>
		<g>
			<g>
				<path d="M25.5,110.3h-1.2v-8.8h1.2V110.3z M24.8,109.7H25V102h-0.2V109.7z"/>
			</g>
		</g>
	</g>
	<g>
		<g>
			<g>
				<rect x="26.3" y="103.4" width="0.7" height="6.6"/>
			</g>
		</g>
		<g>
			<g>
				<path d="M27.2,110.3H26v-7.2h1.2V110.3z M26.5,109.7h0.2v-6.1h-0.2V109.7z"/>
			</g>
		</g>
	</g>
	<g>
		<g>
			<g>
				<rect x="28" y="106.7" width="0.7" height="3.3"/>
			</g>
		</g>
		<g>
			<g>
				<path d="M28.9,110.3h-1.2v-3.8h1.2V110.3z M28.2,109.7h0.2V107h-0.2V109.7z"/>
			</g>
		</g>
	</g>
	<g>
		<g>
			<g>
				<rect x="29.6" y="105.1" width="0.7" height="4.9"/>
			</g>
		</g>
		<g>
			<g>
				<path d="M30.5,110.3h-1.2v-5.4h1.2V110.3z M29.8,109.7H30v-4.4h-0.2V109.7z"/>
			</g>
		</g>
	</g>
	<g>
		<g>
			<g>
				<rect x="31.1" y="106.7" width="0.7" height="3.3"/>
			</g>
		</g>
		<g>
			<g>
				<path d="M32.1,110.3h-1.2v-3.8h1.2V110.3z M31.4,109.7h0.2V107h-0.2V109.7z"/>
			</g>
		</g>
	</g>
	<g>
		<g>
			<g>
				<rect x="32.8" y="107.5" width="0.7" height="2.5"/>
			</g>
		</g>
		<g>
			<g>
				<path d="M33.7,110.3h-1.2v-3h1.2V110.3z M33,109.7h0.2v-1.9H33V109.7z"/>
			</g>
		</g>
	</g>
	<g>
		<g>
			<g>
				<rect x="34.5" y="108.7" width="0.7" height="1.3"/>
			</g>
		</g>
		<g>
			<g>
				<path d="M35.4,110.3h-1.2v-1.8h1.2V110.3z M34.7,109.7h0.2V109h-0.2V109.7z"/>
			</g>
		</g>
	</g>
	<g>
		<g>
			<g>
				<rect x="36.2" y="108.5" width="0.7" height="1.5"/>
			</g>
		</g>
		<g>
			<g>
				<path d="M37.1,110.3h-1.2v-2h1.2V110.3z M36.5,109.7h0.2v-0.9h-0.2V109.7z"/>
			</g>
		</g>
	</g>
	<g>
		<g>
			<g>
				<rect x="37.8" y="106.8" width="0.7" height="3.2"/>
			</g>
		</g>
		<g>
			<g>
				<path d="M38.8,110.3h-1.2v-3.7h1.2V110.3z M38.1,109.7h0.2V107h-0.2V109.7z"/>
			</g>
		</g>
	</g>
	<g>
		<g>
			<g>
				<path d="M47.3,95h-7.8l0.4-1.4l2.7-5.1l1.5,0.7L47.3,95z M40.8,93.9h4.7l-2.2-4L43,89.8L40.8,93.9z"/>
			</g>
		</g>
	</g>
	<g>
		<g>
			<g>
				<rect x="36.7" y="75.4" width="9.7" height="6.5"/>
			</g>
		</g>
	</g>
	<g>
		<g>
			<g>
				<rect x="34.8" y="76.7" width="6.8" height="0.7"/>
			</g>
		</g>
	</g>
	<g>
		<g>
			<g>
				<rect x="34.8" y="78.3" width="6.8" height="0.7"/>
			</g>
		</g>
	</g>
	<g>
		<g>
			<g>
				<rect x="34.8" y="79.9" width="6.8" height="0.7"/>
			</g>
		</g>
	</g>
	<g>
		<g>
			<g>
				<path d="M48.6,84.1H30.8V72.9h17.8V84.1z M31.9,83.1h15.7V74H31.9V83.1z"/>
			</g>
		</g>
	</g>
	<g>
		<g>
			<g>
				<g>
					<path d="M21.8,70.6c-7.4,0-13.3,6-13.3,13.3s6,13.3,13.3,13.3s13.3-6,13.3-13.3S29.2,70.6,21.8,70.6z M21.8,95.9
						C15.3,95.9,10,90.5,10,84s5.3-11.9,11.9-11.9S33.7,77.4,33.7,84S28.4,95.9,21.8,95.9z"/>
				</g>
			</g>
		</g>
	</g>
	<g>
		<g>
			<g>
				<polygon points="31,93.4 32.7,95.2 33.3,94.7 31.5,92.8 				"/>
			</g>
		</g>
	</g>
	<g>
		<g>
			<g>
				<path d="M32,95.9c0.1,0,2.1-2,2.1-2l14.6,14.5l-2.1,2.2L32,95.9z"/>
			</g>
		</g>
	</g>
	<g>
		<g>
			<g>
				<path class="st4" d="M12.4,100.1c-0.4,0-0.8-0.1-1.2-0.3l0.6-2c0.3,0.1,0.5,0.1,0.8,0.2L12.4,100.1z M13.7,100.1L13.4,98
					c0.3,0,0.5-0.1,0.8-0.2l0.7,2C14.5,99.9,14.1,100,13.7,100.1z M10,99.3c-0.4-0.2-0.7-0.5-1-0.7l1.4-1.6c0.2,0.2,0.4,0.3,0.7,0.5
					L10,99.3z M16,99.3L15,97.5c0.2-0.1,0.5-0.3,0.7-0.5l1.4,1.6C16.8,98.8,16.4,99.1,16,99.3z M8.1,97.6c-0.2-0.3-0.5-0.7-0.6-1.1
					l1.9-0.9c0.1,0.3,0.3,0.5,0.4,0.7L8.1,97.6z M17.9,97.6l-1.7-1.2c0.2-0.2,0.3-0.5,0.4-0.7l1.9,0.9
					C18.4,96.9,18.2,97.3,17.9,97.6z M7.1,95.3c-0.1-0.4-0.1-0.8-0.1-1.3l2.1,0c0,0.3,0,0.6,0.1,0.8L7.1,95.3z M18.9,95.3l-2.1-0.4
					c0.1-0.3,0.1-0.5,0.1-0.8l1.6,0l0.5,0C19.1,94.5,19,94.9,18.9,95.3z M9.1,93.2l-2.1-0.4c0.1-0.4,0.2-0.8,0.4-1.2l1.9,0.8
					C9.3,92.7,9.2,93,9.1,93.2z M16.9,93.2c-0.1-0.3-0.1-0.5-0.3-0.8l1.9-0.9c0.2,0.4,0.3,0.8,0.4,1.2L16.9,93.2z M9.8,91.7
					l-1.7-1.2c0.2-0.3,0.5-0.7,0.8-0.9l1.4,1.5C10.1,91.3,9.9,91.5,9.8,91.7z M16.2,91.7c-0.2-0.2-0.4-0.4-0.6-0.6l1.4-1.6
					c0.3,0.3,0.6,0.6,0.9,0.9L16.2,91.7z M11,90.6l-1.1-1.8c0.4-0.2,0.8-0.4,1.2-0.5l0.7,2C11.5,90.4,11.2,90.5,11,90.6z M15,90.6
					c-0.2-0.1-0.5-0.2-0.8-0.3l0.6-2c0.4,0.1,0.8,0.3,1.2,0.5L15,90.6z M12.6,90.1L12.3,88c0.4,0,0.8,0,1.3,0l-0.2,2.1
					C13.1,90.1,12.8,90.1,12.6,90.1z"/>
			</g>
		</g>
	</g>
	<g>
		<g>
			<g>
				<circle cx="46.4" cy="94.5" r="1.6"/>
			</g>
		</g>
	</g>
	<g>
		<g>
			<g>
				<circle cx="43.1" cy="88.6" r="1.6"/>
			</g>
		</g>
	</g>
	<g>
		<g>
			<g>
				<circle cx="39.9" cy="94.5" r="1.6"/>
			</g>
		</g>
	</g>
</g>
<g>
	<g>
		<g>
			<path d="M40,25.5V5.2c0,0-17.3,0-22.2,0c-4.9,0-4.4,3.2-4.4,3.2s-0.2,14-0.4,19.4c-0.1,1.8,0.2,3.2,0.7,4.3
				c0.8,2,2.7,3.3,4.8,3.3H40C38.1,31.7,40,25.5,40,25.5z M20.4,12.1h14.3v1.6H20.4V12.1z M20.4,16.5h14.3v1.6H20.4V16.5z M36.6,33
				H18.3c-1.2,0-2.2-1-2.2-2.2c0-1.2,1-2.2,2.2-2.2h18.3V33z"/>
		</g>
	</g>
</g>
</svg>
