<?xml version="1.0" encoding="utf-8"?>
<!-- Generator: Adobe Illustrator 23.0.1, SVG Export Plug-In . SVG Version: 6.00 Build 0)  -->
<svg version="1.1" id="Layer_1" xmlns="http://www.w3.org/2000/svg" xmlns:xlink="http://www.w3.org/1999/xlink" x="0px" y="0px"
	 viewBox="0 0 50 50" style="enable-background:new 0 0 50 50;" xml:space="preserve">
<g>
	<g>
		<g>
			<g>
				<path d="M41.89,46.62l-0.08,0c-2.69-0.12-9.4-0.03-9.47-0.03c0,0-0.46,0.05-0.86-0.3c-0.32-0.29-0.48-0.73-0.47-1.32
					c0.03-1.37,0-11.01,0-11.11v-0.12l0.05-0.11c-0.01,0-0.05-0.05-0.27-0.11c-1.26,0.08-9.98,0.01-11.54,0
					c-0.06,0.05-0.14,0.16-0.14,0.36v11.28c0,0,0,0,0,0c0.01,0,0.07,0.5-0.25,0.92c-0.15,0.2-0.45,0.44-0.99,0.49
					c-1.17-0.04-9.74,0.01-9.83,0.01l-0.1,0l-0.09-0.04c-0.41-0.16-1.11-0.73-1.11-1.81v-20.4H3.99v-0.17
					c-0.43-0.27-0.73-0.81-0.55-1.72l0.03-0.16l20.6-18.45c0.05-0.04,0.55-0.48,1.16-0.45c0.36,0.02,0.69,0.19,0.95,0.49
					c0.48,0.54,12.14,10.97,19.87,17.85c0.19,0.23,0.79,1.07,0.49,1.8c-0.11,0.28-0.4,0.63-1.11,0.73
					c-0.86,0.13-1.56,0.11-2.03,0.08v20.23c0.04,0.54-0.21,1.7-1.44,2.03L41.89,46.62z M37.49,45.56c1.6,0,3.23,0.01,4.29,0.06
					c0.68-0.23,0.64-0.98,0.64-1.01l0-21.46l0.61,0.13c0.01,0,0.93,0.19,2.27-0.01c0.21-0.03,0.31-0.09,0.33-0.12
					c0.05-0.13-0.12-0.51-0.3-0.74c-1.91-1.69-19.27-17.15-19.9-17.88c-0.11-0.13-0.19-0.14-0.25-0.15
					c-0.18-0.02-0.4,0.15-0.43,0.19L4.39,22.8c-0.03,0.23-0.01,0.47,0.17,0.54h3.21v21.4c0,0.52,0.28,0.76,0.41,0.85
					c1.1-0.01,8.61-0.05,9.68-0.01c0.04-0.01,0.16-0.03,0.22-0.1c0.06-0.07,0.06-0.19,0.05-0.23l-0.01-11.36
					c0-0.79,0.52-1.21,0.83-1.33l0.09-0.04l0.1,0c4.4,0.04,11.13,0.07,11.64,0l0.09-0.01l0.09,0.02c0.51,0.12,0.85,0.35,1.01,0.7
					c0.12,0.26,0.1,0.53,0.04,0.72c0,1.06,0.03,9.71,0,11.03c-0.01,0.38,0.09,0.52,0.14,0.55c0.05,0.04,0.12,0.05,0.12,0.05l0,0
					C32.35,45.59,34.9,45.56,37.49,45.56z"/>
				<path d="M41.87,47l-0.08,0c-2.7-0.12-9.38-0.03-9.44-0.03v0c-0.32,0.04-0.8-0.11-1.12-0.39c-0.41-0.36-0.61-0.9-0.59-1.6
					c0.02-1.13,0.01-7.99,0-10.89l0-0.17c-1.69,0.06-9.06,0.01-11.13-0.01L19.5,45.17c0.03,0.28-0.02,0.75-0.33,1.15
					c-0.2,0.26-0.58,0.58-1.25,0.63c-0.73-0.02-4.13-0.02-9.63,0.01l-0.39,0L7.73,46.9c-0.5-0.2-1.34-0.88-1.34-2.16V24.71H3.61
					v-0.36c-0.33-0.28-0.77-0.87-0.55-1.98l0.06-0.29L3.22,22l20.6-18.45c0.02-0.02,0.59-0.59,1.43-0.54
					c0.46,0.02,0.88,0.24,1.21,0.62c0.41,0.47,10.53,9.53,19.83,17.82c0.27,0.32,0.97,1.29,0.59,2.22c-0.12,0.3-0.47,0.83-1.4,0.96
					c-0.68,0.1-1.26,0.12-1.71,0.1v19.84c0.06,0.75-0.36,2.03-1.72,2.39L41.87,47z M37.46,46.18c1.65,0,3.32,0.01,4.37,0.06l0,0.01
					l0.04-0.01c1.03-0.28,1.19-1.28,1.17-1.64l0-20.67l0.41,0.03c0.42,0.04,1.11,0.05,1.94-0.07c0.43-0.06,0.7-0.23,0.81-0.5
					c0.23-0.57-0.37-1.33-0.44-1.42C39.15,16.09,26.43,4.73,25.9,4.13c-0.2-0.23-0.43-0.35-0.69-0.37
					c-0.45-0.02-0.88,0.34-0.89,0.35L3.8,22.52c-0.13,0.64,0,1.09,0.38,1.33l0.18,0.12h2.78v20.77c0,1.1,0.83,1.45,0.87,1.46
					l0.05,0.01l0.22,0c3.19-0.02,8.68-0.04,9.62-0.01c0.36-0.03,0.57-0.21,0.68-0.34c0.11-0.15,0.16-0.31,0.17-0.43l0-11.54
					c0-0.36,0.17-0.56,0.27-0.65l0.11-0.09l0.14,0c1.04,0.01,10.23,0.09,11.51,0l0.06,0l0.06,0.02c0.11,0.03,0.19,0.06,0.25,0.09
					l0.37-0.02c-0.14-0.15-0.35-0.26-0.65-0.33c-0.76,0.09-11.29,0-11.74,0l-0.05,0.01c-0.03,0.01-0.59,0.24-0.59,0.98l0.01,11.36
					c0,0,0.03,0.26-0.13,0.47c-0.09,0.12-0.24,0.19-0.44,0.23c-0.76-0.02-4.16-0.01-9.67,0.01H8.16L7.98,45.9
					c-0.18-0.11-0.58-0.45-0.58-1.16V23.71l-2.97-0.03c-0.18-0.07-0.48-0.29-0.41-0.93l0.02-0.14L24.49,4.29
					c0.01-0.01,0.34-0.33,0.73-0.28c0.16,0.01,0.33,0.1,0.49,0.27c0.59,0.69,17.6,15.84,19.86,17.84c0.05,0.06,0.57,0.74,0.4,1.16
					c-0.08,0.19-0.29,0.31-0.62,0.35c-1.43,0.21-2.4,0-2.41,0l-0.15-0.03l0,20.99c0.03,0.34-0.11,1.11-0.89,1.37L41.83,46l-0.07,0
					c-0.91-0.04-2.35-0.06-4.27-0.06c-2.55,0-5.08,0.04-5.19,0.04c-0.02,0.02-0.23,0-0.38-0.15c-0.18-0.16-0.27-0.44-0.26-0.84
					c0.03-1.37,0-10.63,0-11.03l0.02-0.11c0.02-0.07,0.07-0.26-0.02-0.45c0,0,0-0.01-0.01-0.01l-0.24,0.49v0.21
					c0.01,2.9,0.02,9.77,0,10.91c-0.01,0.47,0.11,0.82,0.34,1.03c0.19,0.17,0.4,0.2,0.5,0.21l0.09,0
					C32.37,46.22,34.89,46.18,37.46,46.18z M37.49,45.18c1.88,0,3.3,0.02,4.23,0.06c0.34-0.15,0.33-0.56,0.32-0.6l0-21.95l1.06,0.23
					c0.01,0,0.86,0.17,2.1,0c-0.04-0.08-0.1-0.18-0.17-0.27C43.35,21.17,25.8,5.54,25.14,4.78c-0.02-0.02-0.1,0.04-0.15,0.07
					L4.77,22.96h3.38v21.77c0,0.25,0.09,0.39,0.17,0.47c3.17-0.02,8.27-0.04,9.45-0.01l-0.01-11.31c0-0.99,0.67-1.52,1.06-1.68
					l0.16-0.06l0.17,0c5.29,0.05,11.15,0.07,11.59,0.01l0.07-0.01l0.15,0c0.72,0.17,1.15,0.47,1.36,0.93
					c0.13,0.29,0.16,0.62,0.08,0.93c0,0.85,0.03,9.65,0,10.99c0,0.1,0.01,0.17,0.01,0.22C32.97,45.21,35.21,45.18,37.49,45.18z"/>
			</g>
			<g>
				<path d="M41.92,46.88l-0.12-0.01c-2.67-0.12-9.39-0.03-9.45-0.03v0c-0.26,0.03-0.71-0.08-1.03-0.36
					c-0.38-0.34-0.56-0.84-0.55-1.51c0.02-1.13,0.01-8,0-10.89l0-0.3c-1.42,0.07-9.44,0.01-11.38-0.01
					c-0.01,0.03-0.02,0.06-0.02,0.11v11.28c0.03,0.23-0.01,0.69-0.3,1.07c-0.18,0.24-0.54,0.53-1.17,0.59
					c-0.96-0.03-6.44-0.01-9.62,0.01l-0.37,0l-0.14-0.06c-0.47-0.19-1.26-0.83-1.26-2.04V24.59H3.74V24.3
					c-0.51-0.39-0.71-1.07-0.55-1.9l0.05-0.25L23.9,3.65c0.02-0.02,0.61-0.54,1.34-0.51c0.43,0.02,0.82,0.22,1.13,0.58
					c0.42,0.47,10.54,9.54,19.85,17.83c0.18,0.21,0.92,1.19,0.56,2.08c-0.14,0.34-0.48,0.77-1.3,0.89
					c-0.73,0.11-1.36,0.12-1.81,0.09v19.97c0.05,0.71-0.34,1.93-1.63,2.27L41.92,46.88z M37.46,46.31c1.65,0,3.32,0.01,4.37,0.06
					l0.04,0l0.04-0.01c1.12-0.3,1.29-1.38,1.26-1.77l0-20.52l0.27,0.02c0.43,0.04,1.12,0.05,1.97-0.07
					c0.48-0.07,0.78-0.26,0.91-0.58c0.26-0.64-0.38-1.45-0.46-1.54C38.15,15.04,26.48,4.6,25.99,4.04
					c-0.22-0.25-0.49-0.39-0.78-0.41c-0.52-0.01-0.97,0.38-0.98,0.38L3.7,22.41L3.68,22.5c-0.14,0.68,0.02,1.2,0.44,1.46l0.12,0.07
					v0.06h2.78v20.65c0,0.95,0.6,1.44,0.95,1.58l0.09,0.02l0.22,0c3.19-0.02,8.68-0.04,9.61-0.01c0.42-0.04,0.66-0.23,0.78-0.39
					c0.14-0.17,0.18-0.37,0.2-0.51h0l0-11.53c0-0.31,0.14-0.48,0.23-0.55l0.07-0.06l0.09,0c1.04,0.01,10.24,0.08,11.52,0l0.04,0
					l0.04,0.01c0.13,0.04,0.21,0.07,0.26,0.1l0.37-0.02l-0.23,0.51l0,0.21c0.01,2.9,0.02,9.77,0,10.9
					c-0.01,0.51,0.12,0.89,0.39,1.13c0.22,0.2,0.47,0.23,0.59,0.24l0.09,0C32.37,46.34,34.89,46.31,37.46,46.31z M41.81,45.87
					l-0.05,0c-0.92-0.04-2.35-0.06-4.28-0.06c-2.56,0-5.09,0.04-5.2,0.04c-0.02,0.01-0.17,0-0.3-0.11c-0.1-0.09-0.23-0.3-0.22-0.74
					c0.03-1.37,0-10.63,0-11.03l0.01-0.08c0.03-0.09,0.08-0.31-0.03-0.54c-0.13-0.27-0.41-0.46-0.84-0.56l-0.04-0.01l-0.04,0.01
					c-0.57,0.07-7.89,0.03-11.68,0l-0.05,0l-0.05,0.02c-0.25,0.1-0.67,0.44-0.67,1.09l0.01,11.36l0,0c0,0,0.02,0.22-0.11,0.39
					c-0.08,0.09-0.19,0.16-0.37,0.19c-0.96-0.03-6.46,0-9.65,0.01H8.11l-0.06-0.04c-0.16-0.1-0.53-0.41-0.53-1.06V23.59l-3.05-0.02
					c-0.18-0.07-0.39-0.27-0.33-0.8l0.01-0.09L24.58,4.39l0,0c0,0,0.31-0.29,0.63-0.25c0.14,0.01,0.28,0.08,0.41,0.23
					c0.6,0.69,17.61,15.85,19.87,17.85c0.16,0.2,0.48,0.72,0.36,1.02c-0.06,0.14-0.23,0.23-0.52,0.28c-1.4,0.21-2.35,0.01-2.36,0
					l-0.3-0.07l0,21.15c0.03,0.31-0.1,1.01-0.81,1.25L41.81,45.87z M37.49,45.31c1.9,0,3.33,0.02,4.25,0.06
					c0.46-0.18,0.43-0.71,0.43-0.74l0-21.79l0.91,0.2c0.01,0,0.9,0.18,2.18-0.01c0.05-0.01,0.08-0.01,0.11-0.02
					c-0.04-0.09-0.13-0.29-0.24-0.44C43.43,21.08,25.89,5.46,25.23,4.7c-0.04-0.05-0.07-0.06-0.07-0.06
					c-0.07-0.01-0.19,0.07-0.25,0.12L4.63,22.92c0,0.09,0.01,0.14,0.02,0.17h3.37v21.65c0,0.33,0.14,0.51,0.24,0.6h0
					c3.2-0.02,8.7-0.04,9.61-0.01c0.01-0.01,0.03-0.02,0.03-0.02l-0.02-11.42c0-0.92,0.62-1.42,0.98-1.56l0.19-0.05l0.1,0
					c5.43,0.05,11.16,0.07,11.61,0.01l0.13-0.02l0.13,0.03c0.59,0.14,0.99,0.42,1.18,0.84c0.12,0.26,0.15,0.58,0.07,0.87
					c0,0.75,0.03,9.65,0,11c0,0.21,0.03,0.31,0.05,0.35C32.7,45.34,35.07,45.31,37.49,45.31z"/>
				<path d="M41.96,47.25l-0.17-0.01c-2.64-0.12-9.36-0.03-9.42-0.03l-0.38,0.01v-0.03c-0.3-0.05-0.63-0.19-0.9-0.43
					c-0.46-0.41-0.69-1.02-0.68-1.79c0.02-1.12,0.01-7.85,0-10.8c-1.97,0.05-8.19,0-10.65-0.02l0,11.01
					c0.04,0.29-0.03,0.84-0.38,1.3c-0.23,0.3-0.67,0.67-1.43,0.73c-1.04-0.03-7.1,0-9.65,0.01l-0.44,0l-0.21-0.08
					c-0.55-0.22-1.5-0.97-1.5-2.39V24.96H3.36v-0.49c-0.52-0.49-0.72-1.26-0.54-2.15l0.07-0.37l0.09-0.08L23.65,3.37l0,0
					c0,0,0.71-0.64,1.61-0.6c0.54,0.03,1.02,0.27,1.39,0.71c0.35,0.4,9.05,8.21,19.81,17.79c0.22,0.26,1.11,1.4,0.66,2.5
					c-0.14,0.35-0.54,0.96-1.6,1.12c-0.59,0.09-1.09,0.1-1.49,0.11v19.58c0.06,0.82-0.39,2.23-1.91,2.64L41.96,47.25z M37.49,44.93
					c1.82,0,3.22,0.02,4.17,0.05c0.14-0.1,0.14-0.31,0.13-0.33l0-22.28l1.37,0.3c0,0,0.63,0.13,1.58,0.04
					C42.91,21.11,26.96,6.91,25.1,5.1L5.42,22.71h2.97v22.02c0,0.1,0.02,0.17,0.04,0.22c2.43-0.01,7.5-0.03,9.09-0.01L17.5,33.89
					c0-1.13,0.77-1.73,1.22-1.91L19,31.9l0.15,0c6.22,0.05,11.19,0.06,11.56,0.01l0.2-0.03l0.2,0.05c0.71,0.16,1.19,0.51,1.44,1.04
					c0.15,0.33,0.19,0.71,0.1,1.07c0,1.71,0.02,9.54,0,10.92C33.47,44.96,35.46,44.93,37.49,44.93z"/>
			</g>
		</g>
	</g>
	<g>
		<g>
			<g>
				<path d="M41.91,47.06h-0.1c-2.27-0.1-7.3-0.05-9.36-0.03l-0.08,0c-0.3,0.03-0.79-0.07-1.18-0.42c-0.42-0.37-0.63-0.93-0.62-1.66
					c0.02-1.13,0.01-7.99,0-10.89l0-0.08c-1.51,0.05-8.05,0-10.59-0.01l-0.44,0l0.01,11.17c0.04,0.3-0.03,0.81-0.34,1.21
					c-0.32,0.39-0.77,0.61-1.3,0.65c-0.72-0.02-4.21-0.02-9.63,0.01l-0.33,0l-0.19-0.04c-0.12-0.05-1.44-0.6-1.44-2.24V24.77H4.49
					c-0.21-0.02-0.8-0.11-1.21-0.68C2.96,23.64,2.86,23.04,3,22.36l0.06-0.3L23.77,3.5c0.01-0.01,0.59-0.6,1.48-0.56
					c0.49,0.02,0.92,0.25,1.27,0.65c0.42,0.47,10.26,9.29,19.82,17.82c0.22,0.25,1.02,1.29,0.62,2.29
					c-0.13,0.31-0.48,0.86-1.44,1.01c-0.66,0.1-1.22,0.12-1.65,0.11v19.77c0.05,0.76-0.38,2.08-1.77,2.45L41.91,47.06z M37.58,45.12
					c1.63,0,3.12,0.02,4.11,0.05c0.29-0.14,0.28-0.48,0.27-0.52l0-22.04l1.14,0.24l0,0c0.32,0.05,1.03,0.12,1.97,0
					c-0.03-0.06-0.07-0.13-0.12-0.18c-0.9-0.78-18.82-16.74-19.85-17.83c-0.04,0.02-0.09,0.05-0.12,0.08L4.94,22.9h3.28v21.84
					c0,0.21,0.06,0.33,0.13,0.41c1.3-0.01,7.89-0.05,9.38-0.01l-0.04-11.24c0-0.9,0.56-1.51,1.11-1.73l0.26-0.07
					c6.63,0.05,11.28,0.05,11.66,0l0.09-0.01l0.17,0.01c0.89,0.2,1.24,0.63,1.4,0.96c0.14,0.3,0.17,0.65,0.08,0.97l0,1.49
					c0.01,2.95,0.02,8.44,0,9.48c0,0.07,0,0.12,0.01,0.16c0.17,0,0.45,0,0.8-0.01C34.28,45.14,35.93,45.12,37.58,45.12z
					 M32.29,45.15c0,0,0.01,0,0.01,0C32.29,45.15,32.29,45.15,32.29,45.15z"/>
				<path d="M41.93,47.43h-0.12c-2.36-0.1-7.76-0.05-9.35-0.03c-0.41,0.04-1.02-0.07-1.51-0.51c-0.51-0.45-0.76-1.1-0.75-1.95
					c0.02-1.09,0.01-7.54,0-10.58c-2.07,0.03-8.13-0.01-10.22-0.02h-0.06l0.01,10.8c0.04,0.33-0.04,0.95-0.42,1.45
					c-0.39,0.48-0.93,0.75-1.57,0.79c-0.76-0.02-4.26-0.02-9.66,0.01l-0.33,0l-0.27-0.05c-0.87-0.37-1.73-1.23-1.73-2.61V25.14H4.49
					C4.18,25.12,3.46,25,2.97,24.31c-0.38-0.54-0.5-1.24-0.34-2.03l0.08-0.42l20.8-18.64c0,0,0,0,0,0c0,0,0.7-0.7,1.75-0.65
					c0.59,0.03,1.12,0.3,1.53,0.78c0.35,0.39,8.49,7.7,19.79,17.78c0.32,0.36,1.19,1.52,0.71,2.71c-0.16,0.39-0.59,1.06-1.73,1.24
					c-0.45,0.07-0.9,0.1-1.34,0.11v19.4c0.06,0.88-0.43,2.39-2.05,2.82L41.93,47.43z M37.43,46.63c1.67,0,3.33,0.01,4.39,0.06
					l0.21-0.02c1.12-0.3,1.49-1.42,1.45-2.06l0-20.18l0.38,0.01c0.51,0.01,1.05-0.02,1.59-0.1c0.78-0.12,1.05-0.54,1.15-0.78
					c0.33-0.81-0.4-1.73-0.55-1.9C37.22,13.78,26.7,4.36,26.24,3.84c-0.28-0.33-0.63-0.51-1.01-0.53c-0.71-0.04-1.19,0.44-1.19,0.45
					L3.4,22.25l-0.03,0.17c-0.12,0.59-0.05,1.08,0.21,1.45c0.31,0.43,0.75,0.51,0.93,0.52l2.19,0v20.33c0,1.28,0.93,1.78,1.21,1.9
					l0.13,0.02l0.24-0.01c5.4-0.03,8.92-0.03,9.65-0.01c0.4-0.03,0.75-0.2,1-0.51c0.22-0.29,0.29-0.68,0.26-0.93l-0.02-11.6
					l0.82,0.01c2.23,0.02,9.03,0.06,10.57,0.01l0.38-0.01l0,0.38c0.01,2.99,0.02,9.85,0,10.99c-0.01,0.61,0.16,1.08,0.49,1.37
					c0.31,0.27,0.7,0.35,0.89,0.32l0.12,0C33.55,46.64,35.5,46.63,37.43,46.63z M41.78,45.55l-0.09,0c-0.98-0.03-2.47-0.05-4.1-0.05
					c-1.65,0-3.29,0.02-4.3,0.03l-1.15,0.01l-0.04-0.33c-0.01-0.06-0.01-0.13-0.01-0.21c0.02-1,0.01-6.12,0-9.17l0-1.84l0.01-0.05
					c0.06-0.24,0.04-0.5-0.06-0.71c-0.17-0.37-0.55-0.62-1.14-0.76l-0.11,0c-0.49,0.07-6.21,0.05-11.68,0.01l-0.21,0.06
					c-0.39,0.16-0.83,0.65-0.83,1.37l0.04,11.63l-0.39-0.01c-1.51-0.04-8.2,0-9.37,0.01l-0.17,0l-0.11-0.13
					c-0.1-0.11-0.22-0.32-0.22-0.65V23.27H3.96L24.74,4.64c0.07-0.06,0.14-0.1,0.2-0.13l0.25-0.13l0.19,0.21
					c1.02,1.07,18.74,16.86,19.82,17.8c0.11,0.13,0.16,0.21,0.2,0.28l0.27,0.48l-0.55,0.07c-0.71,0.09-1.42,0.09-2.07,0l-0.4-0.06
					l0.01-0.03l-0.32-0.07l0,21.58c0.02,0.26-0.09,0.67-0.48,0.86L41.78,45.55z M37.58,44.74c1.56,0,3.01,0.02,3.99,0.05
					c0.03-0.05,0.02-0.12,0.02-0.12l0-22.53l1.64,0.35c0.33,0.04,0.67,0.06,1.03,0.05C41.53,20.13,27.34,7.48,25.1,5.35L5.92,22.52
					h2.67v22.21c0,0.01,0,0.02,0,0.03c1.54-0.01,6.85-0.04,8.76-0.02l-0.04-10.86c0-1.07,0.68-1.82,1.35-2.08l0.4-0.1
					c7.21,0.06,11.3,0.05,11.61,0.01l0.16-0.01l0.17,0.01c1.09,0.24,1.53,0.78,1.71,1.18c0.17,0.36,0.21,0.77,0.12,1.17l0,1.74
					c0,2.88,0.01,7.57,0,8.97l0.43,0C34.28,44.76,35.93,44.74,37.58,44.74z"/>
			</g>
			<g>
				<path d="M41.92,47.31h-0.12c-2.36-0.1-7.76-0.05-9.35-0.03l-0.08,0c-0.32,0.03-0.88-0.07-1.35-0.48
					c-0.48-0.42-0.71-1.04-0.7-1.85c0.02-1.11,0.01-7.73,0-10.71c-1.93,0.04-8.21,0-10.34-0.02l-0.19,0l0.01,10.92
					c0.04,0.32-0.03,0.9-0.4,1.37c-0.36,0.45-0.87,0.7-1.48,0.75c-0.74-0.02-4.25-0.02-9.65,0.01l-0.33,0l-0.24-0.05
					c-0.42-0.17-1.63-0.82-1.63-2.49V25.02H4.49C4.2,25,3.53,24.88,3.08,24.24c-0.36-0.51-0.47-1.18-0.32-1.93l0.07-0.38l0.06-0.06
					L23.6,3.31l0,0c0,0,0.65-0.68,1.66-0.62c0.56,0.03,1.06,0.28,1.44,0.74c0.35,0.39,8.5,7.71,19.8,17.79
					c0.21,0.25,1.15,1.42,0.68,2.57c-0.15,0.36-0.55,0.99-1.64,1.16c-0.49,0.07-0.97,0.11-1.44,0.11v19.52
					c0.06,0.85-0.41,2.28-1.96,2.7L41.92,47.31z M37.43,46.75c1.67,0,3.32,0.01,4.39,0.06l0.23-0.02c1.21-0.32,1.6-1.52,1.56-2.19
					l0-20.04l0.26,0.01c0.53,0.02,1.07-0.02,1.61-0.1c0.84-0.13,1.14-0.59,1.25-0.86c0.36-0.88-0.42-1.84-0.57-2.03
					C36.61,13.06,26.76,4.24,26.33,3.76c-0.3-0.35-0.68-0.55-1.09-0.57c-0.77-0.04-1.28,0.48-1.29,0.48L3.29,22.19L3.25,22.4
					c-0.13,0.62-0.05,1.15,0.23,1.55c0.34,0.47,0.83,0.56,1.02,0.57l2.07,0v20.21c0,1.36,0.98,1.88,1.29,2.01l0.15,0.03l0.27-0.01
					c5.4-0.03,8.92-0.03,9.64-0.01c0.45-0.03,0.83-0.22,1.1-0.56c0.28-0.37,0.31-0.82,0.29-1.03l-0.02-11.46l0.69,0
					c2.24,0.02,9.03,0.06,10.58,0.01l0.25-0.01l0,0.34c0.01,2.9,0.02,9.76,0,10.9c-0.01,0.65,0.17,1.15,0.53,1.47
					c0.32,0.28,0.73,0.38,0.99,0.35l0.1,0C33.55,46.77,35.5,46.75,37.43,46.75z M41.75,45.42l-0.06,0
					c-0.98-0.03-2.47-0.05-4.11-0.05c-1.65,0-3.29,0.02-4.3,0.03l-1.04,0.01l-0.03-0.22c-0.01-0.05-0.01-0.12-0.01-0.2
					c0.02-1,0.01-6.12,0-9.18l0-1.82l0.01-0.03c0.07-0.26,0.04-0.56-0.07-0.8c-0.19-0.4-0.6-0.68-1.22-0.82l-0.13-0.01l-0.04,0.01
					c-0.41,0.05-5.09,0.05-11.66,0l-0.23,0.06c-0.45,0.18-0.92,0.71-0.92,1.49l0.04,11.5l-0.26-0.01c-1.51-0.04-8.21,0-9.37,0.01
					l-0.11,0l-0.08-0.09c-0.09-0.1-0.19-0.28-0.19-0.57V23.15H4.28L24.83,4.73c0.06-0.05,0.12-0.08,0.17-0.11l0.17-0.09l0.13,0.14
					c1.02,1.07,18.75,16.87,19.83,17.81c0.08,0.1,0.13,0.18,0.17,0.25l0.18,0.32l-0.36,0.05c-0.71,0.09-1.39,0.09-2.04,0l-0.27-0.04
					l0-0.02l-0.59-0.13l0,21.73c0,0.04,0.03,0.54-0.41,0.75L41.75,45.42z M37.58,44.87c1.6,0,3.06,0.02,4.05,0.05
					c0.1-0.08,0.09-0.25,0.09-0.25l0-22.37l1.5,0.32c0.44,0.06,0.89,0.07,1.36,0.04C42.45,20.78,27.03,7.04,25.09,5.17L5.59,22.65
					h2.88v22.09c0,0.07,0.01,0.12,0.02,0.15c1.42-0.01,7.16-0.04,8.99-0.02l-0.04-10.99c0-1.01,0.64-1.72,1.27-1.96l0.36-0.09
					c7.21,0.06,11.31,0.05,11.63,0.01l0.09-0.01L31,31.84c0.83,0.18,1.35,0.56,1.61,1.11c0.16,0.34,0.19,0.73,0.1,1.1l0,1.76
					c0.01,2.97,0.02,7.89,0,9.09l0.55-0.01C34.29,44.89,35.93,44.87,37.58,44.87z"/>
				<path d="M41.95,47.68h-0.14c-2.59-0.11-8.67-0.04-9.35-0.03c-0.46,0.04-1.13-0.08-1.68-0.57c-0.56-0.5-0.84-1.22-0.83-2.14
					c0.02-1.17,0.01-8.4,0-10.33c-1.52,0.02-4.8,0.01-9.78-0.02l0.01,10.55c0.05,0.36-0.04,1.04-0.47,1.6
					c-0.43,0.53-1.04,0.84-1.75,0.89c-0.8-0.02-4.49-0.02-9.67,0.01l-0.33,0l-0.32-0.06c-0.51-0.2-1.93-0.95-1.93-2.85V25.39H4.49
					c-0.35-0.03-1.17-0.16-1.72-0.94c-0.42-0.6-0.56-1.37-0.38-2.23l0.09-0.5l0.09-0.08L23.35,3.03l0,0
					c0.22-0.22,0.93-0.76,1.93-0.72c0.66,0.03,1.25,0.33,1.71,0.87c0.29,0.32,7.18,6.53,19.76,17.76c0.25,0.29,1.33,1.62,0.78,2.99
					c-0.17,0.44-0.66,1.2-1.93,1.39c-0.38,0.06-0.76,0.09-1.13,0.11v19.15c0.07,0.96-0.47,2.59-2.23,3.06L41.95,47.68z M37.43,46.38
					c1.98,0,3.46,0.02,4.4,0.06l0.18-0.02c0.98-0.27,1.25-1.32,1.22-1.79l0-20.45l0.64,0.01c0.49,0.01,1-0.02,1.55-0.1
					c0.65-0.1,0.88-0.44,0.96-0.63c0.28-0.69-0.43-1.55-0.51-1.64c-7.1-6.32-19.3-17.24-19.81-17.81c-0.24-0.28-0.52-0.43-0.83-0.44
					c-0.58-0.03-1,0.37-1.01,0.37L3.63,22.38l-0.02,0.09c-0.06,0.29-0.07,0.56-0.02,0.79L24.58,4.46c0.1-0.08,0.18-0.13,0.25-0.16
					l0.42-0.22l0.33,0.34c1.01,1.07,18.72,16.84,19.81,17.79c0.15,0.17,0.21,0.26,0.25,0.35l0.44,0.8l-0.91,0.12
					c-0.74,0.1-1.47,0.1-2.14,0l-0.43-0.06l0,21.23c0.02,0.26-0.08,0.82-0.62,1.08l-0.23,0.07l-0.06,0
					c-0.99-0.03-2.48-0.05-4.09-0.05c-1.64,0-3.27,0.02-4.29,0.03l-1.39,0.01l-0.06-0.56c-0.01-0.07-0.01-0.15-0.01-0.25
					c0.02-1,0.01-6.11,0-9.17l0-1.88l0.01-0.05c0.05-0.2,0.04-0.41-0.04-0.57c-0.13-0.29-0.46-0.5-0.97-0.62l-0.06,0v0
					c-1.03,0.07-6.8,0.05-11.64,0.01l-0.18,0.05c-0.29,0.12-0.65,0.53-0.65,1.13l0.04,11.88l-0.64-0.01c-1.5-0.04-8.19,0-9.36,0.01
					l-0.29,0l-0.19-0.21c-0.13-0.14-0.28-0.41-0.28-0.82V23.52H3.67c0.03,0.07,0.07,0.14,0.12,0.21c0.24,0.34,0.6,0.4,0.75,0.41
					l2.42,0v20.58c0,1.13,0.81,1.56,1.06,1.67l0.08,0.01l0.18-0.02c5.41-0.03,8.93-0.03,9.67-0.01c0.31-0.02,0.59-0.17,0.8-0.42
					c0.21-0.27,0.22-0.63,0.21-0.74l-0.02-11.88l1.07,0.01c5.98,0.04,9.53,0.05,10.56,0.01l0.64-0.02l0.01,0.72
					c0.01,2.91,0.02,9.78,0,10.91c-0.01,0.54,0.13,0.93,0.41,1.18c0.25,0.22,0.56,0.28,0.7,0.26l0.13,0
					C33.55,46.39,35.5,46.38,37.43,46.38z M37.58,44.49c1.47,0,2.83,0.01,3.8,0.04l-0.04-22.7l1.95,0.41
					c0.09,0.01,0.19,0.02,0.29,0.03c-3.64-3.23-15.99-14.25-18.5-16.6L6.57,22.27h2.27v22.24c1.68-0.01,6.27-0.04,8.26-0.02
					l-0.03-10.61c0-1.19,0.76-2.02,1.51-2.31l0.4-0.1c8.05,0.05,11.42,0.03,11.67,0l0.15-0.01l0.22,0.01c1,0.22,1.62,0.66,1.93,1.33
					c0.19,0.42,0.24,0.9,0.13,1.35l0.01,1.67c0,2.72,0.01,7.07,0,8.71l0.17,0C34.32,44.51,35.95,44.49,37.58,44.49z"/>
			</g>
		</g>
	</g>
</g>
</svg>
