<?xml version="1.0" encoding="utf-8"?>
<!-- Generator: Adobe Illustrator 23.0.1, SVG Export Plug-In . SVG Version: 6.00 Build 0)  -->
<svg version="1.1" id="Layer_1" xmlns="http://www.w3.org/2000/svg" xmlns:xlink="http://www.w3.org/1999/xlink" x="0px" y="0px"
	 viewBox="0 0 50 50" style="enable-background:new 0 0 50 50;" xml:space="preserve">
<style type="text/css">
	.st0{clip-path:url(#SVGID_1_);}
	.st1{fill:#FFFFFF;}
	.st2{opacity:0.5;fill:url(#SVGID_2_);enable-background:new    ;}
	.st3{clip-path:url(#SVGID_3_);}
	.st4{clip-path:url(#SVGID_4_);}
	.st5{fill:#CA2027;}
	.st6{fill:#2B3561;}
	.st7{opacity:0.5;fill:url(#SVGID_5_);enable-background:new    ;}
</style>
<title>Ativo 8</title>
<g id="Camada_2">
	<g id="Camada_1-2">
		<g>
			<defs>
				<path id="SVGID_9_" d="M48.5,25c0,13.4-10.8,24.2-24.2,24.2S0.2,38.4,0.2,25S11,0.8,24.3,0.8h0C37.7,0.8,48.5,11.6,48.5,25z"/>
			</defs>
			<clipPath id="SVGID_1_">
				<use xlink:href="#SVGID_9_"  style="overflow:visible;"/>
			</clipPath>
			<g class="st0">
				<polygon class="st1" points="16.3,0.8 32.4,0.8 32.4,17.4 72.8,16.9 72.8,33.1 32.4,33.6 32.4,49.7 16.3,49.7 16.3,33.6 
					-24.1,33.1 -24.1,16.9 16.3,17.4 				"/>
				<polygon class="st1" points="-24.1,0.8 -13.3,1.3 72.8,44.3 72.8,49.2 62,49.7 -24.1,6.2 				"/>
				<polygon class="st1" points="72.8,0.8 62,1.3 -24.1,44.3 -24.1,49.2 -13.3,49.7 72.8,6.2 				"/>
			</g>
		</g>
		
			<linearGradient id="SVGID_2_" gradientUnits="userSpaceOnUse" x1="24.3014" y1="23.1941" x2="24.367" y2="43.4368" gradientTransform="matrix(1 0 0 -1 0 52)">
			<stop  offset="0" style="stop-color:#FFFFFF;stop-opacity:0"/>
			<stop  offset="1" style="stop-color:#FFFFFF"/>
		</linearGradient>
		<path class="st2" d="M43.3,15.7c0,7.3-8.5,13.1-18.9,13.1S5.4,23,5.4,15.7S13.9,2.6,24.3,2.6S43.3,8.4,43.3,15.7z"/>
		<g>
			<defs>
				<path id="SVGID_12_" d="M50,25c0,13.8-11.2,25-25,25S0,38.8,0,25S11.2,0,25,0c0,0,0.1,0,0.1,0C38.9,0.1,50,11.2,50,25z"/>
			</defs>
			<clipPath id="SVGID_3_">
				<use xlink:href="#SVGID_12_"  style="overflow:visible;"/>
			</clipPath>
			<g class="st3">
				<g>
					<defs>
						<rect id="SVGID_14_" x="-13.3" y="0" width="86.5" height="50.5"/>
					</defs>
					<clipPath id="SVGID_4_">
						<use xlink:href="#SVGID_14_"  style="overflow:visible;"/>
					</clipPath>
					<g class="st4">
						<rect x="-13.3" y="46.6" class="st5" width="86.5" height="3.9"/>
						<rect x="-13.3" y="42.7" class="st1" width="86.5" height="3.9"/>
						<rect x="-13.3" y="38.8" class="st5" width="86.5" height="3.9"/>
						<rect x="-13.3" y="34.9" class="st1" width="86.5" height="3.9"/>
						<rect x="-13.3" y="31" class="st5" width="86.5" height="3.9"/>
						<rect x="-13.3" y="27.2" class="st1" width="86.5" height="3.9"/>
						<rect x="-13.3" y="23.3" class="st5" width="86.5" height="3.9"/>
						<rect x="-13.3" y="19.4" class="st1" width="86.5" height="3.9"/>
						<rect x="-13.3" y="15.5" class="st5" width="86.5" height="3.9"/>
						<rect x="-13.3" y="11.6" class="st1" width="86.5" height="3.9"/>
						<rect x="-13.3" y="7.8" class="st5" width="86.5" height="3.9"/>
						<rect x="-13.3" y="3.9" class="st1" width="86.5" height="3.9"/>
						<rect x="-13.3" y="0" class="st5" width="86.5" height="3.9"/>
						<rect x="-13.3" y="0" class="st6" width="39.5" height="27.2"/>
						<polygon class="st1" points="-9.7,3 -9.4,4 -8.3,4 -9.2,4.7 -8.8,5.7 -9.7,5.1 -10.6,5.7 -10.2,4.7 -11.1,4 -10,4 						"/>
						<polygon class="st1" points="-9.7,7.5 -9.4,8.6 -8.3,8.6 -9.2,9.2 -8.8,10.2 -9.7,9.6 -10.6,10.2 -10.2,9.2 -11.1,8.6 
							-10,8.6 						"/>
						<polygon class="st1" points="-9.7,12.1 -9.4,13.1 -8.3,13.1 -9.2,13.7 -8.8,14.8 -9.7,14.1 -10.6,14.8 -10.2,13.7 -11.1,13.1 
							-10,13.1 						"/>
						<polygon class="st1" points="-9.7,16.6 -9.4,17.6 -8.3,17.6 -9.2,18.3 -8.8,19.3 -9.7,18.7 -10.6,19.3 -10.2,18.3 -11.1,17.6 
							-10,17.6 						"/>
						<polygon class="st1" points="-9.7,21.1 -9.4,22.1 -8.3,22.1 -9.2,22.8 -8.8,23.8 -9.7,23.2 -10.6,23.8 -10.2,22.8 -11.1,22.1 
							-10,22.1 						"/>
						<polygon class="st1" points="-6.5,5.4 -6.2,6.4 -5.1,6.4 -6,7.1 -5.7,8.1 -6.5,7.4 -7.4,8.1 -7.1,7.1 -7.9,6.4 -6.9,6.4 
													"/>
						<polygon class="st1" points="-6.5,9.9 -6.2,11 -5.1,11 -6,11.6 -5.7,12.6 -6.5,12 -7.4,12.6 -7.1,11.6 -7.9,11 -6.9,11 						
							"/>
						<polygon class="st1" points="-6.5,14.5 -6.2,15.5 -5.1,15.5 -6,16.1 -5.7,17.1 -6.5,16.5 -7.4,17.1 -7.1,16.1 -7.9,15.5 
							-6.9,15.5 						"/>
						<polygon class="st1" points="-6.5,19 -6.2,20 -5.1,20 -6,20.6 -5.7,21.7 -6.5,21 -7.4,21.7 -7.1,20.6 -7.9,20 -6.9,20 						
							"/>
						<polygon class="st1" points="-3.3,3 -3,4 -1.9,4 -2.8,4.7 -2.5,5.7 -3.3,5.1 -4.2,5.7 -3.9,4.7 -4.8,4 -3.7,4 						"/>
						<polygon class="st1" points="-3.3,7.5 -3,8.6 -1.9,8.6 -2.8,9.2 -2.5,10.2 -3.3,9.6 -4.2,10.2 -3.9,9.2 -4.8,8.6 -3.7,8.6 
													"/>
						<polygon class="st1" points="-3.3,12.1 -3,13.1 -1.9,13.1 -2.8,13.7 -2.5,14.8 -3.3,14.1 -4.2,14.8 -3.9,13.7 -4.8,13.1 
							-3.7,13.1 						"/>
						<polygon class="st1" points="-3.3,16.6 -3,17.6 -1.9,17.6 -2.8,18.3 -2.5,19.3 -3.3,18.7 -4.2,19.3 -3.9,18.3 -4.8,17.6 
							-3.7,17.6 						"/>
						<polygon class="st1" points="-3.3,21.1 -3,22.1 -1.9,22.1 -2.8,22.8 -2.5,23.8 -3.3,23.2 -4.2,23.8 -3.9,22.8 -4.8,22.1 
							-3.7,22.1 						"/>
						<polygon class="st1" points="-0.2,5.4 0.2,6.4 1.2,6.4 0.4,7.1 0.7,8.1 -0.2,7.4 -1,8.1 -0.7,7.1 -1.6,6.4 -0.5,6.4 						"/>
						<polygon class="st1" points="-0.2,9.9 0.2,11 1.2,11 0.4,11.6 0.7,12.6 -0.2,12 -1,12.6 -0.7,11.6 -1.6,11 -0.5,11 						"/>
						<polygon class="st1" points="-0.2,14.5 0.2,15.5 1.2,15.5 0.4,16.1 0.7,17.1 -0.2,16.5 -1,17.1 -0.7,16.1 -1.6,15.5 
							-0.5,15.5 						"/>
						<polygon class="st1" points="-0.2,19 0.2,20 1.2,20 0.4,20.6 0.7,21.7 -0.2,21 -1,21.7 -0.7,20.6 -1.6,20 -0.5,20 						"/>
						<polygon class="st1" points="3,3 3.3,4 4.4,4 3.6,4.7 3.9,5.7 3,5.1 2.1,5.7 2.5,4.7 1.6,4 2.7,4 						"/>
						<polygon class="st1" points="3,7.5 3.3,8.6 4.4,8.6 3.6,9.2 3.9,10.2 3,9.6 2.1,10.2 2.5,9.2 1.6,8.6 2.7,8.6 						"/>
						<polygon class="st1" points="3,12.1 3.3,13.1 4.4,13.1 3.6,13.7 3.9,14.8 3,14.1 2.1,14.8 2.5,13.7 1.6,13.1 2.7,13.1 						
							"/>
						<polygon class="st1" points="3,16.6 3.3,17.6 4.4,17.6 3.6,18.3 3.9,19.3 3,18.7 2.1,19.3 2.5,18.3 1.6,17.6 2.7,17.6 						
							"/>
						<polygon class="st1" points="3,21.1 3.3,22.1 4.4,22.1 3.6,22.8 3.9,23.8 3,23.2 2.1,23.8 2.5,22.8 1.6,22.1 2.7,22.1 						
							"/>
						<polygon class="st1" points="6.2,5.4 6.5,6.4 7.6,6.4 6.7,7.1 7.1,8.1 6.2,7.4 5.3,8.1 5.6,7.1 4.8,6.4 5.8,6.4 						"/>
						<polygon class="st1" points="6.2,9.9 6.5,11 7.6,11 6.7,11.6 7.1,12.6 6.2,12 5.3,12.6 5.6,11.6 4.8,11 5.8,11 						"/>
						<polygon class="st1" points="6.2,14.5 6.5,15.5 7.6,15.5 6.7,16.1 7.1,17.1 6.2,16.5 5.3,17.1 5.6,16.1 4.8,15.5 5.8,15.5 
													"/>
						<polygon class="st1" points="6.2,19 6.5,20 7.6,20 6.7,20.6 7.1,21.7 6.2,21 5.3,21.7 5.6,20.6 4.8,20 5.8,20 						"/>
						<polygon class="st1" points="9.4,3 9.7,4 10.8,4 9.9,4.7 10.2,5.7 9.4,5.1 8.5,5.7 8.8,4.7 8,4 9.1,4 						"/>
						<polygon class="st1" points="9.4,7.5 9.7,8.6 10.8,8.6 9.9,9.2 10.2,10.2 9.4,9.6 8.5,10.2 8.8,9.2 8,8.6 9.1,8.6 						"/>
						<polygon class="st1" points="9.4,12.1 9.7,13.1 10.8,13.1 9.9,13.7 10.2,14.8 9.4,14.1 8.5,14.8 8.8,13.7 8,13.1 9.1,13.1 
													"/>
						<polygon class="st1" points="9.4,16.6 9.7,17.6 10.8,17.6 9.9,18.3 10.2,19.3 9.4,18.7 8.5,19.3 8.8,18.3 8,17.6 9.1,17.6 
													"/>
						<polygon class="st1" points="9.4,21.1 9.7,22.1 10.8,22.1 9.9,22.8 10.2,23.8 9.4,23.2 8.5,23.8 8.8,22.8 8,22.1 9.1,22.1 
													"/>
						<polygon class="st1" points="12.5,5.4 12.9,6.4 13.9,6.4 13.1,7.1 13.4,8.1 12.5,7.4 11.6,8.1 12,7.1 11.1,6.4 12.2,6.4 
													"/>
						<polygon class="st1" points="12.5,9.9 12.9,11 13.9,11 13.1,11.6 13.4,12.6 12.5,12 11.6,12.6 12,11.6 11.1,11 12.2,11 						
							"/>
						<polygon class="st1" points="12.5,14.5 12.9,15.5 13.9,15.5 13.1,16.1 13.4,17.1 12.5,16.5 11.6,17.1 12,16.1 11.1,15.5 
							12.2,15.5 						"/>
						<polygon class="st1" points="12.5,19 12.9,20 13.9,20 13.1,20.6 13.4,21.7 12.5,21 11.6,21.7 12,20.6 11.1,20 12.2,20 						
							"/>
						<polygon class="st1" points="15.7,3 16.1,4 17.2,4 16.3,4.7 16.6,5.7 15.7,5.1 14.9,5.7 15.2,4.7 14.3,4 15.4,4 						"/>
						<polygon class="st1" points="15.7,7.5 16.1,8.6 17.2,8.6 16.3,9.2 16.6,10.2 15.7,9.6 14.9,10.2 15.2,9.2 14.3,8.6 15.4,8.6 
													"/>
						<polygon class="st1" points="15.7,12.1 16.1,13.1 17.2,13.1 16.3,13.7 16.6,14.8 15.7,14.1 14.9,14.8 15.2,13.7 14.3,13.1 
							15.4,13.1 						"/>
						<polygon class="st1" points="15.7,16.6 16.1,17.6 17.2,17.6 16.3,18.3 16.6,19.3 15.7,18.7 14.9,19.3 15.2,18.3 14.3,17.6 
							15.4,17.6 						"/>
						<polygon class="st1" points="15.7,21.1 16.1,22.1 17.2,22.1 16.3,22.8 16.6,23.8 15.7,23.2 14.9,23.8 15.2,22.8 14.3,22.1 
							15.4,22.1 						"/>
						<polygon class="st1" points="18.9,5.4 19.2,6.4 20.3,6.4 19.4,7.1 19.8,8.1 18.9,7.4 18,8.1 18.3,7.1 17.5,6.4 18.6,6.4 
													"/>
						<polygon class="st1" points="18.9,9.9 19.2,11 20.3,11 19.4,11.6 19.8,12.6 18.9,12 18,12.6 18.3,11.6 17.5,11 18.6,11 						
							"/>
						<polygon class="st1" points="18.9,14.5 19.2,15.5 20.3,15.5 19.4,16.1 19.8,17.1 18.9,16.5 18,17.1 18.3,16.1 17.5,15.5 
							18.6,15.5 						"/>
						<polygon class="st1" points="18.9,19 19.2,20 20.3,20 19.4,20.6 19.8,21.7 18.9,21 18,21.7 18.3,20.6 17.5,20 18.6,20 						
							"/>
						<polygon class="st1" points="22.1,3 22.4,4 23.5,4 22.6,4.7 23,5.7 22.1,5.1 21.2,5.7 21.6,4.7 20.7,4 21.8,4 						"/>
						<polygon class="st1" points="22.1,7.5 22.4,8.6 23.5,8.6 22.6,9.2 23,10.2 22.1,9.6 21.2,10.2 21.6,9.2 20.7,8.6 21.8,8.6 
													"/>
						<polygon class="st1" points="22.1,12.1 22.4,13.1 23.5,13.1 22.6,13.7 23,14.8 22.1,14.1 21.2,14.8 21.6,13.7 20.7,13.1 
							21.8,13.1 						"/>
						<polygon class="st1" points="22.1,16.6 22.4,17.6 23.5,17.6 22.6,18.3 23,19.3 22.1,18.7 21.2,19.3 21.6,18.3 20.7,17.6 
							21.8,17.6 						"/>
						<polygon class="st1" points="22.1,21.1 22.4,22.1 23.5,22.1 22.6,22.8 23,23.8 22.1,23.2 21.2,23.8 21.6,22.8 20.7,22.1 
							21.8,22.1 						"/>
					</g>
				</g>
			</g>
		</g>
		
			<linearGradient id="SVGID_5_" gradientUnits="userSpaceOnUse" x1="25.192" y1="24.9329" x2="25.2248" y2="45.1757" gradientTransform="matrix(1 0 0 -1 0 52)">
			<stop  offset="0" style="stop-color:#FFFFFF;stop-opacity:0"/>
			<stop  offset="1" style="stop-color:#FFFFFF"/>
		</linearGradient>
		<path class="st7" d="M44.1,14c0,7.3-8.5,13.1-18.9,13.1S6.3,21.2,6.3,14S14.8,0.9,25.2,0.9S44.1,6.6,44.1,14z"/>
	</g>
</g>
</svg>
