<?xml version="1.0" encoding="utf-8"?>
<!-- Generator: Adobe Illustrator 23.0.1, SVG Export Plug-In . SVG Version: 6.00 Build 0)  -->
<svg version="1.1" id="Layer_1" xmlns="http://www.w3.org/2000/svg" xmlns:xlink="http://www.w3.org/1999/xlink" x="0px" y="0px"
	 viewBox="0 0 480 480" style="enable-background:new 0 0 480 480;" xml:space="preserve">
<g>
	<path d="M240,471.1c-61.7,0-119.8-24-163.4-67.7C32.9,359.8,8.9,301.7,8.9,240s24-119.8,67.7-163.4S178.3,8.9,240,8.9
		C301.7,9,359.7,33,403.3,76.7C447,120.3,471,178.3,471.1,240c0,61.7-24,119.8-67.7,163.4C359.8,447.1,301.7,471.1,240,471.1z
		 M240,35.9C127.5,35.9,35.9,127.5,35.9,240c0,112.5,91.6,204.1,204.1,204.1C352.4,444,444,352.4,444.1,240
		C444.1,127.5,352.5,35.9,240,35.9z"/>
</g>
<g>
	<path d="M240,287.1c-26,0-47.1-21.1-47.1-47.1s21.1-47.1,47.1-47.1c26,0,47.1,21.2,47.1,47.1C287.1,266,266,287.1,240,287.1z
		 M240,218.1c-12.1,0-21.9,9.8-21.9,21.9c0,12.1,9.8,21.9,21.9,21.9c12.1,0,21.9-9.8,21.9-21.9C261.9,227.9,252.1,218.1,240,218.1z"
		/>
</g>
<g>
	<path d="M136.5,287.1c-26,0-47.1-21.1-47.1-47.1s21.1-47.1,47.1-47.1c26,0,47.1,21.2,47.1,47.1C183.6,266,162.5,287.1,136.5,287.1z
		 M136.5,218.1c-12.1,0-21.9,9.8-21.9,21.9c0,12.1,9.8,21.9,21.9,21.9s21.9-9.8,21.9-21.9C158.3,227.9,148.5,218.1,136.5,218.1z"/>
</g>
<g>
	<path d="M343.5,287.1c-26,0-47.1-21.1-47.1-47.1s21.1-47.1,47.1-47.1c26,0,47.1,21.2,47.1,47.1C390.7,266,369.5,287.1,343.5,287.1z
		 M343.5,218.1c-12.1,0-21.9,9.8-21.9,21.9c0,12.1,9.8,21.9,21.9,21.9c12.1,0,21.9-9.8,21.9-21.9
		C365.4,227.9,355.6,218.1,343.5,218.1z"/>
</g>
</svg>
