<?xml version="1.0" encoding="utf-8"?>
<!-- Generator: Adobe Illustrator 23.0.1, SVG Export Plug-In . SVG Version: 6.00 Build 0)  -->
<svg version="1.1" id="Layer_1" xmlns="http://www.w3.org/2000/svg" xmlns:xlink="http://www.w3.org/1999/xlink" x="0px" y="0px"
	 viewBox="0 0 50 100" style="enable-background:new 0 0 50 100;" xml:space="preserve">
<style type="text/css">
	.st0{fill:#FFFFFF;}
	.st1{fill:#FFF100;}
	.st2{fill:#FCB80F;}
	.st3{fill:#F7921C;}
	.st4{fill:#F36E21;}
	.st5{fill:#ED1B24;}
</style>
<g>
	<rect x="20.6" y="-11.2" style="fill:none;" width="8.2" height="8.7"/>
	<text transform="matrix(1 0 0 1 20.5831 -4.4647)" class="st0" style="font-family:'MyriadPro-Regular'; font-size:8px;">48</text>
	<rect x="20.6" y="103.1" style="fill:none;" width="8.2" height="8.7"/>
	<text transform="matrix(1 0 0 1 20.5831 109.8183)" class="st0" style="font-family:'MyriadPro-Regular'; font-size:8px;">37</text>
	<path class="st0" d="M34.8,10.5c0-5.3-4.3-9.5-9.5-9.5c-5.3,0-9.5,4.3-9.5,9.5c0,3.3,1.6,6.2,4.2,7.9v74.9c0,3,2.4,5.4,5.4,5.4
		c3,0,5.4-2.4,5.4-5.4V18.3C33.2,16.6,34.8,13.7,34.8,10.5z"/>
	<g>
		<path class="st1" d="M28.6,78v15.7c0,1.5-1.2,2.7-2.7,2.7h-1.2c-1.5,0-2.7-1.2-2.7-2.7V78H28.6z"/>
		
			<rect x="16.1" y="65.5" transform="matrix(6.123234e-17 -1 1 6.123234e-17 -43.5897 94.1316)" class="st2" width="18.4" height="6.7"/>
		
			<rect x="16.1" y="47.2" transform="matrix(6.123234e-17 -1 1 6.123234e-17 -25.2208 75.7626)" class="st3" width="18.4" height="6.7"/>
		
			<rect x="16.1" y="28.8" transform="matrix(6.123234e-17 -1 1 6.123234e-17 -6.8518 57.3936)" class="st4" width="18.4" height="6.7"/>
		
			<rect x="17.5" y="11.9" transform="matrix(6.123234e-17 -1 1 6.123234e-17 10.0803 40.4615)" class="st5" width="15.5" height="6.7"/>
		<circle class="st5" cx="25.3" cy="10.5" r="7.4"/>
	</g>
</g>
</svg>
